<svg xmlns="http://www.w3.org/2000/svg" viewBox="0 0 1080 1080"><defs><style>.cls-1{fill:#973e20;}.cls-2{fill:#3f3731;}.cls-3{fill:#933a22;}.cls-4{fill:#772f1c;}.cls-5{fill:#a2d7c0;}.cls-6{fill:#a2d8ce;}.cls-7{fill:#619a7c;}.cls-8{fill:#4c423b;}.cls-9{fill:#a54423;}.cls-10{fill:#552113;}.cls-11{fill:#8e3321;}.cls-12{fill:#fff;}.cls-13{fill:#38302a;}.cls-14{fill:#2b2521;}.cls-15{fill:#79331a;}.cls-16{fill:#77281d;}.cls-17{fill:#e07670;}.cls-18{fill:#f6f6f6;}.cls-19{fill:#e5e5e5;}.cls-20{fill:#b6b6b7;}.cls-21{fill:#394c91;}.cls-22{fill:#263460;}.cls-23{fill:#3e50a2;}.cls-24{fill:#384a8e;}.cls-25{fill:#f2f2f2;}.cls-26{fill:#c9c9c9;}.cls-27{fill:#19213f;}.cls-28{fill:#8094d1;}</style></defs><g id="Isolation_Mode" data-name="Isolation Mode"><path class="cls-1" d="M741.26,1355.2c-43.47,30.09-80.72,43.58-112.76,41-30.07-2.41-54.45-18.43-70.5-46.34-31.57-54.88-44.5-130.38-38.43-224.39,3.3-51.18,12.07-98.6,18.67-123.87a14.55,14.55,0,0,1,20-9.62L593,1007.43a21.53,21.53,0,0,1,12.33,24.11c-4.56,21.78-11.89,61.75-14.26,103.33-4.36,76.32,5.77,138.27,29.29,179.16,5.22,9.08,9.73,10.17,13.89,10.5,9.33.75,46.14-2.78,128-79.65,47.89-45,55.83-47.35,56.21-47.82L898,1211.39c-1.65,2-34.59,37.14-85.89,85.38Q774.15,1332.41,741.26,1355.2Z"/><path class="cls-1" d="M937.24,1077.44l-46.86,50.1,14,13.06L950.79,1091a9.87,9.87,0,0,0-.47-14A9.26,9.26,0,0,0,937.24,1077.44Z"/><path class="cls-1" d="M909.24,1069.23,870.9,1123.8l13.82,9.72,37.42-53.26a9.25,9.25,0,0,0-2.25-12.89A7.66,7.66,0,0,0,909.24,1069.23Z"/><path class="cls-2" d="M544.11,947.12c14-.07,27.9.52,36.9,1a15.59,15.59,0,0,1,14,10.69c5.23,15.85,14.38,51.42,17.74,113.45a7.23,7.23,0,0,1-6.75,7.61c-54.66,3.59-89.13,4.66-104.13,5a7.24,7.24,0,0,1-7.3-8.4c2.94-18.24,9.59-61.84,11.13-92.59A38.71,38.71,0,0,1,544.11,947.12Z"/><rect class="cls-3" x="299.6" y="737.08" width="133.07" height="264.57"/><path class="cls-4" d="M432.67,737.08V838.82c-104,14.95-133.07-57.73-133.07-57.73v-44Z"/><path class="cls-5" d="M580.6,950.79c-1.2,27.07-4,67.67-7.61,115.36-14.63,189.76-43.64,491.11-43.64,491.11H224.63s4-361.07-38.82-525.13c-9.49-36.43-26.1-68-40.75-78.89,0,0,16.46-13.12,26.08-20.51a344.78,344.78,0,0,1,91.95-50.58c6.6-2.38,13.47-4.61,20.55-6.62,6.12-1.75,9.49-2.7,16-4.1,11.83,13.27,44.19,41.12,78.63,41.12h.57l.18.15.13-.15C416,912,430,880.64,432.9,872.79c5.57,1.36,11.21,3,16.92,4.73s11.24,3.65,16.95,5.77l0,0C496,894.18,526.26,910.27,557.47,933,565.12,938.48,572.86,944.43,580.6,950.79Z"/><path class="cls-6" d="M449.82,877.52C443.59,896.61,421.53,930,378.23,930c-50.29,0-91.26-46.21-97.14-53.77,6.12-1.75,12-3.44,18.51-4.84,11.83,13.27,44.19,41.12,78.63,41.12h.88C416,912,430,880.64,432.9,872.79,438.47,874.15,444.11,875.75,449.82,877.52Z"/><polygon class="cls-7" points="533.12 1072.56 469.7 1072.56 469.7 1127.34 503.51 1147.45 533.12 1127.34 533.12 1072.56"/><path class="cls-8" d="M362.84,1630.38c-57-.07-132.71-30.39-160.32-42.33a14.75,14.75,0,0,1-8.66-16c20.75-124.17,14.37-315.08-6.17-455.5-.43-3.07-.89-6.13-1.35-9.14-10.74-70.26-25.08-126.78-41.29-154.2,38.86-42.42,126.3-73.93,126.3-73.93l82.33,15.2,9.16,57.11s1.81,24,4.31,63.21q.28,4.63.59,9.52C377.42,1179.42,395.42,1536.14,362.84,1630.38Z"/><path class="cls-8" d="M582.24,952.45l-8.35,150-.51,9L548.59,1556.8a14.67,14.67,0,0,1-4.57,9.88c-10.52,10-40.8,35.62-93.92,57.29,13.65-212-1-463-11.48-599.78-.28-3.76-.56-7.41-.85-11-4.41-56.11-7.91-90.27-7.91-90.27l3-50.14C496.81,881.69,582.24,952.45,582.24,952.45Z"/><polygon class="cls-2" points="432.67 942.67 441.14 891.23 463.01 942.67 449.82 876.37 432.67 843.12 429.87 922.93 432.67 942.67"/><polygon class="cls-2" points="299.6 834.38 353.68 894.51 334 961.2 271.35 879.31 299.6 834.38"/><polygon class="cls-2" points="246.29 1088.64 329.38 1077.7 329.38 1156.42 293.3 1182.66 252.85 1160.8 246.29 1088.64"/><polygon class="cls-2" points="467.23 1070.79 550.34 1065.8 545.75 1138.92 508.42 1161.05 469.54 1138.22 467.23 1070.79"/><path class="cls-9" d="M156.66,188.13l3,272.93a88.33,88.33,0,0,1,7.88,35.32,261.28,261.28,0,0,0,1.6,27.71c3.33,19,7.62,37.72,11.74,56.53,2.66,12.15,6.64,23.73,10,35.69,3.58,12.9,5.11,26.3,6.61,39.65.47,2.08,1,4.15,1.59,6.2,10.45,21.13,22.12,42.24,30.08,64.38a309.09,309.09,0,0,0,82.25,46.81c43.24,16.72,97.41,27.59,165,26.65,188.08-24,139.48-613.14,139.48-613.14Z"/><path class="cls-1" d="M351.91,779.39C230.48,743.2,182.14,608.74,161.3,619.54c0,0-100.94,45.21-108.07-80.64,0,0-6-74.46,41.2-59l63.19-.68-1-95.33L222,370.34S220.18,748.12,351.91,779.39Z"/><path class="cls-10" d="M110.18,602.66q-5.19.06-12.61-3.83a2.25,2.25,0,1,1,2.1-4c4.92,2.58,11.41,5,14.41,1.75,4.8-5.16.82-23-5.67-33.36-2-3.17-2.37-5.85-1.16-8,1.44-2.53,4.84-3.72,10.47-3.55a6.89,6.89,0,0,0,6.13-3,4.89,4.89,0,0,0-.37-5.69c-7.92-10.52-23.11-27.42-35.76-22.56-5.68,2.2-9,5.21-10,9-1.67,6.7,4.62,14.06,4.68,14.14a2.25,2.25,0,1,1-3.39,3c-.32-.37-7.88-9.17-5.66-18.16,1.31-5.26,5.59-9.32,12.73-12.08,14.64-5.65,30.36,10,41,24a9.38,9.38,0,0,1,.61,10.77,11.33,11.33,0,0,1-10.07,5.09c-5.5-.11-6.37,1.14-6.46,1.28-.22.4-.07,1.5,1.08,3.35,5.77,9.25,12.63,30.74,5.15,38.8A9.52,9.52,0,0,1,110.18,602.66Z"/><path class="cls-11" d="M357.77,442.39s-4.84-1.24-11.77-2.67c-3.52-.69-7.58-1.39-11.91-1.94-2.2-.21-4.44-.47-6.72-.56a62.63,62.63,0,0,0-6.86-.14c-2.3-.09-4.57.23-6.86.29-2.19.32-4.51.47-6.67.78s-4.21.73-6.28,1.05c-1.9.45-3.77.85-5.56,1.22-3.68.69-6.31,1.56-8.57,2s-3.51.76-3.51.76a22.11,22.11,0,0,1,1.76-1.35,27.31,27.31,0,0,1,5.88-3.36c1.47-.63,3.08-1.33,5-2,2.08-.6,4.31-1.26,6.77-1.86s5.42-1,8.38-1.43c3.13-.19,6.29-.63,9.56-.59a92.87,92.87,0,0,1,9.56.37,83.08,83.08,0,0,1,8.5,1.18,60.45,60.45,0,0,1,12,3.57C356.24,440.21,357.77,442.39,357.77,442.39Z"/><path class="cls-12" d="M527.31,471.18s.92,33.63,35.55,33.26,50.58-28.42,31-37.21C575.44,458.7,547.45,456.74,527.31,471.18Z"/><path class="cls-13" d="M602.12,475.61s-1.08-.73-3-1.86-4.67-2.68-8-4.27c-1.64-.83-3.52-1.56-5.43-2.35s-4-1.39-6.17-2l-3.29-.81c-1.12-.24-2.31-.31-3.44-.53-2.25-.51-4.68-.38-7-.62-2.38.09-4.79.08-7.16.32-2.35.46-4.8.4-7.06,1s-4.55.94-6.71,1.45c-2.06.68-4.1,1.23-6,1.74s-3.67,1.05-5.19,1.59-2.93.94-4.08,1.3c-2.33.69-3.76,1-3.76,1s.81-.89,2.4-2.37c.8-.73,1.77-1.64,3-2.61a22.09,22.09,0,0,1,4.31-3.09c1.7-1,3.59-2.16,5.68-3.26s4.62-1.93,7.2-2.82a64.33,64.33,0,0,1,8.44-2.06,72.85,72.85,0,0,1,9.32-.69c3.14.31,6.37.28,9.32,1.11a42.7,42.7,0,0,1,8.35,2.58A37.78,37.78,0,0,1,590.5,462a30.17,30.17,0,0,1,5,4,28.55,28.55,0,0,1,3.4,3.73,24.67,24.67,0,0,1,2,3.11A13,13,0,0,1,602.12,475.61Z"/><path class="cls-13" d="M589.57,488c.13,12-8.43,21.83-19.11,22s-19.45-9.53-19.58-21.53,8.43-21.83,19.11-21.95S589.44,476,589.57,488Z"/><path class="cls-12" d="M283.53,469.65s1,35.52,37.54,35.13,53.42-30,32.79-39.3C334.36,456.48,304.79,454.4,283.53,469.65Z"/><path class="cls-13" d="M362.54,474.33s-1.15-.77-3.21-2-4.93-2.84-8.45-4.52c-1.74-.87-3.73-1.64-5.74-2.48s-4.28-1.46-6.51-2.13l-3.48-.86c-1.19-.25-2.43-.32-3.63-.56-2.38-.53-4.94-.39-7.42-.65-2.51.1-5.05.08-7.56.34-2.48.49-5.07.42-7.46,1.07s-4.8,1-7.08,1.53c-2.18.71-4.33,1.3-6.36,1.84s-3.87,1.11-5.48,1.67-3.1,1-4.31,1.38c-2.46.72-4,1.09-4,1.09s.86-.94,2.53-2.51c.85-.77,1.87-1.73,3.15-2.76a24.41,24.41,0,0,1,4.55-3.26c1.8-1.09,3.79-2.28,6-3.44s4.89-2,7.6-3a66.52,66.52,0,0,1,8.92-2.17,77.2,77.2,0,0,1,9.84-.74c3.32.33,6.73.3,9.84,1.18a45.61,45.61,0,0,1,8.83,2.72,40.26,40.26,0,0,1,7.12,3.79,31.36,31.36,0,0,1,5.26,4.17,28.37,28.37,0,0,1,3.59,3.94,24.79,24.79,0,0,1,2.12,3.28A13.83,13.83,0,0,1,362.54,474.33Z"/><path class="cls-13" d="M348.52,486.94c.14,12.68-8.9,23.06-20.18,23.18s-20.54-10.06-20.68-22.74,8.9-23.06,20.18-23.18S348.38,474.26,348.52,486.94Z"/><path class="cls-11" d="M595.78,446.46s-3.6-1.25-8.76-2.69c-2.62-.71-5.65-1.42-8.87-2-1.64-.21-3.31-.49-5-.58a34.83,34.83,0,0,0-5.11-.15c-1.72-.1-3.4.21-5.11.26-1.62.32-3.35.46-5,.76s-3.13.72-4.67,1-2.8.84-4.13,1.2c-2.74.68-4.69,1.55-6.37,2s-2.62.75-2.62.75.42-.5,1.31-1.35a19.79,19.79,0,0,1,4.37-3.34c1.09-.63,2.29-1.32,3.69-2,1.55-.59,3.21-1.24,5-1.83s4-1,6.24-1.41a71.28,71.28,0,0,1,7.11-.57,51.57,51.57,0,0,1,7.12.4,49.17,49.17,0,0,1,6.33,1.2,37,37,0,0,1,8.92,3.61C594.64,444.29,595.78,446.46,595.78,446.46Z"/><path class="cls-13" d="M170.34,571.36l-.06-.15A.49.49,0,0,0,170.34,571.36Z"/><path class="cls-13" d="M66.58,193l-.13.16s0,0,0,.08A23.38,23.38,0,0,0,61,204.44c-4.74,15.69-1.62,37.63,6.43,63,17.82,84.16,9.88,210.4,9.88,210.4,40.27,2.13,69.08,42.38,83.94,69.24.09.19,9.07,15.09,11.41,21.39,0-.08,0-6.58,0-8.64C172.59,543,167.32,408.9,196,396.29h0a7.19,7.19,0,0,1,1.07-.38L207.3,393c8.83-2.46,14.79-9.59,14.71-17.59l-1.32-121.81S116,127.33,66.58,193Z"/><path class="cls-1" d="M221.26,307s23.62-32.19,52.59-22.73S548.42,335,620.18,271.89c1.22-21.38.42-24.37.42-24.37l-415.94-2Z"/><path class="cls-13" d="M632.06,241.49A107.59,107.59,0,0,1,619,264.59a3.84,3.84,0,0,1-.32.44c-13.34,17.77-206,44.39-292.26,7.77-56.92-24.18-89.67-3.43-105.36,13.43v0a70.24,70.24,0,0,0-11.63,16.35S221.68,315,61.59,219.08C22.28,21.61,207.46-6.64,437.8,1.13a.55.55,0,0,0,.18,0c13.52.46,27,.89,40.36,1.22h.08c39,3.58,102,15.52,141.47,53.65C652.55,87.61,648.75,201.16,632.06,241.49Z"/><path class="cls-14" d="M632.06,241.49A107.59,107.59,0,0,1,619,264.59a3.84,3.84,0,0,1-.32.44c-13.34,17.77-206,44.39-292.26,7.77-56.92-24.18-89.67-3.43-105.36,13.43.33-1.56,16.62-74.46,123-35C435.53,285.07,569.6,278.7,632.06,241.49Z"/><path class="cls-13" d="M438,1.15h-.22s0,0,0,0A.55.55,0,0,0,438,1.15Z"/><path class="cls-13" d="M465,789.38c-306.35-17.47-292.31-293-292.31-293l-26.86-5.08s-17.67,54.54,35.32,166.18,140.6,161.14,288.22,155.23c74.79-3,113.45-101.74,119-156.08C566.49,725.2,507.78,791.71,465,789.38Z"/><polygon class="cls-13" points="453.56 794.42 460.88 741.68 478.16 740.53 484.78 800.83 453.56 794.42"/><path class="cls-15" d="M438.61,734l9.73,1.38,9.83,1.45c3.58.49,7.38,1,11.18,1.33,1.89.12,3.8.38,5.65.39s3.7.23,5.44.07a38.16,38.16,0,0,0,5-.34,21.94,21.94,0,0,0,4.41-.79,14.33,14.33,0,0,0,3.6-1.21,9.07,9.07,0,0,0,2.63-1.38l2.23-1.54s-.52.8-1.58,2.25a8,8,0,0,1-2.31,2.25,12.78,12.78,0,0,1-3.59,2.24l-2.21,1c-.78.28-1.62.46-2.47.71a26.91,26.91,0,0,1-5.43,1,59.26,59.26,0,0,1-11.85.11,88.65,88.65,0,0,1-11.54-2,84.4,84.4,0,0,1-9.72-3A59.08,59.08,0,0,1,438.61,734Z"/><polygon class="cls-13" points="381.91 419.64 374.35 397.54 262.85 400.96 246.16 421.11 381.91 419.64"/><polygon class="cls-13" points="386.08 418.49 376.84 397.51 381.67 397.46 390.46 418.44 386.08 418.49"/><polygon class="cls-13" points="519.56 424.8 524.95 402.56 610.73 403.85 623.94 423.68 519.56 424.8"/><polygon class="cls-13" points="516.33 423.73 523.03 402.58 519.32 402.62 512.96 423.77 516.33 423.73"/><path class="cls-15" d="M420.4,593.93s80.23,24.2,98.16-8.68C520.15,620.7,461,649.91,420.4,593.93Z"/><polygon class="cls-16" points="385.21 648.87 384.8 657.45 365.7 643.53 363.15 639.41 369.69 643.39 385.21 648.87"/><path class="cls-16" d="M482.91,658.65s-1.46-15.9-13.21-14.82-84.1,9.81-106.55-4.42c29.65,22.75,144.25,41.84,179.75,18.4,1.48-1,1.29-2.79,2.49-3.91C545.39,653.9,486.41,627.14,482.91,658.65Z"/><path class="cls-17" d="M539.88,655.16a230.29,230.29,0,0,1-44.66,6.74,493,493,0,0,1-70.71-1.38c-13.32-1.28-26.81-5.31-38-9.45-.34,3.19-.75,6.32-1.15,9.44l1.16.93c.19.11.42.26.58.37a154.29,154.29,0,0,0,16.68,10.87,178.42,178.42,0,0,0,77.63,22.51c20.81,1.18,36.56-7.82,47.82-18.84.57-.58,1.13-1.11,1.7-1.65a97.82,97.82,0,0,0,7.37-8.27c.63-.79,1.18-1.51,1.7-2.22Z"/><path class="cls-18" d="M539.87,654.28c-22.44,2.64-108.5,11.32-156-4.38l.1,9.31c7,3.13,71.29,29.91,154.33,7.22.64-.79,1.18-1.52,1.7-2.23Z"/><path class="cls-11" d="M363.15,639.41s84.19,69.38,142.62,45.85c15.65-7.8,39.62-31.36,39.62-31.36s-6.46,62.65-53.55,67.29C424.5,727.83,386.14,688.62,363.15,639.41Z"/><polygon class="cls-19" points="1001.97 1188.21 956.37 1257.59 827.25 1296.95 768.66 1258.44 803.94 1226.86 916.04 1208.5 899.08 1159.43 883.7 1083.42 957.58 1002.75 957.96 1002.35 976.6 1009.82 977.77 1010.29 1044.79 1037.15 1001.97 1188.21"/><path class="cls-20" d="M831.64,1255.79,827.25,1297l-58.59-38.51,35.28-31.58L916,1208.5l-17-49.07-15.38-76,73.88-80.67c7.61,2.73,14.23,5.18,19,7.07l1.17.47-59.83,76.56,21.82,133.72Z"/><polygon class="cls-20" points="736.74 830.5 663.74 831.39 608.2 948.23 494.76 1043.62 562.09 1096.22 668.5 985.47 734.75 995.13 796.15 891.9 736.74 830.5"/><polygon class="cls-19" points="513.75 1058.45 620.79 963.79 672.55 865.51 738.24 842.54 796.15 891.9 737.72 990.62 668.5 985.47 562.09 1096.22 513.75 1058.45"/><circle class="cls-21" cx="719.14" cy="921.11" r="35.06" transform="translate(-445.58 1016.15) rotate(-56.68)"/><circle class="cls-22" cx="722.84" cy="923.54" r="23.15" transform="translate(-446.36 831.87) rotate(-47.47)"/><polygon class="cls-22" points="525.75 1017.56 538.83 1036.28 589.82 1067.37 583.35 1074.1 531.48 1042.78 518.59 1023.58 525.75 1017.56"/><polygon class="cls-23" points="1182.75 1067.06 1114.86 1198.08 1066 1238.83 765.21 1070.17 670.35 994.92 717.4 785.74 720.44 772.24 902.87 850.25 1182.75 1067.06"/><polygon class="cls-21" points="1114.86 1198.08 1066 1238.83 765.21 1070.17 670.35 994.92 717.4 785.74 781.68 803.45 838.54 982.83 1114.86 1198.08"/><polygon class="cls-19" points="785.87 536.72 727.21 534.65 672.34 642.38 698.92 669.01 785.87 536.72"/><polygon class="cls-24" points="665.65 640.07 703.23 556.22 727.21 534.65 766.2 536.03 731.82 543.82 714.36 561.38 678.38 648.44 665.65 640.07"/><path class="cls-20" d="M1028.74,685.31S785.13,486.44,761.5,548.58,660.28,701.7,660.28,701.7L827.45,841.83a92.36,92.36,0,0,0,106.45,8.65C993.48,815.1,1070.63,753,1028.74,685.31Z"/><path class="cls-20" d="M838.92,851.44s-94.59-188.7-173.27-211.37-147.91,28.64-46.5,95.3S838.92,851.44,838.92,851.44Z"/><polygon class="cls-25" points="1026.49 832.75 944.63 903.42 878.47 859.94 915.2 774.59 995.06 711.99 1026.04 719.69 1054.71 726.82 1026.49 832.75"/><polygon class="cls-19" points="970.78 824.75 911.41 881.59 878.47 859.94 915.2 774.59 995.06 711.99 1026.04 719.69 970.78 824.75"/><polygon class="cls-23" points="1054.71 726.82 992.78 717.25 918.02 779.45 883.66 863.35 869.14 853.81 905.24 769.44 988.03 697.47 1051.76 723.71 1054.71 726.82"/><path class="cls-26" d="M994.8,779.39a4.91,4.91,0,0,1-6,3.39l-28.59-8.07a4.9,4.9,0,0,1,2.66-9.44l28.59,8.08A4.9,4.9,0,0,1,994.8,779.39Z"/><polygon class="cls-23" points="737.13 573.66 905.86 680.25 865.4 796.36 815.32 763.45 672.34 642.38 737.13 573.66"/><polygon class="cls-27" points="734.83 588.28 691.17 635.95 826.3 752.74 844.33 764.59 886.96 688.27 734.83 588.28"/><polygon class="cls-27" points="608.8 636.4 652.33 672.81 649.18 690.01 616.32 682.49 580.75 645.03 587.13 635.33 608.8 636.4"/><polygon class="cls-28" points="816.42 728.5 835.47 743.7 869.03 692.64 863.27 686.68 816.42 728.5"/><polygon class="cls-28" points="819.93 712.52 856.26 684.24 853.5 680.26 805.63 717.1 819.93 712.52"/><polygon class="cls-20" points="882.25 959.46 809.25 960.34 753.71 1077.19 640.27 1172.58 707.6 1225.18 814.01 1114.43 880.26 1124.09 941.66 1020.86 882.25 959.46"/><polygon class="cls-19" points="659.26 1187.41 766.3 1092.75 818.06 994.47 883.75 971.5 941.66 1020.86 883.22 1119.58 814.01 1114.43 707.6 1225.18 659.26 1187.41"/><circle class="cls-21" cx="864.64" cy="1050.07" r="35.06"/><path class="cls-22" d="M887.69,1065.21a23.14,23.14,0,1,1-6.63-32A23.13,23.13,0,0,1,887.69,1065.21Z"/><path class="cls-3" d="M192.34,1038.12C51.94,1203.88,2.14,1427.41,73,1637.72c-25.67,6-44.56,10.37-70.23,16.38C-81,1405.44-21.06,1142.25,160.27,955.54c.65-.72,1.34-1.39,2-2.1l0-.05c3.21-2.75-1.36,10.89,8.59,4,19.11,16.56,32.76,30,51.86,46.61C206,1020.06,207,1020.73,192.34,1038.12Z"/><path class="cls-2" d="M213.82,954.64c-12-8.77-24.23-16.83-32.22-21.95a15.07,15.07,0,0,0-18.2,1.43c-13.91,12.93-41.33,39.28-79.39,95.43a8.66,8.66,0,0,0,1.47,11.34c44.84,37.3,73.8,59.71,86.49,69.32a6.9,6.9,0,0,0,6.23,1.15,7.67,7.67,0,0,0,4.79-4.5c7.82-18.95,26.84-64,42.95-93.83C236.69,993.13,231.38,967.48,213.82,954.64Z"/></g></svg>