<svg id="Layer_1" data-name="Layer 1" xmlns="http://www.w3.org/2000/svg" viewBox="0 0 143.5 139"><defs><style>.cls-1,.cls-3{fill:#c6c0e2;stroke:#a8a3ce;stroke-miterlimit:10;}.cls-1{stroke-width:4px;}.cls-2{fill:#cecae5;}.cls-3{stroke-width:2px;}</style></defs><path class="cls-1" d="M23.85,59.4A15.42,15.42,0,0,1,34.69,44.68,15.41,15.41,0,0,1,53.76,33.23,15.4,15.4,0,0,1,75.2,26.84,15.4,15.4,0,0,1,100.09,33h.21a15.42,15.42,0,0,1,14.88,19.39A15.4,15.4,0,0,1,98.67,77.57a15.41,15.41,0,0,1-14.78-.9A15.4,15.4,0,0,1,61.7,75.9a15.4,15.4,0,0,1-24.36-1.22A15.39,15.39,0,0,1,23.85,59.4Z"/><path class="cls-2" d="M113.78,55.83a14.75,14.75,0,0,1-.45,2.75,14.58,14.58,0,0,1,4.17,8.73,14.66,14.66,0,0,0-3.72-11.48Z"/><path class="cls-2" d="M36.64,50.47A14.68,14.68,0,0,1,51,39a14.44,14.44,0,0,1,3.86.52,14.68,14.68,0,0,1,20.43-6.1A14.67,14.67,0,0,1,99,39.31h.2a14.67,14.67,0,0,1,14.58,13,13.86,13.86,0,0,0,.09-1.59A14.67,14.67,0,0,0,99.15,36.08H99a14.67,14.67,0,0,0-23.71-5.85,14.68,14.68,0,0,0-20.43,6.1A14.44,14.44,0,0,0,51,35.81,14.67,14.67,0,0,0,36.64,47.23,14.58,14.58,0,0,0,26.41,62.88,14.67,14.67,0,0,1,36.64,50.47Z"/><path class="cls-3" d="M84.33,90.2c0,3.9,3.6,7.06,8,7.06s8.06-3.16,8.06-7.06-3.61-7.07-8.06-7.07S84.33,86.29,84.33,90.2Z"/><path class="cls-2" d="M92.09,84.51a7.5,7.5,0,0,0-5.37,2.18,7.8,7.8,0,0,1,3.94-1c3.9,0,7.06,2.77,7.06,6.19a5.76,5.76,0,0,1-1.69,4,6,6,0,0,0,3.12-5.14C99.15,87.29,96,84.51,92.09,84.51Z"/><path class="cls-3" d="M80.37,103.34a5.26,5.26,0,1,0,5.23-4.66A5,5,0,0,0,80.37,103.34Z"/><path class="cls-2" d="M85.78,99.73a4.23,4.23,0,0,0-3,1.23,4.34,4.34,0,0,1,2.23-.6,3.76,3.76,0,0,1,4,3.5,3.25,3.25,0,0,1-.95,2.26,3.39,3.39,0,0,0,1.76-2.9A3.77,3.77,0,0,0,85.78,99.73Z"/><path class="cls-3" d="M76.7,113.09A3.4,3.4,0,1,0,80.09,110,3.26,3.26,0,0,0,76.7,113.09Z"/><path class="cls-2" d="M80.19,111a2.5,2.5,0,0,0-1.79.72,2.61,2.61,0,0,1,1.31-.35,2.23,2.23,0,0,1,2.36,2.07,1.9,1.9,0,0,1-.57,1.33,2,2,0,0,0,1-1.71A2.22,2.22,0,0,0,80.19,111Z"/></svg>