<svg xmlns="http://www.w3.org/2000/svg" viewBox="0 0 1080 1080"><defs><style>.cls-1{fill:#80689c;}.cls-2{fill:#edd0a7;}.cls-3{fill:#e29e80;}.cls-4{fill:#e8e8ea;}.cls-5{fill:#cecece;}.cls-6{fill:#b283b4;}.cls-7{fill:#909090;}.cls-8{fill:#84746e;}.cls-9{fill:#917f7a;}.cls-10{fill:#a38f84;}.cls-11{fill:#e8bf8e;}.cls-12{fill:#d49f99;}.cls-13{fill:#fff;}.cls-14{fill:#564c49;}.cls-15{fill:#af594e;}.cls-16{fill:#d36762;}.cls-17{fill:#e5b47f;}</style></defs><g id="Illustration"><path class="cls-1" d="M749.7,1162.43S595.11,871.8,662.82,800.27c72.45-76.53,169.51,310.71,183.39,312.67s170,122.16,170,122.16l-26.09,58.37Z"/><rect class="cls-2" x="505.25" y="644.72" width="125.69" height="263.08"/><path class="cls-3" d="M630.94,640.22V755.6C500.45,775.08,505.25,640.22,505.25,640.22Z"/><path class="cls-4" d="M711,1114.47c2.09-15.84,5.49-30.4,10.06-42.51,1.14-3.11,2.4-6.06,3.71-8.84a68.44,68.44,0,0,1,9.69-15.44c2.41-1.66,4.68-3.39,6.82-5.13.18-.16.36-.26.54-.41a89,89,0,0,0,8.37-7.59l.18-.2s.57-4,.57-4c56.06-57.53-17.08-130.51-17.08-130.51l-53-103.58c-.84-.26-1.69-.54-2.55-.78a81.93,81.93,0,0,0-14.3-2.37c-7.2-.52-14.22-1-21.1-1.38-.9-.06-1.78-.11-2.68-.15l-7.8-.43,0,0c-7.2,21.54-26.26,43.84-48,44.59-49.64,1.73-79-42.32-81.59-45.23l-.07-.09c-.41,0-.83.06-1.26.06-4.86.28-9.43.65-13.77,1-10,.9-18.74,2-27.15,2.91-16.94,1.87-37.38,4.88-53.88,7.85a104.28,104.28,0,0,0-48.09,22.27l-2.71,2.26c7.85,34.85,64.91,174.57,80.95,278,7.09,45.49,10.53,80.76,6.46,90.83s-9.63,26.59-15.48,45a.2.2,0,0,1,0,.07c-14.94,47.2-31.92,107.29-31.92,107.29s255.56,58,360-10.16l0,0a63.36,63.36,0,0,0,15.77-12.42C756.82,1283.39,706.57,1180,711,1114.47Z"/><path class="cls-5" d="M744.69,1038.68c-.07.07-.11.14-.19.21a91.8,91.8,0,0,1-8.78,8.23c-.19.16-.37.28-.56.44-2.25,1.9-2.82,3.82-5,6.27-3.75,4.49-5.2,9.23-8.22,15.82-1.37,3-2.46,7.08-3.66,10.44-29.79,4-78.77-.72-88.57-1.84-13.38-1.57-46.43,14.79-80.26,14.79s-61.37-16.36-75.51-43.44c41,39.89,152.63,2.94,152.63,2.94C701,1076.1,742.76,1040.39,744.69,1038.68Z"/><path class="cls-6" d="M587.56,1060c-3.6,51,13.31,335.6-57.37,349.25-7.13,1.38-14.62,2.48-22.33,3.33-68.7,7.49-154.38-5.51-153.35-22.65,1.17-19.05,91.1-196.62,88.47-238.62S340.2,839.51,354.5,822.32c11.65-14,66.93-33.91,99-34.68,7.31-.18,13.92.48,19.25,2.18C472.74,789.82,591.16,1009,587.56,1060Z"/><path class="cls-7" d="M594.47,1060c-3.59,51,13.32,335.6-57.36,349.25-7.13,1.38-14.62,2.48-22.33,3.33C574.5,1377,577,1135.45,577.6,1060.86c-42.31-89.8-108.13-251-117.19-273.22,7.31-.18,13.92.48,19.25,2.18C479.66,789.82,598.07,1009,594.47,1060Z"/><path class="cls-6" d="M755.82,1388.93a105.43,105.43,0,0,1-25.6,2.81c-54.26-.29-32.48-299.18-18.22-330.92s-68.84-274.27-68.84-274.27c2-.84,7.22-.63,13.34,0,12.53,1.29,28.86,4.41,28.86,4.41l51.45,103.88s14.17,10.31,29.67,46.55,16.74,48.29-3.49,76.07c-19.46,26.77-27.53,40.36-41.32,73.45-.54,1.28-1.08,2.58-1.64,3.93-2.75,6.64-3.58,15.21-3,25,2.34,43.57,31.61,111.91,42.61,145.61,13.49,41.3,19.68,51.22,33.36,71.66C804.2,1354,791.16,1380.36,755.82,1388.93Z"/><path class="cls-7" d="M756.06,1388.86l-.24.07a105.43,105.43,0,0,1-25.6,2.81c-54.26-.29-32.48-299.18-18.22-330.92s-68.84-274.27-68.84-274.27c2-.84,7.22-.63,13.34,0,5.65,16.56,73.43,215.84,75,238.56.67,10-4.43,34.71-9.81,65.8-1.6,9.17-3.19,18.89-4.68,29-5.4,36.55-9.22,77.67-4.63,113.3C722.48,1311.89,732.31,1383.73,756.06,1388.86Z"/><path class="cls-1" d="M539.72,1239.07S267.05,891.25,353.53,815.15c92.53-81.42,206.92,325.35,224.64,327.43s244.55,119.83,244.55,119.83l-33.32,62.1Z"/><path class="cls-8" d="M527.48,49.13S428.83,209.89,339.93,355c-.75,1.25-1.52,2.47-2.27,3.72-21.12,34.47-41.62,68-60.06,98.1C207.24,410.59,175.25,350.6,169.53,289.3a225.42,225.42,0,0,1-.45-36.1c5.25-78.42,49.56-155.08,107.67-204.07C389.22-45.67,527.48,49.13,527.48,49.13Z"/><path class="cls-9" d="M389.35,303.89s-197.3-70.2-195.56-145.07l-16.41,45.26S278.25,315.14,389.35,303.89Z"/><path class="cls-9" d="M348,358.05c-3.47.35-6.92.58-10.37.7-68.13,2.38-131.27-39.06-168.13-69.45a225.42,225.42,0,0,1-.45-36.1C209.29,302.54,310.57,343.81,339.93,355,345.08,357,348,358.05,348,358.05Z"/><path class="cls-10" d="M282.81,266.57s-91.73,223.5,128.84,330.79c-.07-157.79-24.2-287.29-24.2-287.29Z"/><path class="cls-2" d="M912.29,268.72c-245.11-139.27-514.2,15.63-514.2,15.63s-3.3,148.44-2.47,192.72c-11.91-13.27-82.2-101.57-82.93,26.67s96,95.47,96,95.47S407,628.84,431,672.59c12.31,22.38,33.88,30,80.72,41.62,33.32,8.24,79.43,18.45,144.08,37.35a178.79,178.79,0,0,0,174.79-43.4C877,663,935.7,613.05,895.6,494.82,897.11,377.23,907.66,298.2,912.29,268.72Z"/><path class="cls-11" d="M511.77,712.14c-46.85-11.58-68.41-19.24-80.72-41.62-24.05-43.75-22.3-73.38-22.3-73.38s-96.75,32.8-96-95.47,71-39.94,82.93-26.67C395.65,475,439,642.41,511.77,712.14Z"/><path class="cls-10" d="M332.69,414s24-7.41,44.3,31.34a679.8,679.8,0,0,1,33.35,74.77S401.52,233,489.15,224.74,369,194.69,354.29,197.87,313.43,359.15,332.69,414Z"/><path class="cls-10" d="M954.91,255.43c14.27,63-56.48,152.65-56.48,152.65s-28.35,30.23-27.55-2.43c-12.14-15.07-98.53-174.15-112.81-195.3-.16-.2-18.7,17.05-23.6,21.07-46.26,37.93-316.29,133.93-316.29,133.93l-71.45,48.86c-22-3.92-27.14,9-27.14,9s-105.1-24.77-23.4-185.71C415.2,3.08,612.81,37.71,724.93,57.14,945.94,16.85,953.05,247.21,954.91,255.43Z"/><path class="cls-3" d="M368.83,569.37q-5.26-.06-12.68-4.18a2.28,2.28,0,0,1,2.21-4c4.93,2.74,11.45,5.33,14.57,2.12,5-5.11,1.38-23.24-4.95-33.93-1.93-3.26-2.26-6-1-8.09,1.52-2.52,5-3.65,10.7-3.34A7,7,0,0,0,384,515.1a5,5,0,0,0-.24-5.78C376,498.47,361,481,348,485.61c-5.81,2.09-9.29,5.06-10.33,8.84-1.85,6.75,4.35,14.36,4.41,14.43a2.28,2.28,0,0,1-3.51,2.92c-.32-.39-7.76-9.49-5.3-18.53,1.45-5.31,5.89-9.32,13.19-11.95,15-5.37,30.52,10.82,40.93,25.34a9.5,9.5,0,0,1,.36,10.93,11.5,11.5,0,0,1-10.32,4.92c-5.57-.25-6.49,1-6.57,1.14-.24.39-.12,1.52,1,3.41,5.63,9.52,12.07,31.45,4.3,39.44A9.65,9.65,0,0,1,368.83,569.37Z"/><path class="cls-12" d="M634.83,481.73s-6.62-44.26-40.5-46.94S552.82,467,552.82,467,597.91,439.19,634.83,481.73Z"/><path class="cls-13" d="M552.73,473.76s7.16,31.44,40.28,35.8,41.82-27.83,41.82-27.83S601.87,438,552.73,473.76Z"/><path class="cls-14" d="M634.83,481.73s-25.2-45-80.25-20.75l-13.17-3.67,11.32,16.45S589.67,444.15,634.83,481.73Z"/><path class="cls-14" d="M607.52,482c-.16,12.89-8.85,23.24-19.41,23.1s-19-10.7-18.82-23.59,8.86-23.23,19.42-23.1S607.69,469.08,607.52,482Z"/><path class="cls-12" d="M775.85,483.54s7.75-44.07,41.69-45.89,40.68,33.29,40.68,33.29S813.85,442,775.85,483.54Z"/><path class="cls-13" d="M858.13,477.68s-8,31.25-41.19,34.76-41.09-28.9-41.09-28.9S809.92,440.65,858.13,477.68Z"/><path class="cls-14" d="M775.85,483.54s26.34-44.37,80.76-18.69l13.26-3.33-11.74,16.16S822,447.13,775.85,483.54Z"/><ellipse class="cls-14" cx="806.84" cy="484.83" rx="21.97" ry="19.39" transform="translate(311.68 1285.38) rotate(-89.26)"/><path class="cls-10" d="M648.11,406.4c1,.92-16.73-42-73.36-34.53-.07-.47-36.37,9-46.08,30.34C575.71,388.25,601.62,387,648.11,406.4Z"/><path class="cls-10" d="M768,409.33c-.8.91,13.6-41.9,62.58-34.19,0-.46,31.53,9.19,40.32,30.51C830.05,391.5,807.69,390.13,768,409.33Z"/><path class="cls-15" d="M659.21,627.23s63.78-6.63,68.06-4.09c2.94,1.74,9,5.5,12.19,7.52a3,3,0,0,0,3.8-.49c3.46-3.63,11.87-11.28,20.16-10a145.76,145.76,0,0,1,23,6.11S731.69,654.21,659.21,627.23Z"/><path class="cls-16" d="M617.76,612.89a321.62,321.62,0,0,0,60.94,19c5.76,1.25,11.81,2.09,17.92,3s12.39,1.42,18.65,1.58a185,185,0,0,0,18.69.06l9.12-.65c3-.37,6-.63,8.86-1.06,5.78-.91,11.34-2,16.57-3.19l7.55-2,7-2.18c4.43-1.49,8.45-3,12-4.42,3.45-1.57,6.63-2.73,9.07-3.95,4.92-2.4,7.83-3.72,7.83-3.72s-2.41,1.89-6.78,5.13c-2.18,1.62-5,3.33-8.3,5.37a130.06,130.06,0,0,1-11.54,6l-6.91,3-7.66,2.74c-2.66.87-5.46,1.62-8.3,2.47s-5.85,1.33-8.86,2a160.32,160.32,0,0,1-19,2.55,192.2,192.2,0,0,1-19.81.24c-6.63-.27-13.21-1.08-19.64-2s-12.65-2.33-18.58-3.85-11.55-3.31-16.82-5.1-10.11-3.78-14.48-5.76C627.67,620.52,617.76,612.89,617.76,612.89Z"/><path class="cls-16" d="M656.76,628.85s59,49.48,128.56,3.07C736.44,642.48,713.17,644.72,656.76,628.85Z"/><path class="cls-17" d="M691.66,570.26s66.68,12.47,79-12.35C774.34,583.38,728.38,608.12,691.66,570.26Z"/><path class="cls-3" d="M757.7,664.93a17.68,17.68,0,0,1-2.27,2.2,40.87,40.87,0,0,1-7.21,4.67,43,43,0,0,1-5.45,2.28,41.41,41.41,0,0,1-6.46,1.75,57.84,57.84,0,0,1-7.17,1c-2.46,0-5,.16-7.49,0-2.48-.31-5-.35-7.39-.89a62.9,62.9,0,0,1-7-1.6c-2.2-.67-4.31-1.35-6.27-2s-3.7-1.63-5.33-2.38a28.15,28.15,0,0,1-4.31-2.28l-3.18-1.92c-1.76-1.08-2.71-1.74-2.71-1.74s1.17.34,3.15,1,4.72,1.8,8.17,2.7c1.7.49,3.54,1,5.45,1.63l6.17,1.43c2.1.6,4.39.69,6.63,1.16s4.58.44,6.88.69,4.63.12,6.91.12c2.25-.25,4.52-.16,6.64-.58a60.32,60.32,0,0,0,6.15-1.09c1.94-.44,3.74-1,5.41-1.48a57.49,57.49,0,0,0,7.82-3.13C756.69,665.55,757.7,664.93,757.7,664.93Z"/><path class="cls-11" d="M565,327.09s15.68-3.34,39.4-6.28c11.86-1.53,25.72-3,40.6-4.12,7.44-.5,15.13-1.19,23-1.51l23.74-1,23.79-.27c7.84-.11,15.57.24,23,.43,15,.5,28.94,1.55,40.88,3.12,6,.72,11.43,1.66,16.25,2.59s9,2,12.36,3a56.54,56.54,0,0,1,7.7,2.83l2.61,1.2-2.82-.53c-1.8-.43-4.56-.57-8-1s-7.63-.43-12.43-.61L779,324.9l-19.12.31-21.35.56L692,327.15l-23.62.54c-7.8.26-15.48.22-22.91.39s-14.62.14-21.44.18-13.28,0-19.24,0C581,328.07,565,327.09,565,327.09Z"/><path class="cls-11" d="M600.92,355.57s2.91-.72,8-1.69,12.42-2.24,21.21-3.37c4.4-.59,9.16-1.23,14.21-1.69s10.37-1.1,15.89-1.48c11-.85,22.81-1.45,34.61-1.69,5.9-.11,11.81-.17,17.62-.1s11.54.22,17.08.44,10.91.66,16,1,9.89,1,14.31,1.51,8.5,1.32,12.07,1.93,6.69,1.57,9.22,2.18a35.26,35.26,0,0,1,5.77,2.08l2,.84-2.16-.13a53,53,0,0,0-5.94-.24c-2.6.1-5.65,0-9.24.22l-12,.56-30,1.52c-11,.47-22.7.85-34.43,1.12s-23.47.3-34.5.19-21.32-.41-30.16-.89-16.23-1-21.41-1.47S600.92,355.57,600.92,355.57Z"/><path class="cls-10" d="M795.16,216.63l-3.48,2.8c-2.23,1.77-5.49,4.29-9.67,7.4-8.36,6.23-20.41,14.84-35.31,24.45-7.42,4.84-15.61,9.85-24.31,15.06s-18,10.45-27.81,15.6c-7.21,3.88-12.89,6.89-30.45,15.3-10.54,4.86-21.3,9.67-32.25,14l-8.2,3.28-8.27,3.07c-5.48,2.09-11,3.95-16.51,5.79-11,3.7-21.94,6.89-32.6,9.7s-21.08,5.1-31,7c-4.93,1.06-9.82,1.66-14.49,2.46s-9.23,1.34-13.6,1.84c-8.71,1.19-16.77,1.59-23.87,2.18-7.13.3-13.34.47-18.44.59l-16-.26,16-1c5.06-.51,11.21-1.17,18.23-2,7-1.14,14.89-2.16,23.39-4,4.26-.84,8.69-1.7,13.23-2.88s9.26-2.11,14-3.55c9.59-2.6,19.58-5.7,29.78-9.23s20.62-7.54,31-12c5.21-2.22,10.45-4.46,15.61-6.92l7.79-3.62,7.72-3.82c10.29-5.08,20.35-10.59,30.17-16.11,9.75-5.67,19.28-11.34,28.28-17.16s17.58-11.61,25.63-17.21,15.47-11.15,22.22-16.37c13.57-10.38,24.41-19.53,31.81-26,3.7-3.25,6.55-5.85,8.43-7.61l2.8-2.65Z"/><path class="cls-11" d="M637.07,512.7a15.8,15.8,0,0,1-1.11,5.36,22.59,22.59,0,0,1-2.55,5,24,24,0,0,1-4.33,4.87,18.52,18.52,0,0,1-2.7,2,15.84,15.84,0,0,1-2.87,1.52,15.28,15.28,0,0,1-2.87,1l-1.36.33-1.3.14a13.63,13.63,0,0,1-4,0c-1-.14-1.48-.27-1.48-.27s.5-.29,1.33-.72c.42-.2.92-.46,1.49-.7l1.83-1a19,19,0,0,0,2.07-1.21,23.69,23.69,0,0,0,2.19-1.41,27.19,27.19,0,0,0,2.23-1.61c.75-.54,1.48-1.15,2.2-1.78s1.41-1.3,2.14-1.9l2-2c1.28-1.31,2.48-2.58,3.53-3.7Z"/><path class="cls-11" d="M779.37,512.7l3.56,3.89c1.05,1.12,2.25,2.39,3.53,3.7l2,2c.73.6,1.37,1.33,2.14,1.9a26.34,26.34,0,0,0,2.2,1.78,27.19,27.19,0,0,0,2.23,1.61,22.42,22.42,0,0,0,2.19,1.41,18.94,18.94,0,0,0,2.06,1.21l1.84,1c.57.24,1.07.5,1.48.7.84.43,1.34.72,1.34.72s-.53.13-1.49.27a13.58,13.58,0,0,1-4,0l-1.31-.14-1.35-.33a15,15,0,0,1-2.87-1,15.52,15.52,0,0,1-2.87-1.52,19.17,19.17,0,0,1-2.71-2,24.66,24.66,0,0,1-4.33-4.87,23,23,0,0,1-2.54-5A15.5,15.5,0,0,1,779.37,512.7Z"/></g></svg>