<svg xmlns="http://www.w3.org/2000/svg" viewBox="0 0 1080 1080"><defs><style>.cls-1{fill:#743e17;}.cls-2{fill:#ed5b3a;}.cls-3{fill:#edd0a7;}.cls-4{fill:#e29e80;}.cls-5{fill:#e8e8ea;}.cls-6{fill:#ef6c48;}.cls-7{fill:#c95236;}.cls-8{fill:#edd1be;}.cls-9{fill:#eab7a0;}.cls-10{fill:#d89888;}.cls-11{fill:#dbaa9c;}.cls-12{fill:#fff;}.cls-13{fill:#3f210d;}.cls-14{fill:#8e4e45;}.cls-15{fill:#f6f6f6;}.cls-16{fill:#ce755f;}.cls-17{fill:#633414;}</style></defs><g id="Isolation_Mode" data-name="Isolation Mode"><path class="cls-1" d="M806.77,1066.24c-268.58,193-597.09,168-673.57,101.16-9.52-8.32-19.86-19-26.28-30.69,178.36-63,137-231.9,135.19-239.07,0-.08,0-.13,0-.18-7-58.57-37.69-117.78-64.05-165.82-160-291.41,38.36-585.06,38.36-585.06L924.26,255.72S1159.61,812.74,806.77,1066.24Z"/><path class="cls-2" d="M683.85,944s79.2,5.47,78.76,123.82,50.57,265.75,50.57,265.75l167.58-137.85,51,51.58S775.24,1517.1,744,1465.56,658.34,1011.09,683.85,944Z"/><rect class="cls-3" x="487.06" y="777.19" width="143.89" height="301.16"/><path class="cls-4" d="M631,772V904.11C481.57,926.41,487.06,772,487.06,772Z"/><path class="cls-5" d="M722.54,1314.94c2.4-18.14,6.28-34.8,11.51-48.67,1.32-3.56,2.76-6.94,4.25-10.12a78,78,0,0,1,11.1-17.67c2.76-1.91,5.36-3.88,7.8-5.88.21-.17.41-.3.62-.47a98.12,98.12,0,0,0,9.58-8.69c.08-.07.13-.14.21-.22l.07-.07c64.17-65.86-19-153.9-19-153.9L688,950.67c-1-.29-1.93-.61-2.91-.88a92.13,92.13,0,0,0-16.38-2.72c-8.24-.59-16.27-1.13-24.15-1.58-1-.07-2-.12-3.07-.17l-8.93-.49,0,0c-8.24,24.66-30.07,50.18-54.89,51-56.83,2-90.42-48.45-93.41-51.78l-.07-.1c-.47,0-1,.07-1.45.07-5.56.33-10.79.75-15.76,1.19-11.4,1-21.45,2.27-31.08,3.33-19.39,2.14-42.79,5.59-61.68,9a119.56,119.56,0,0,0-55.05,25.5c-1.88,1.57-3.11,2.58-3.1,2.59,9,39.89,74.3,199.84,92.66,318.21,8.12,52.09,12.06,92.47,7.4,104s-11,30.44-17.72,51.54a.24.24,0,0,1,0,.07c-17.1,54-36.54,122.83-36.54,122.83s292.56,66.39,412.1-11.63c0,0,0,0,.05,0a73.18,73.18,0,0,0,18-14.22C775.05,1508.31,717.52,1389.9,722.54,1314.94Z"/><path class="cls-3" d="M429.87,949.57s102.51,187.07,206,185.78,27.26-189.78,27.26-189.78l-27.26-2.33S460.66,934.61,429.87,949.57Z"/><path class="cls-6" d="M581.28,1252.54c-4.12,58.38,15.25,384.18-65.66,399.81-8.16,1.57-16.74,2.83-25.57,3.81-78.65,8.57-176.73-6.31-175.55-25.93,1.34-21.81,104.29-225.09,101.28-273.17S298.12,1000.17,314.49,980.5c13.34-16,76.62-38.83,113.32-39.7,8.37-.21,15.94.54,22,2.5C449.85,943.3,585.4,1194.14,581.28,1252.54Z"/><path class="cls-7" d="M589.2,1252.54c-4.12,58.38,15.25,384.18-65.66,399.81-8.16,1.57-16.74,2.83-25.57,3.81,68.37-40.66,71.25-317.2,71.92-402.59-48.44-102.8-123.78-287.33-134.16-312.77,8.37-.21,15.94.54,22,2.5C457.77,943.3,593.32,1194.14,589.2,1252.54Z"/><path class="cls-2" d="M147.8,1328.5c14.7-23.07,159.07-170.4,227.3-239.57a66.79,66.79,0,0,0,10.37-79.71,52.63,52.63,0,0,0-83.73-11c-93,95.52-284.67,299.91-274.58,352.94,13.31,69.89,326.17,301.67,326.17,301.67l23.52-101.26S128.48,1358.84,147.8,1328.5Z"/><path class="cls-6" d="M773.9,1629.13a120.77,120.77,0,0,1-29.3,3.22c-62.11-.34-37.19-342.49-20.86-378.83s-78.8-314-78.8-314c2.29-.95,8.27-.72,15.27,0,14.34,1.47,33,5.05,33,5.05l58.89,118.91s16.22,11.8,34,53.28,19.16,55.29-4,87.09c-22.28,30.64-31.52,46.2-47.31,84.08-.62,1.46-1.23,3-1.88,4.5-3.14,7.6-4.09,17.41-3.47,28.66,2.67,49.88,36.18,128.12,48.77,166.69,15.45,47.28,22.53,58.64,38.19,82C829.29,1589.14,814.36,1619.32,773.9,1629.13Z"/><path class="cls-7" d="M774.19,1629.05l-.29.08a120.77,120.77,0,0,1-29.3,3.22c-62.11-.34-37.19-342.49-20.86-378.83s-78.8-314-78.8-314c2.29-.95,8.27-.72,15.27,0,6.47,19,84,247.08,85.83,273.09.77,11.48-5.07,39.73-11.23,75.32-1.83,10.5-3.65,21.63-5.35,33.16-6.18,41.85-10.56,88.92-5.31,129.71C735.74,1540.93,747,1623.18,774.19,1629.05Z"/><path class="cls-8" d="M901.66,674.84v0c-33.28,78.91-106.1,190-188.56,217.35-22.86,7.6-51.94,9.23-84.4,5.11-9.46-1.2-19.22-2.91-29.19-5.11C492,868.62,359.83,788.13,294.2,656c-.1-.21-.21-.43-.32-.64a2.21,2.21,0,0,0-.27-.53s-108.45,44.67-115.37-107c0,0-6.28-89.74,50.36-70.57h65.6V243.35s3.64-2.13,10.51-5.69c54.21-28.07,309.05-145,547.31.05,3,1.85,6,3.72,9,5.64,0,0,9.65,269.33,42.31,358.16A99.68,99.68,0,0,1,901.66,674.84Z"/><path class="cls-9" d="M630.68,897.41l-2-.08c-9.46-1.2-19.22-2.91-29.19-5.11C492,868.62,359.83,788.13,294.2,656c-.1-.21-.21-.43-.32-.64a2.21,2.21,0,0,0-.27-.53s-108.45,44.67-115.37-107c0,0-6.28-89.74,50.36-70.57h5.83c21,14.76,42.9,40.17,61.67,113.18l3.8,10.08S474.3,850.63,630.68,897.41Z"/><path class="cls-9" d="M311.15,386.33s297.56-81.86,355.52-142.46c50,33.35,201,115.24,201,115.24l-3.9-60.45L690.18,125.11l-396,177.06Z"/><path class="cls-10" d="M246,625.38q-6.24,0-15.13-4.79a2.7,2.7,0,0,1,2.57-4.76c5.9,3.17,13.69,6.16,17.35,2.29,5.84-6.15,1.28-27.63-6.4-40.25-2.34-3.84-2.78-7.06-1.3-9.59,1.77-3,5.88-4.41,12.66-4.13a8.32,8.32,0,0,0,7.42-3.5,5.88,5.88,0,0,0-.38-6.86c-9.4-12.77-27.46-33.32-42.76-27.63-6.88,2.57-11,6.16-12.14,10.66-2.1,8,5.38,17,5.46,17.09a2.71,2.71,0,0,1-4.13,3.51c-.38-.45-9.37-11.15-6.58-21.94,1.64-6.32,6.85-11.16,15.49-14.39,17.71-6.62,36.43,12.39,49,29.49a11.28,11.28,0,0,1,.6,13,13.68,13.68,0,0,1-12.19,6c-6.63-.21-7.69,1.29-7.79,1.46-.28.47-.12,1.8,1.25,4,6.83,11.22,14.81,37.18,5.7,46.79A11.51,11.51,0,0,1,246,625.38Z"/><path class="cls-10" d="M735.21,641.82a17.32,17.32,0,0,0-1.2-3.26c-.54-1.12-.84-1.52-1.56-2.75a101.41,101.41,0,0,1-5.28-9.53c-1.75-3.21-3-6.65-4.48-10-2.57-6.82-5.07-13.69-7.24-20.66-1.14-3.47-2.11-7-3.18-10.47s-2-7-3-10.53l-5.71-21.16-5.62-21.26c.18,7.26.78,14.5,1.6,21.72s1.87,14.44,3.15,21.63,2.74,14.37,4.7,21.5c.87,3.58,1.95,7.13,3,10.69s2.41,7.08,3.65,10.61c1.49,3.51,2.71,7,4.51,10.52a84.08,84.08,0,0,0,5.86,10.3c.22.42,1,1.61,1.26,2.19a12.89,12.89,0,0,1,.71,1.94,12.21,12.21,0,0,1,.46,4.37,14,14,0,0,1-1.17,4.3l-.39.89-.78,1.21a14.66,14.66,0,0,1-1.43,1.84,20.89,20.89,0,0,1-8.95,5.41c-.87.19-2,.52-2.63.63l-3.4.53a45.85,45.85,0,0,1-6.58.78,52,52,0,0,1-6.4.2,65.19,65.19,0,0,1-6.56-.32,58.26,58.26,0,0,1-12.63-2.37l-.53-.17-.17,0a56.2,56.2,0,0,1-7.61-1.27c-1.24-.31-2.49-.64-3.66-1.05a26.85,26.85,0,0,1-3.42-1.39,12.26,12.26,0,0,1-1.56-.86c-.45-.33-1-.63-1.38-1l-1.14-1.16-.77-1.34a11.4,11.4,0,0,1-.37-1.45c-.18-.51,0-1,0-1.53,0-1.07.7-2,1-3-.54,1-1.51,1.83-1.73,2.94a5,5,0,0,0-.43,1.64,11,11,0,0,0,.05,1.72l.61,1.68,1.08,1.53c.42.48.92.9,1.39,1.35a14.31,14.31,0,0,0,1.59,1.19,22.14,22.14,0,0,0,3.55,2,41.1,41.1,0,0,0,3.82,1.53,58.42,58.42,0,0,0,7.6,2.06,61.85,61.85,0,0,0,13.65,3.7,55.52,55.52,0,0,0,7.19.83,62.81,62.81,0,0,0,7.42.16,55,55,0,0,0,7.15-.46l3.43-.35a38.94,38.94,0,0,0,4-.78A29.87,29.87,0,0,0,729.82,660a27,27,0,0,0,2.31-2.71l.84-1.19c.5-.78.59-1.07.9-1.63a17.21,17.21,0,0,0,1.34-12.62Z"/><path class="cls-11" d="M546,520.55s5.88-57-42.23-67.84-64.23,36.66-64.23,36.66S486,467.22,546,520.55Z"/><path class="cls-12" d="M439,488.5s-6.2,44.12,42.42,57.22,81-16.13,56.76-34.89C515.35,492.81,472.33,478.12,439,488.5Z"/><ellipse class="cls-13" cx="513.08" cy="520.78" rx="26.85" ry="24.13" transform="translate(-55.2 980.7) rotate(-84.41)"/><path class="cls-13" d="M546,520.55a32.51,32.51,0,0,0-1.7-4.73,38.78,38.78,0,0,0-3.43-6,43.87,43.87,0,0,0-5.57-6.95,57.84,57.84,0,0,0-8.16-7.18,67.94,67.94,0,0,0-10.78-6.54c-3.83-2.2-8.36-3.43-12.65-5.05a117.81,117.81,0,0,0-13.29-2.78l-5.32-.47a57.9,57.9,0,0,0-7.24-.24c-3.92.12-35.37,1.5-45,.43a141.5,141.5,0,0,1-17.19-3.49c-1.21-.29-8.42-2.76-9.3-1.58-1.16,1.55,7,6.83,8.64,7.81,4.77,2.92,10,5.36,14.28,8.83s6.94,7.95,10.28,12c0,0,2-14.84,18.59-14.86.89,0,1.77,0,2.73.06,2.87.11,5.93.21,9.06.16,3.19.21,6.54.67,9.9.8s6.8,1.16,10.24,1.49c3.42.62,6.78,1.59,10.15,2.4,3.19,1.23,6.63,2,9.61,3.53,1.51.73,3.14,1.28,4.62,2l4.32,2.32c2.74,1.63,5.48,3.26,7.92,5s4.76,3.41,6.77,5.1c4.09,3.32,7.41,6.35,9.67,8.55s3.6,3.54,3.6,3.54A16.24,16.24,0,0,0,546,520.55Z"/><path class="cls-13" d="M429.41,490.77s-20.75-4.44-24-6.46c3.86,5,32.81,20.4,34.05,20.26C437.52,502.05,437.43,494.08,429.41,490.77Z"/><path class="cls-11" d="M738.21,516.46s.87-52.65,45.92-57.25,54.55,40.46,54.55,40.46S798.77,474.4,738.21,516.46Z"/><path class="cls-12" d="M839.27,498.94s.82,40.9-44.94,47.53-72.07-23.56-47.94-38C769.16,494.51,810,485.83,839.27,498.94Z"/><path class="cls-13" d="M784.65,516.75c.19,14.49,10.19,26.1,22.31,25.94s21.81-12,21.62-26.53-10.19-26.1-22.32-25.94S784.45,502.26,784.65,516.75Z"/><path class="cls-13" d="M738.21,516.46a28.25,28.25,0,0,1,2.07-4.13,35.07,35.07,0,0,1,3.78-5.14,40.32,40.32,0,0,1,5.84-5.72,52.11,52.11,0,0,1,8.23-5.65A62,62,0,0,1,768.67,491c3.74-1.58,8-2.22,12.09-3.22a106.49,106.49,0,0,1,12.42-1.08c1.64.06,3.29.09,4.91.16a51,51,0,0,1,6.62.57c3.57.54,32.09,5.23,41,5.32a129.41,129.41,0,0,0,16.06-1.31c1.14-.13,8-1.59,8.65-.42.89,1.54-7.16,5.46-8.74,6.18-4.66,2.14-9.71,3.79-14,6.49s-7.19,6.49-10.69,9.82c0,0-.16-13.76-15.32-15.59-.82-.09-1.62-.18-2.49-.24-2.63-.22-5.43-.46-8.28-.85-2.94-.16-6.05-.1-9.12-.35s-6.32.31-9.5.23c-3.19.2-6.35.71-9.52,1.08-3,.77-6.27,1.11-9.15,2.17-1.45.5-3,.83-4.43,1.34L765,503c-2.68,1.19-5.36,2.38-7.77,3.67s-4.71,2.58-6.73,3.9c-4.1,2.58-7.45,5-9.76,6.74s-3.66,2.83-3.66,2.83A14.66,14.66,0,0,1,738.21,516.46Z"/><path class="cls-13" d="M847.74,502.05s19.41-1.78,22.56-3.27c-4.07,4.11-32.15,15-33.27,14.76C839.11,511.45,840.07,504.2,847.74,502.05Z"/><path class="cls-10" d="M630.69,827.1l11.7,1.78,11.82,1.88c4.31.63,8.88,1.3,13.46,1.74,2.27.16,4.56.51,6.79.55s4.46.32,6.56.15a48.64,48.64,0,0,0,6.06-.34,26.91,26.91,0,0,0,5.33-.9,17.5,17.5,0,0,0,4.35-1.41,10.82,10.82,0,0,0,3.18-1.63l2.71-1.82s-.64,1-1.94,2.69a9.77,9.77,0,0,1-2.8,2.68,15.62,15.62,0,0,1-4.35,2.65l-2.68,1.21c-1,.32-2,.53-3,.82a32.59,32.59,0,0,1-6.55,1.19,71.65,71.65,0,0,1-14.27,0,107.12,107.12,0,0,1-13.88-2.52,102.49,102.49,0,0,1-11.66-3.68A72.09,72.09,0,0,1,630.69,827.1Z"/><path class="cls-14" d="M775.68,717.19a2.62,2.62,0,0,1,0,.43c-.27,1.57-1.79,7.31-10.29,17.71-2.71,3.41-11.41,13.46-12.22,14.27-16.2,15.49-40.27,29.74-69.84,27.74C642,774.52,605,760.25,573.92,742.16a220.74,220.74,0,0,1-23.56-15.71c-.22-.16-.54-.38-.81-.54-1.46-1.14-3-2.33-4.39-3.58a.45.45,0,0,0-.16-.05,209,209,0,0,1-20.2-18.8q-4.23-4.54-8.13-9.26A80,80,0,0,0,537,706.08c17.62,7.47,42.3,16.5,66.58,19.11a702.7,702.7,0,0,0,100.54,3C745.93,726.48,775.68,717.19,775.68,717.19Z"/><path class="cls-15" d="M775.68,717.19a2.62,2.62,0,0,1,0,.43c-.27,1.57-1.79,7.31-10.29,17.71-122.74,32.12-216-11-220.18-13a.45.45,0,0,0-.16-.05,209,209,0,0,1-20.2-18.8q-4.23-4.54-8.13-9.26A80,80,0,0,0,537,706.08C611.57,737.66,775.68,717.19,775.68,717.19Z"/><path class="cls-16" d="M695,699.93c-9.47-.63-15.41,8.43-18.59,15.53-4.26-7.07-11-15.87-18.52-15.87-12.47,0-128.27,6.19-141.21-5.37,0,0,36,37.85,164.33,30,18.65-.08,65.83-4.18,91-6.64C761.67,716.76,744.26,703.19,695,699.93Z"/><path class="cls-16" d="M775.68,717.19l-3.67.36A9.62,9.62,0,0,0,775.68,717.19Z"/><path class="cls-16" d="M518,695.3c6.13,9.29,16.21,16.38,24.74,23.25,35.59,28.66,82.71,51.48,128.57,56.38,16.07,1.72,33.16.92,48.36-4.95,8.88-3.42,18.37-8,25.33-14.48a263.38,263.38,0,0,0,24.22-25.31c-12.24,26.21-37.33,83.57-86.1,81.62S584.48,795.94,518,695.3Z"/><path class="cls-1" d="M561.69,409.1s-.89-21.38-9.8-23.16-65.05-16.94-96.23-7.13-32.3,18.71-32.3,18.71,41.43-10.69,77.52,0S563.1,419.33,561.69,409.1Z"/><path class="cls-1" d="M736.42,418.74s.76-20.65,8.34-22.37,55.38-16.34,81.93-6.88,27.49,18.07,27.49,18.07-35.27-10.33-66,0S735.22,428.62,736.42,418.74Z"/><path class="cls-1" d="M206,474.18s28.39-9.16,53.12,36.57a807.14,807.14,0,0,1,40.77,88.34S285.05,258,389,246.85,245.76,213,228.39,217,182.29,409.26,206,474.18Z"/><path class="cls-1" d="M925.56,273.4C922.73,327,873,422.65,873,422.65s-2.32-25.77-5.32-63.54C853,341.38,684.44,243.57,667.14,218.65a7.5,7.5,0,0,1-.48-.72,66.85,66.85,0,0,1-12.51,15.45C583.82,300.78,313,375.52,313,375.52L222.69,475.6c-26.22-4.33-32.1,11.12-32.1,11.12S57.3,461.68,197,182.24,533.13,24.15,666.66,45.54c188.78-10.7,233.59,164,255,203.16C925,254.88,926.1,263.4,925.56,273.4Z"/><path class="cls-17" d="M667.14,218.65a7.5,7.5,0,0,1-.48-.72C627.34,288.77,313,375.52,313,375.52c-48.54.61,330.36-94.21,353.64-250.4C666.66,125.12,689.76,167.62,667.14,218.65Z"/></g></svg>