<svg width="1088" height="539" viewBox="0 0 1088 539" fill="none" xmlns="http://www.w3.org/2000/svg">
<mask id="mask0" mask-type="alpha" maskUnits="userSpaceOnUse" x="0" y="0" width="1088" height="539">
<rect width="1088" height="539" fill="white"/>
</mask>
<g mask="url(#mask0)">
<path d="M418.273 401.03C413.373 399.39 408.493 397.604 403.633 395.67C402.298 395.103 400.818 394.97 399.403 395.29C398.084 395.613 396.896 396.335 396.002 397.356C395.107 398.378 394.549 399.65 394.403 401C389.333 447.1 396.203 501.56 413.103 530.32C430.003 559.08 439.543 580.84 488.163 590.09L489.993 562.44C458.313 561.21 445.453 540.73 435.993 513.44C426.533 486.15 427.583 451.16 429.843 418.44C430.129 414.664 429.146 410.901 427.05 407.747C424.954 404.593 421.865 402.229 418.273 401.03Z" fill="#B283B4"/>
<path d="M369.663 333.53H326.943V398.37H369.663V333.53Z" fill="#8E3321"/>
<path d="M369.653 333.53V368.92C336.263 374.12 326.943 348.84 326.943 348.84V333.53H369.653Z" fill="#77281D"/>
<path d="M397.743 593.67C389.881 598.345 381.157 601.386 372.093 602.61L371.303 602.72C367.903 603.164 364.481 603.421 361.053 603.49C355.881 603.6 350.707 603.376 345.563 602.82C333.473 601.56 321.373 598.62 309.733 595.32C300.113 592.61 289.813 587.83 286.563 577.93C284.433 571.41 285.563 564.28 285.933 557.58C286.683 544.32 288.473 531.13 288.933 517.85C289.613 496.76 289.153 475.55 286.173 454.61C283.833 438.19 282.003 421 276.893 405.08C276.383 404.58 275.543 402.97 275.963 402.6C276.963 401.68 303.323 383.79 316.783 379.15C322.004 377.132 327.462 375.788 333.023 375.15L352.433 389.9L366.513 376.67C371.903 377.62 373.763 378.34 379.463 380.37C390.047 384.203 400.075 389.425 409.283 395.9C411.793 397.62 414.343 399.48 416.883 401.47C416.493 409.93 404.483 414.36 414.383 437.53C414.383 437.53 422.093 479.14 416.073 483.13C416.413 483.97 416.983 485.33 417.683 487.13C424.543 504.74 444.303 564.72 397.743 593.67Z" fill="#A870A9"/>
<path d="M417.683 487.09C411.043 485.84 389.363 490.19 388.123 490.44L416.073 483.09C416.433 483.93 416.983 485.29 417.683 487.09Z" fill="#9F5C9F"/>
<path d="M326.943 368.04L314.713 379.24L336.423 402.24C336.829 402.669 337.322 403.006 337.869 403.229C338.416 403.451 339.005 403.554 339.595 403.53C340.185 403.506 340.763 403.357 341.291 403.091C341.818 402.826 342.283 402.45 342.653 401.99L352.433 389.9L335.233 375.16L326.943 368.04Z" fill="#E5E5E5"/>
<path d="M380.603 380.46L369.653 369.67L364.333 375.9L352.413 389.9L364.483 399.2C364.95 399.565 365.49 399.824 366.066 399.961C366.643 400.097 367.242 400.108 367.823 399.992C368.403 399.877 368.952 399.637 369.432 399.29C369.912 398.942 370.311 398.496 370.603 397.98L380.603 380.48V380.46Z" fill="#E5E5E5"/>
<path d="M296.233 407.85C291.333 406.217 286.456 404.434 281.603 402.5C280.264 401.933 278.781 401.8 277.363 402.12C276.045 402.446 274.859 403.168 273.965 404.189C273.071 405.21 272.512 406.481 272.363 407.83C267.293 453.93 269.533 501.22 299.603 537.15C322.703 565.52 377.243 587.66 425.863 596.91L427.703 569.26C396.013 568.04 342.623 543.07 324.233 518.61C303.153 491.3 305.583 458.04 307.843 425.27C308.113 421.49 307.119 417.728 305.018 414.575C302.916 411.421 299.826 409.056 296.233 407.85V407.85Z" fill="#B283B4"/>
<path d="M269.683 139.53V238.91C273.083 244.32 271.563 251.01 271.943 257.23C272.463 265.77 272.783 274.74 275.023 283.03C276.833 289.78 280.903 296.17 285.073 302.74C289.983 310.47 321.433 346.83 325.613 347.47C362.743 353.1 415.143 369.54 419.423 334.2C423.823 297.89 438.543 139.53 438.543 139.53H269.683Z" fill="#A54423"/>
<path d="M325.613 347.47C321.433 346.83 293.363 339.65 282.563 314.12C282.563 314.12 275.633 292.12 275.563 292.12C275.493 292.12 235.103 305.04 233.093 261.21C233.093 261.21 231.283 235.28 247.653 240.83H269.653V207.67L291.893 187.97C291.893 187.97 291.903 319.93 325.613 347.47Z" fill="#973E20"/>
<path d="M252.713 283.61C251.167 283.508 249.668 283.034 248.343 282.23C248.161 282.131 248.026 281.964 247.966 281.766C247.906 281.568 247.927 281.354 248.023 281.17C248.071 281.08 248.137 280.999 248.217 280.934C248.296 280.868 248.388 280.819 248.486 280.79C248.585 280.76 248.688 280.75 248.791 280.76C248.893 280.771 248.993 280.801 249.083 280.85C250.793 281.77 253.083 282.63 254.083 281.51C255.773 279.74 254.463 273.51 252.233 269.89C251.92 269.507 251.719 269.044 251.654 268.553C251.588 268.062 251.661 267.563 251.863 267.11C252.373 266.24 253.563 265.84 255.523 265.92C255.936 265.952 256.35 265.877 256.725 265.702C257.1 265.527 257.423 265.257 257.663 264.92C257.859 264.618 257.954 264.262 257.934 263.902C257.914 263.543 257.781 263.199 257.553 262.92C254.843 259.23 249.623 253.29 245.203 254.92C243.203 255.67 242.033 256.7 241.693 258C241.083 260.33 243.243 262.91 243.263 262.94C243.339 263.017 243.399 263.108 243.438 263.209C243.477 263.31 243.495 263.418 243.49 263.525C243.485 263.633 243.458 263.739 243.41 263.836C243.362 263.933 243.295 264.019 243.212 264.088C243.13 264.158 243.034 264.209 242.93 264.24C242.826 264.27 242.717 264.278 242.61 264.265C242.503 264.251 242.4 264.215 242.308 264.159C242.215 264.103 242.135 264.029 242.073 263.94C241.963 263.81 239.373 260.72 240.173 257.61C240.653 255.78 242.173 254.38 244.653 253.45C249.763 251.54 255.173 257.03 258.813 261.97C259.226 262.501 259.464 263.147 259.494 263.818C259.525 264.49 259.346 265.155 258.983 265.72C258.598 266.291 258.071 266.751 257.454 267.055C256.836 267.358 256.15 267.495 255.463 267.45C253.553 267.39 253.243 267.82 253.213 267.87C253.183 267.92 253.213 268.4 253.573 269.04C255.573 272.28 257.853 279.79 255.223 282.56C254.902 282.902 254.513 283.172 254.08 283.353C253.648 283.534 253.182 283.622 252.713 283.61V283.61Z" fill="#552113"/>
<path d="M336.863 235.67C336.863 235.67 335.193 235.22 332.783 234.67C331.563 234.42 330.153 234.16 328.643 233.95C327.883 233.87 327.103 233.77 326.313 233.73C325.518 233.662 324.72 233.639 323.923 233.66C323.123 233.66 322.333 233.72 321.533 233.73C320.733 233.74 319.963 233.88 319.213 233.98C318.463 234.08 317.743 234.22 317.023 234.32C316.303 234.42 315.703 234.61 315.083 234.73C313.803 234.95 312.883 235.25 312.083 235.39L310.853 235.65C311.051 235.482 311.258 235.325 311.473 235.18C312.11 234.717 312.802 234.334 313.533 234.04C314.043 233.82 314.613 233.58 315.273 233.35C315.933 233.12 316.773 232.93 317.633 232.73C318.493 232.53 319.523 232.39 320.553 232.27C321.583 232.15 322.743 232.07 323.883 232.1C324.995 232.097 326.107 232.151 327.213 232.26C328.203 232.356 329.188 232.503 330.163 232.7C331.589 232.991 332.983 233.423 334.323 233.99C335.297 234.329 336.17 234.907 336.863 235.67V235.67Z" fill="#8E3321"/>
<path d="M312.893 247.06C312.893 247.06 313.083 259.83 324.703 259.83C336.323 259.83 341.773 249.25 335.253 245.83C329.093 242.52 319.703 241.67 312.893 247.06Z" fill="white"/>
<path d="M337.983 249.05C337.983 249.05 337.623 248.76 336.983 248.33C336.343 247.9 335.423 247.33 334.313 246.67C333.763 246.35 333.133 246.07 332.493 245.76C331.853 245.45 331.143 245.22 330.433 244.97L329.333 244.65C328.953 244.55 328.563 244.52 328.183 244.43C327.403 244.293 326.615 244.206 325.823 244.17C325.023 244.17 324.223 244.17 323.423 244.26C322.623 244.35 321.803 244.39 321.043 244.62C320.283 244.85 319.513 244.95 318.793 245.14C318.073 245.33 317.413 245.59 316.793 245.77C316.173 245.95 315.563 246.16 315.043 246.36C314.523 246.56 314.043 246.7 313.673 246.83C312.883 247.08 312.403 247.21 312.403 247.21C312.403 247.21 312.683 246.88 313.223 246.32C313.493 246.05 313.823 245.7 314.223 245.32C314.659 244.878 315.145 244.488 315.673 244.16C316.253 243.78 316.893 243.36 317.593 242.95C318.293 242.54 319.153 242.24 320.023 241.95C320.948 241.625 321.898 241.374 322.863 241.2C323.9 241.051 324.946 240.977 325.993 240.98C327.046 241.031 328.091 241.185 329.113 241.44C330.081 241.668 331.02 242.003 331.913 242.44C332.709 242.825 333.463 243.291 334.163 243.83C334.77 244.275 335.327 244.785 335.823 245.35C336.242 245.79 336.617 246.269 336.943 246.78C337.198 247.158 337.422 247.556 337.613 247.97C337.777 248.315 337.901 248.677 337.983 249.05V249.05Z" fill="#38302A"/>
<path d="M329.203 250.22C329.203 254.78 326.303 258.48 322.713 258.48C319.123 258.48 316.223 254.78 316.223 250.22C316.223 245.66 319.123 241.97 322.713 241.97C326.303 241.97 329.203 245.67 329.203 250.22Z" fill="#38302A"/>
<path d="M398.203 246.32C398.203 246.32 398.363 257.53 408.203 257.53C418.043 257.53 422.603 248.24 417.103 245.24C411.863 242.33 403.943 241.57 398.203 246.32Z" fill="white"/>
<path d="M419.363 248.06C419.363 248.06 419.063 247.81 418.513 247.43C417.788 246.909 417.037 246.425 416.263 245.98C415.793 245.7 415.263 245.45 414.733 245.17C414.203 244.89 413.583 244.7 412.993 244.48L412.063 244.2C411.743 244.11 411.413 244.09 411.063 244.01C410.402 243.888 409.734 243.811 409.063 243.78C408.383 243.78 407.703 243.78 407.063 243.86C406.423 243.94 405.703 243.97 405.063 244.17C404.423 244.37 403.773 244.47 403.163 244.63C402.553 244.79 401.993 245.02 401.453 245.19C400.95 245.33 400.455 245.5 399.973 245.7C399.543 245.87 399.143 246 398.813 246.12C398.153 246.34 397.753 246.45 397.753 246.45C397.753 246.45 397.983 246.15 398.433 245.67C398.663 245.43 398.943 245.12 399.283 244.81C399.653 244.43 400.065 244.095 400.513 243.81C401.003 243.47 401.513 243.1 402.133 242.75C402.799 242.407 403.484 242.1 404.183 241.83C404.965 241.55 405.768 241.329 406.583 241.17C407.454 241.041 408.333 240.978 409.213 240.98C410.105 241.021 410.99 241.155 411.853 241.38C412.67 241.589 413.462 241.887 414.213 242.27C414.886 242.606 415.52 243.016 416.103 243.49C417.024 244.218 417.818 245.093 418.453 246.08C418.668 246.415 418.855 246.766 419.013 247.13C419.162 247.427 419.279 247.739 419.363 248.06V248.06Z" fill="#38302A"/>
<path d="M411.963 249.09C411.963 253.09 409.513 256.34 406.483 256.34C403.453 256.34 401.013 253.1 401.013 249.09C401.013 245.08 403.463 241.84 406.483 241.84C409.503 241.84 411.963 245.09 411.963 249.09Z" fill="#38302A"/>
<path d="M418.093 235.67C418.093 235.67 416.843 235.22 415.093 234.67C414.183 234.42 413.093 234.16 412.013 233.95C411.443 233.87 410.863 233.77 410.283 233.73C409.669 233.662 409.05 233.642 408.433 233.67C407.833 233.67 407.243 233.73 406.653 233.74C406.063 233.75 405.483 233.89 404.923 233.99C404.363 234.09 403.833 234.23 403.293 234.33C402.753 234.43 402.293 234.62 401.853 234.74C400.853 234.96 400.213 235.26 399.623 235.4L398.713 235.66C398.858 235.495 399.011 235.338 399.173 235.19C399.628 234.742 400.143 234.358 400.703 234.05C401.093 233.83 401.513 233.59 402.003 233.36C402.493 233.13 403.123 232.94 403.753 232.74C404.383 232.54 405.163 232.4 405.933 232.28C406.756 232.178 407.584 232.121 408.413 232.11C409.239 232.107 410.064 232.16 410.883 232.27C411.626 232.366 412.361 232.513 413.083 232.71C414.163 233.008 415.202 233.442 416.173 234C416.946 234.382 417.608 234.957 418.093 235.67V235.67Z" fill="#8E3321"/>
<path d="M240.483 120.01C237.723 136.45 242.973 166.24 245.683 175.09C251.573 204.44 251.413 241.97 251.413 241.97C265.413 242.87 263.413 256.41 268.503 265.81C268.503 265.88 273.793 269.73 274.583 271.93C274.583 271.93 274.583 269.64 274.583 268.93C274.583 263.09 273.293 216.4 283.313 212.12C283.431 212.062 283.555 212.019 283.683 211.99L287.263 210.99C288.676 210.694 289.951 209.937 290.888 208.839C291.825 207.74 292.372 206.362 292.443 204.92V162.57C292.443 162.57 240.803 118.48 240.483 120.01Z" fill="#D8D8D7"/>
<path d="M350.643 310.1L350.483 312.89L344.313 308.29L343.493 306.94L345.613 308.26L350.643 310.1Z" fill="#77281D"/>
<path d="M382.433 313.67C382.433 313.67 382.013 308.49 378.183 308.8C374.353 309.11 350.773 311.7 343.513 306.99C353.083 314.5 390.323 321.11 401.963 313.61C402.443 313.3 402.383 312.71 402.783 312.35C402.763 312.3 383.653 303.38 382.433 313.67Z" fill="#77281D"/>
<path d="M400.963 312.67C396.187 313.814 391.31 314.484 386.403 314.67C378.73 314.991 371.043 314.761 363.403 313.98C359.173 313.426 355.027 312.348 351.063 310.77C350.943 311.77 350.793 312.82 350.653 313.84L351.033 314.14L351.213 314.27C352.934 315.582 354.737 316.782 356.613 317.86C364.315 322.286 372.929 324.886 381.793 325.46C384.676 325.64 387.564 325.197 390.261 324.161C392.958 323.126 395.401 321.523 397.423 319.46L397.983 318.92C398.844 318.082 399.656 317.194 400.413 316.26C400.623 316.01 400.803 315.77 400.973 315.54L400.963 312.67Z" fill="#E07670"/>
<path d="M400.963 312.4C393.653 313.18 365.613 315.7 350.193 310.4V313.4C352.473 314.4 373.293 323.4 400.403 316.29C400.613 316.03 400.793 315.8 400.963 315.57V312.4Z" fill="#F6F6F6"/>
<path d="M343.493 306.94C343.493 306.94 370.653 329.82 389.753 322.36C394.873 319.88 402.753 312.3 402.753 312.3C402.753 312.3 400.433 332.67 385.093 334.01C363.153 335.93 350.803 323.04 343.493 306.94Z" fill="#8E3321"/>
<path d="M344.243 227.79L341.693 216.03L302.873 217.21L296.993 227.79H344.243Z" fill="#CCCBCB"/>
<path d="M400.283 227.79L402.203 216.03L431.473 217.21L435.913 227.79H400.283Z" fill="#CCCBCB"/>
<path d="M265.683 256.34L279.343 302.24L288.343 307.24C288.343 307.24 276.343 219.93 279.813 216.02C271.123 221.13 265.683 256.34 265.683 256.34Z" fill="#D8D8D7"/>
<path d="M380.243 300.59C379.143 301.06 369.243 296.08 367.333 295.73C358.333 294.1 346.223 292.35 339.333 299.99C333.403 306.59 336.033 315.8 335.803 323.85C335.143 346.78 340.623 349.63 340.623 349.63C340.623 349.63 385.093 369.34 408.803 353.39C412.913 335.09 433.823 277.32 380.243 300.59ZM400.243 349.33C395.753 350.9 372.243 356.39 347.143 344.63C347.143 344.63 338.513 305.42 344.203 304.05C349.893 302.68 375.373 306.6 380.863 305.23C386.353 303.86 404.203 300.45 406.443 307.23C408.683 314.01 404.763 347.76 400.283 349.33H400.243Z" fill="#CCCBCB"/>
<path d="M375.703 353.45L378.703 341.22H382.433C382.433 341.22 383.743 353.12 388.183 353.45C379.433 354.43 375.703 353.45 375.703 353.45Z" fill="#D8D8D7"/>
<path d="M368.213 337.98L371.593 338.5L375.013 339.04C376.253 339.22 377.573 339.41 378.893 339.54C379.553 339.54 380.213 339.69 380.893 339.7C381.573 339.71 382.173 339.79 382.783 339.7C383.368 339.709 383.953 339.676 384.533 339.6C385.054 339.57 385.57 339.486 386.073 339.35C386.508 339.265 386.931 339.128 387.333 338.94C387.662 338.831 387.972 338.673 388.253 338.47L389.033 337.94C389.033 337.94 388.853 338.22 388.473 338.72C388.256 339.028 387.981 339.289 387.663 339.49C387.289 339.816 386.863 340.076 386.403 340.26L385.633 340.61C385.363 340.7 385.073 340.76 384.773 340.84C384.153 341.021 383.517 341.138 382.873 341.19C381.503 341.325 380.123 341.325 378.753 341.19C376.228 340.903 373.749 340.302 371.373 339.4C370.282 339.016 369.225 338.541 368.213 337.98V337.98Z" fill="#552113"/>
<path d="M292.483 162.67C292.483 162.67 301.283 150.42 310.863 154.96C329.203 163.64 410.163 176.69 435.363 155.01C435.873 147.58 437.883 143.44 437.883 143.44L286.933 141.24L292.483 162.67Z" fill="#973E20"/>
<path d="M444.943 140.14C444.133 141.23 442.523 143.33 442.523 143.34C437.523 149.73 438.293 148.05 437.143 149.54C432.433 155.67 359.073 164.25 329.203 151.18C309.483 142.55 298.013 168.1 292.483 173.92L288.373 179.57C288.373 179.57 296.933 184.57 241.573 150.57C227.893 85.1205 287.953 27.5704 376.083 36.1204C459.663 44.2504 459.963 119.77 444.943 140.14Z" fill="#D8D8D7"/>
<path d="M424.743 54.4904C463.383 82.8804 458.843 134.25 437.143 150.49C430.953 155.12 359.073 165.2 329.203 152.13C309.483 143.51 298.013 169.06 292.483 174.87C292.603 174.33 297.813 135.31 336.953 140.6C423.913 152.34 455.363 93.2004 424.743 54.4904Z" fill="#CCCBCB"/>
<path d="M337.913 260.92C337.975 261.458 337.944 262.003 337.823 262.53C337.711 263.07 337.533 263.594 337.293 264.09C337.017 264.669 336.664 265.207 336.243 265.69C335.812 266.182 335.301 266.597 334.733 266.92C334.48 267.081 334.208 267.209 333.923 267.3C333.674 267.408 333.412 267.482 333.143 267.52C332.608 267.625 332.058 267.625 331.523 267.52C331.523 267.52 332.103 267.19 332.803 266.68C333.192 266.401 333.566 266.1 333.923 265.78C334.123 265.611 334.313 265.431 334.493 265.24C334.692 265.053 334.879 264.852 335.053 264.64C335.739 263.855 336.383 263.034 336.983 262.18C337.503 261.44 337.913 260.92 337.913 260.92Z" fill="#77281D"/>
<path d="M397.353 258.67C397.303 259.098 397.326 259.531 397.423 259.95C397.512 260.383 397.653 260.802 397.843 261.2C398.063 261.666 398.346 262.1 398.683 262.49C399.03 262.887 399.438 263.225 399.893 263.49C400.098 263.624 400.32 263.728 400.553 263.8C400.751 263.885 400.96 263.942 401.173 263.97C401.602 264.056 402.044 264.056 402.473 263.97C402.473 263.97 402.003 263.71 401.473 263.3C401.16 263.078 400.859 262.837 400.573 262.58C400.413 262.46 400.273 262.29 400.113 262.15C399.953 262.01 399.823 261.83 399.673 261.67C399.083 261.02 398.553 260.27 398.123 259.67C397.693 259.07 397.353 258.67 397.353 258.67Z" fill="#77281D"/>
<path d="M341.433 297.19C340.052 297.283 338.684 297.521 337.353 297.9C336.03 298.25 334.738 298.712 333.493 299.28C332.137 299.885 330.844 300.622 329.633 301.48C328.559 302.261 327.612 303.202 326.823 304.27C326.48 304.691 326.213 305.168 326.033 305.68C325.827 306.076 325.698 306.507 325.653 306.95C325.502 307.809 325.635 308.694 326.033 309.47C326.113 309.47 326.753 308.47 327.893 307.18C328.516 306.453 329.184 305.765 329.893 305.12C330.233 304.74 330.743 304.41 331.153 304.03C331.6 303.645 332.067 303.285 332.553 302.95C334.453 301.51 336.703 300.16 338.413 299.07C340.123 297.98 341.433 297.19 341.433 297.19Z" fill="#77281D"/>
<path d="M242.433 240.1L302.973 235.67L300.973 250.27L261.843 251.56C261.843 251.56 254.133 240.75 242.433 240.1Z" fill="#CC8B36"/>
<g opacity="0.2">
<path opacity="0.2" d="M336.873 235.01L320.623 271.93L325.173 272.92L340.063 235.62L336.873 235.01Z" fill="#F6F6F6"/>
<path opacity="0.2" d="M343.493 236.85L329.203 272.92L333.983 272.94L348.053 238.69L343.493 236.85Z" fill="#F6F6F6"/>
</g>
<g opacity="0.2">
<path opacity="0.2" d="M420.623 235.01L404.373 271.93L408.933 272.92L423.823 235.62L420.623 235.01Z" fill="#F6F6F6"/>
<path opacity="0.2" d="M427.253 236.85L412.963 272.92L417.733 272.94L431.813 238.69L427.253 236.85Z" fill="#F6F6F6"/>
</g>
<path d="M355.573 245.24L353.793 237.72C353.793 237.72 342.893 229.84 323.733 231.8C304.573 233.76 296.593 233.05 294.063 233.06C291.533 233.07 291.273 239.15 293.173 239.79C295.073 240.43 299.003 241.69 299.003 244.73C299.003 247.77 295.583 273.52 327.923 274.66C360.263 275.8 355.573 245.24 355.573 245.24ZM328.303 270.99C302.183 270.27 303.403 250.59 304.873 242.93C305.046 242.026 305.469 241.188 306.095 240.512C306.721 239.837 307.524 239.351 308.413 239.11C330.413 233.11 343.203 237.62 347.783 239.92C348.409 240.235 348.96 240.679 349.4 241.224C349.84 241.769 350.158 242.402 350.333 243.08C352.123 249.92 355.693 271.73 328.303 270.99Z" fill="#FAAF40"/>
<path d="M301.003 236.85C301.003 237.338 300.809 237.806 300.464 238.151C300.119 238.497 299.651 238.69 299.163 238.69H296.753C296.511 238.69 296.272 238.643 296.049 238.55C295.826 238.458 295.623 238.322 295.452 238.151C295.281 237.981 295.146 237.778 295.053 237.555C294.961 237.331 294.913 237.092 294.913 236.85C294.913 236.609 294.961 236.37 295.053 236.146C295.146 235.923 295.281 235.72 295.452 235.549C295.623 235.378 295.826 235.243 296.049 235.15C296.272 235.058 296.511 235.01 296.753 235.01H299.163C299.651 235.01 300.119 235.204 300.464 235.549C300.809 235.894 301.003 236.362 301.003 236.85Z" fill="#F9E075"/>
<path d="M412.593 274.67C441.713 273.53 438.593 247.79 438.593 244.74C438.593 241.69 442.133 240.43 443.843 239.8C445.553 239.17 445.333 233.08 443.043 233.07C440.753 233.06 433.573 233.77 416.323 231.81C399.073 229.85 389.253 237.73 389.253 237.73L387.653 245.25C387.653 245.25 383.433 275.8 412.593 274.67ZM392.433 243.08C392.576 242.423 392.854 241.802 393.25 241.258C393.646 240.714 394.151 240.258 394.733 239.92C398.853 237.62 410.333 233.13 430.183 239.11C431.016 239.39 431.755 239.895 432.318 240.569C432.882 241.244 433.247 242.061 433.373 242.93C434.693 250.59 435.793 270.27 412.273 270.99C387.583 271.73 390.803 249.92 392.433 243.08Z" fill="#FAAF40"/>
<path d="M436.833 236.85C436.811 237.314 436.973 237.767 437.284 238.112C437.595 238.457 438.03 238.665 438.493 238.69H440.663C441.118 238.643 441.539 238.429 441.845 238.089C442.152 237.749 442.321 237.308 442.321 236.85C442.321 236.393 442.152 235.952 441.845 235.612C441.539 235.272 441.118 235.058 440.663 235.01H438.493C438.263 235.022 438.038 235.079 437.83 235.177C437.622 235.276 437.435 235.415 437.281 235.586C437.127 235.757 437.008 235.957 436.931 236.174C436.854 236.39 436.821 236.621 436.833 236.85V236.85Z" fill="#F9E075"/>
<path d="M353.793 237.72C353.793 237.72 372.103 226.35 389.293 237.72C389.736 240.821 389.356 243.983 388.193 246.89C388.193 246.89 372.193 230.17 355.733 246.89C353.193 240.78 353.793 237.72 353.793 237.72Z" fill="#FAAF40"/>
<path d="M360.513 286.56C360.513 286.56 388.333 295.28 394.703 283.91C395.123 296.25 374.433 306.2 360.513 286.56Z" fill="#79331A"/>
<path d="M327.133 189.67C327.133 189.67 332.923 188.43 341.683 187.35C346.053 186.78 351.173 186.25 356.683 185.83C359.433 185.64 362.273 185.39 365.163 185.27L373.933 184.9L382.713 184.8C385.603 184.8 388.463 184.89 391.223 184.96C396.743 185.15 401.903 185.54 406.313 186.11C408.523 186.38 410.533 186.73 412.313 187.11C414.093 187.49 415.623 187.85 416.873 188.22C417.842 188.487 418.791 188.821 419.713 189.22L420.713 189.67L419.713 189.47C419.043 189.31 418.023 189.26 416.773 189.12C415.523 188.98 413.953 188.96 412.183 188.89H406.183L399.133 189L391.243 189.21L374.103 189.72L365.373 189.92C362.503 190.01 359.663 190 356.923 190.06C354.183 190.12 351.523 190.11 349.003 190.13C346.483 190.15 344.103 190.13 341.903 190.13C333.033 190.07 327.133 189.67 327.133 189.67Z" fill="#77281D"/>
<path d="M340.433 200.22C340.433 200.22 341.503 199.96 343.433 199.6C345.363 199.24 348.013 198.77 351.263 198.35C352.883 198.14 354.643 197.9 356.503 197.73C358.363 197.56 360.333 197.32 362.373 197.18C366.443 196.87 370.793 196.65 375.153 196.56C377.323 196.56 379.503 196.49 381.653 196.56C383.803 196.63 385.913 196.64 387.963 196.72C390.013 196.8 391.963 196.97 393.863 197.11C395.763 197.25 397.513 197.47 399.143 197.66C400.773 197.85 402.283 198.15 403.603 198.38C404.923 198.61 406.073 198.96 407.003 199.18C407.734 199.375 408.447 199.633 409.133 199.95L409.853 200.26H409.053C408.325 200.19 407.594 200.16 406.863 200.17C405.863 200.17 404.773 200.17 403.453 200.25L399.033 200.46L387.953 201.02C383.903 201.2 379.583 201.34 375.243 201.43C370.903 201.52 366.583 201.55 362.513 201.51C358.443 201.47 354.643 201.36 351.373 201.18C348.103 201 345.373 200.81 343.473 200.63C341.573 200.45 340.433 200.22 340.433 200.22Z" fill="#77281D"/>
<path d="M660.293 409.59C658.393 394.99 643.573 395.04 643.523 395.03C631.783 393.89 628.753 407.36 628.883 419.03C629.883 508.25 662.133 583.17 736.603 586.75L739.063 556.26C686.983 556.33 666.223 506.3 660.293 409.59Z" fill="#EF725E"/>
<path d="M611.353 334.88H551.393V441.68H611.353V334.88Z" fill="#973E20"/>
<path d="M611.353 334.88V381.67C549.113 389.58 551.353 334.84 551.353 334.84L611.353 334.88Z" fill="#77281D"/>
<path d="M653.793 506.01C654.982 503.631 656.493 501.428 658.283 499.46C659.403 498.76 665.283 495.46 667.633 485.74C669.983 476.02 662.393 464.1 660.053 454.22C657.713 444.34 655.433 431.67 656.603 422.95C657.603 415.36 654.893 407.74 649.043 401.84C644.393 397.287 638.57 394.112 632.223 392.67C630.038 392.154 627.814 391.819 625.573 391.67C620.526 391.33 615.64 391.054 610.913 390.84C610.913 390.84 612.113 402.95 597.473 405.1C582.833 407.25 562.933 406.73 551.313 390.73C543.623 391.12 540.423 391.24 534.643 391.3C516.233 391.49 504.983 399.62 504.983 399.62C504.983 399.62 502.793 402.05 521.543 447.62C530.543 469.55 529.103 505.37 525.153 536.62C523.393 550.543 519.788 564.169 514.433 577.14C508.913 590.58 502.863 608.89 510.943 610.82C587.653 629.13 645.683 617.33 649.603 608.82C650.053 600.03 650.953 567.36 649.283 558.61C646.023 541.67 645.613 521.82 653.793 506.01Z" fill="#FE7D60"/>
<path d="M665.703 493.8L665.593 493.91L665.693 493.8H665.703Z" fill="#301D28"/>
<path d="M658.283 499.46C656.493 501.428 654.982 503.631 653.793 506.01C644.163 508.54 633.573 505.42 624.093 500.56C642.693 506.97 659.433 498.76 658.283 499.46Z" fill="#EF725E"/>
<path d="M552.563 502.22L553.043 502.41L554.403 502.91C554.983 503.13 555.713 503.36 556.513 503.64C557.313 503.92 558.243 504.2 559.243 504.49C561.497 505.155 563.783 505.706 566.093 506.14C567.353 506.37 568.653 506.57 569.983 506.72C571.313 506.87 572.653 506.98 573.983 507.01C574.653 507.01 575.333 507.06 575.983 507.01C576.633 506.96 577.323 507.01 577.983 507.01C579.323 506.94 580.643 506.83 581.913 506.68C583.183 506.53 584.433 506.35 585.603 506.13C586.193 506.04 586.763 505.92 587.313 505.8C587.863 505.68 588.413 505.59 588.923 505.46C589.923 505.21 590.923 505.01 591.743 504.78C592.563 504.55 593.353 504.39 593.953 504.2C594.553 504.01 595.063 503.91 595.393 503.82L595.923 503.69L595.563 504C595.323 504.19 594.983 504.48 594.503 504.83C593.936 505.26 593.345 505.657 592.733 506.02C591.919 506.529 591.077 506.993 590.213 507.41C589.743 507.66 589.213 507.86 588.663 508.1C588.113 508.34 587.553 508.56 586.933 508.77C585.624 509.228 584.288 509.606 582.933 509.9C581.451 510.241 579.948 510.478 578.433 510.61C577.653 510.68 576.863 510.75 576.063 510.75C575.263 510.75 574.463 510.75 573.653 510.75C572.843 510.75 572.063 510.65 571.263 510.6C570.463 510.55 569.693 510.41 568.923 510.29C568.153 510.17 567.403 510.02 566.673 509.84C565.943 509.66 565.233 509.49 564.543 509.29C562.128 508.592 559.805 507.608 557.623 506.36C556.188 505.563 554.846 504.607 553.623 503.51C553.233 503.112 552.878 502.681 552.563 502.22V502.22Z" fill="#EF725E"/>
<path d="M500.293 410.93C495.633 536.8 576.113 605.66 692.013 589.6L686.663 562.43C589.433 574.67 529.923 510.12 532.123 402.96C532.194 400.363 531.321 397.827 529.667 395.823C528.012 393.819 525.687 392.483 523.123 392.06H522.963C520.212 391.673 517.411 391.865 514.738 392.625C512.066 393.385 509.583 394.696 507.448 396.473C505.312 398.25 503.573 400.455 502.341 402.945C501.108 405.435 500.411 408.155 500.293 410.93V410.93Z" fill="#EF725E"/>
<path d="M672.433 318.14C649.493 358.38 563.683 325.14 534.433 329.31C494.603 357.41 444.553 338.31 420.623 282.81C417.892 276.629 416.177 270.048 415.543 263.32C411.753 219.74 461.743 194.67 461.743 194.67L681.823 191.72C681.823 191.72 691.063 213.17 718.083 249.45L718.803 250.45C746.433 287.34 700.773 316.72 672.433 318.14Z" fill="#D8D8D7"/>
<path d="M672.433 318.14C649.493 358.38 563.683 325.14 534.433 329.31C494.603 357.41 444.553 338.31 420.623 282.81C417.892 276.629 416.177 270.048 415.543 263.32C414.423 250.68 416.403 244.13 418.693 240.01C418.693 240.01 452.693 339.23 531.793 296.72C554.913 304.72 623.393 321.15 648.793 285.12C683.123 289.78 707.503 299.06 718.133 249.49L718.853 250.49C746.433 287.34 700.773 316.72 672.433 318.14Z" fill="#CCCBCB"/>
<path d="M676.603 313.42C673.588 324.472 668.385 334.806 661.303 343.81C639.673 370.18 611.713 371.43 578.813 361.38C574.503 360.092 570.284 358.519 566.183 356.67C546.487 347.602 528.806 334.681 514.183 318.67C513.033 317.41 492.983 288.42 494.403 288.03C484.613 290.73 463.493 291.91 458.693 254.12C458.693 254.12 454.253 224.83 473.353 229.61L494.893 227.87L488.683 151.07C489.711 150.248 490.816 149.528 491.983 148.92C558.173 111.31 677.453 140.92 678.473 141.4C680.033 142.06 681.123 156.17 681.403 157.81C682.733 165.54 684.573 173.13 685.073 180.97C685.433 186.57 685.963 192.13 686.533 197.69C687.263 206.008 688.718 214.246 690.883 222.31C699.863 252.99 684.953 282.38 676.603 313.42Z" fill="#A54423"/>
<path d="M578.813 361.38C574.503 360.092 570.284 358.519 566.183 356.67C546.487 347.602 528.806 334.681 514.183 318.67C513.033 317.41 492.983 288.42 494.403 288.03C484.613 290.73 463.493 291.91 458.693 254.12C458.693 254.12 454.253 224.83 473.353 229.61L482.813 228.85C488.363 236.68 483.643 115.92 519.953 150.16C519.923 150.14 488.373 309.29 578.813 361.38Z" fill="#973E20"/>
<path d="M480.943 277.79C479.281 277.818 477.637 277.44 476.153 276.69C476.043 276.652 475.943 276.592 475.858 276.512C475.773 276.433 475.705 276.337 475.659 276.231C475.613 276.124 475.589 276.009 475.59 275.893C475.591 275.777 475.615 275.662 475.662 275.556C475.709 275.45 475.778 275.355 475.864 275.277C475.95 275.198 476.051 275.139 476.161 275.102C476.271 275.064 476.387 275.05 476.503 275.061C476.619 275.071 476.731 275.105 476.833 275.16C478.733 275.99 481.213 276.72 482.243 275.43C483.893 273.43 481.953 266.87 479.243 263.16C478.423 262.03 478.243 261.05 478.603 260.23C478.963 259.41 480.303 258.72 482.403 258.64C482.849 258.637 483.286 258.52 483.673 258.299C484.06 258.078 484.383 257.762 484.613 257.38C484.791 257.042 484.859 256.657 484.807 256.279C484.755 255.9 484.586 255.548 484.323 255.27C481.103 251.56 475.003 245.66 470.423 247.8C468.363 248.8 467.193 249.98 466.943 251.4C466.493 253.94 469.033 256.51 469.053 256.54C469.131 256.618 469.192 256.71 469.234 256.811C469.276 256.912 469.297 257.021 469.297 257.13C469.297 257.24 469.276 257.348 469.234 257.45C469.192 257.551 469.131 257.643 469.053 257.72C468.976 257.798 468.884 257.859 468.782 257.901C468.681 257.943 468.573 257.965 468.463 257.965C468.354 257.965 468.245 257.943 468.144 257.901C468.043 257.859 467.951 257.798 467.873 257.72C467.743 257.6 464.693 254.52 465.293 251.11C465.633 249.11 467.123 247.5 469.713 246.28C475.013 243.8 481.273 249.2 485.593 254.16C486.077 254.695 486.385 255.366 486.475 256.081C486.564 256.797 486.431 257.523 486.093 258.16C485.731 258.803 485.208 259.341 484.575 259.72C483.942 260.099 483.221 260.306 482.483 260.32C480.433 260.42 480.143 260.91 480.113 260.96C480.083 261.01 480.113 261.52 480.603 262.18C482.993 265.47 486.103 273.29 483.533 276.49C483.217 276.877 482.823 277.192 482.376 277.416C481.93 277.64 481.442 277.767 480.943 277.79Z" fill="#79331A"/>
<path d="M519.923 150.14C507.173 152.56 501.203 169.92 498.713 190.61C496.393 209.99 497.123 232.27 498.193 247.96C499.003 259.96 500.023 268.15 500.023 268.15C495.343 258.534 490.091 249.207 484.293 240.22C480.553 234.47 476.863 231.63 473.763 230.29C469.143 228.29 465.883 229.63 465.883 229.63C456.363 208.95 455.823 148.32 457.403 142.63C458.023 140.41 461.993 142.08 466.933 141.94C489.013 141.41 547.583 144.89 519.923 150.14Z" fill="#D8D8D7"/>
<path d="M575.433 250.67C575.433 250.67 575.083 231.45 559.003 229.17C542.923 226.89 538.893 242.92 538.893 242.92C538.893 242.92 554.283 234.76 575.433 250.67Z" fill="#79331A"/>
<path d="M539.103 242.96C539.103 242.96 537.683 255.78 554.253 256.83C570.823 257.88 580.603 252.83 572.513 246.64C564.433 241.86 550.833 239.22 539.103 242.96Z" fill="white"/>
<path d="M561.723 245.67C561.957 247.209 561.733 248.782 561.079 250.194C560.425 251.605 559.37 252.794 558.046 253.611C556.722 254.427 555.186 254.836 553.631 254.787C552.076 254.738 550.57 254.232 549.3 253.333C548.03 252.433 547.053 251.181 546.49 249.73C545.927 248.28 545.803 246.696 546.134 245.175C546.465 243.655 547.236 242.265 548.35 241.18C549.465 240.094 550.874 239.361 552.403 239.07C554.514 238.711 556.681 239.204 558.429 240.442C560.176 241.679 561.361 243.56 561.723 245.67V245.67Z" fill="#38302A"/>
<path d="M541.733 239.07C541.733 239.07 533.943 243.74 532.593 240.69C534.693 246.2 536.073 243.35 548.893 241.78C562.143 240.15 572.253 245.27 574.893 249.19C574.513 247.77 560.163 230.13 541.733 239.07Z" fill="#38302A"/>
<path d="M538.893 242.03C538.893 242.03 536.073 245.95 533.733 245.25C535.343 246.96 540.733 241.89 551.103 241.56C547.028 241.508 542.952 241.664 538.893 242.03V242.03Z" fill="#38302A"/>
<path d="M641.733 243.92C641.733 243.92 639.203 226.34 653.533 221.92C667.863 217.5 673.913 231.47 673.913 231.47C673.913 231.47 658.633 226.27 641.733 243.92Z" fill="#79331A"/>
<path d="M673.703 231.49C673.703 231.49 676.893 242.96 661.943 246.38C646.993 249.8 637.313 246.63 643.783 239.81C650.433 234.25 662.433 229.82 673.703 231.49Z" fill="white"/>
<path d="M647.783 238.67C647.797 240.14 648.244 241.573 649.066 242.791C649.889 244.009 651.052 244.958 652.41 245.519C653.769 246.081 655.262 246.231 656.705 245.95C658.147 245.669 659.475 244.969 660.524 243.939C661.572 242.909 662.293 241.593 662.599 240.155C662.905 238.717 662.78 237.222 662.242 235.854C661.704 234.486 660.775 233.307 659.571 232.464C658.367 231.62 656.942 231.15 655.473 231.11C653.451 231.094 651.506 231.882 650.064 233.299C648.622 234.717 647.802 236.649 647.783 238.67V238.67Z" fill="#38302A"/>
<path d="M670.713 228.33C670.713 228.33 678.513 231.43 679.293 228.45C678.203 233.79 676.523 231.39 664.593 231.86C652.263 232.34 643.813 238.52 641.933 242.49C642.123 241.14 652.593 222.92 670.713 228.33Z" fill="#38302A"/>
<path d="M673.743 230.61C673.743 230.61 676.903 233.76 678.933 232.78C677.713 234.58 672.033 230.78 662.543 232C666.25 231.346 669.988 230.882 673.743 230.61Z" fill="#38302A"/>
<path d="M576.323 217.24C576.323 217.24 574.473 203.84 566.113 204.52C557.753 205.2 513.403 212.61 525.113 214.61C536.823 216.61 576.323 217.24 576.323 217.24Z" fill="#4C423B"/>
<path d="M636.823 212.34C636.823 212.34 636.323 198.84 642.893 198.34C649.463 197.84 684.803 198.77 676.013 202.43C667.223 206.09 636.823 212.34 636.823 212.34Z" fill="#4C423B"/>
<path d="M656.873 298.09C656.873 298.09 619.363 322.35 570.813 297.49C590.433 317.81 607.433 325.16 624.113 324.67C635.783 324.37 657.513 301.67 656.873 298.09Z" fill="#F6F6F6"/>
<path d="M657.363 297.52C657.363 297.11 641.963 318.28 623.813 320.96C606.233 324.09 585.953 311.72 570.273 297.12C573.943 302.78 601.273 337.04 622.403 336.12C645.093 336.21 657.863 297.38 657.363 297.52Z" fill="#8E3321"/>
<path d="M629.703 297.34C626.513 297.73 625.083 301.83 624.383 304.99C622.513 302.29 619.763 298.99 617.273 299.29C613.593 301.15 578.933 301.59 570.603 297.42C575.843 301.42 592.423 314.7 625.123 310.23C625.193 310.84 652.493 303.98 657.363 297.52C653.783 298.35 646.273 295.1 629.703 297.34Z" fill="#77281D"/>
<path d="M608.653 340.31L612.593 341.04L616.593 341.83C618.043 342.09 619.593 342.36 621.113 342.49C621.864 342.57 622.618 342.61 623.373 342.61C624.095 342.625 624.817 342.588 625.533 342.5C626.214 342.448 626.886 342.311 627.533 342.09C628.138 341.952 628.713 341.708 629.233 341.37C629.741 341.129 630.197 340.789 630.573 340.37C630.963 340.073 631.283 339.694 631.513 339.26C632.013 338.49 632.293 338.04 632.293 338.04C632.293 338.04 632.143 338.66 631.823 339.78C631.668 340.402 631.411 340.993 631.063 341.53C630.752 342.197 630.322 342.8 629.793 343.31L628.993 344.15C628.703 344.38 628.383 344.54 628.063 344.75C627.433 345.188 626.728 345.506 625.983 345.69C624.465 346.134 622.877 346.284 621.303 346.13C619.698 345.942 618.12 345.566 616.603 345.01C615.213 344.496 613.874 343.854 612.603 343.09C611.191 342.308 609.866 341.376 608.653 340.31V340.31Z" fill="#79331A"/>
<path d="M504.583 165.53C504.583 165.53 652.093 203.75 684.833 178.42C602.083 170.69 509.693 150.18 509.693 150.18L504.583 165.53Z" fill="#973E20"/>
<path d="M685.883 191.44L684.833 178.44C684.123 178.844 683.376 179.179 682.603 179.44C665.523 185.44 607.823 175.84 556.333 165.19H556.183C539.323 161.71 523.183 158.1 509.263 154.92L508.263 154.7C483.493 149 457.343 142.7 457.343 142.7C458.953 117.47 467.263 73.1604 494.803 50.6404C552.393 3.57038 646.673 63.7504 693.023 101.5C726.503 128.67 685.883 191.44 685.883 191.44Z" fill="#D8D8D7"/>
<path d="M682.603 179.43C665.523 185.43 607.823 175.83 556.333 165.18H556.183C532.653 160.11 513.643 155.88 509.263 154.91L508.263 154.69C508.263 154.69 504.463 149.63 507.913 150.35C507.913 150.35 681.453 187.84 694.673 154.68C696.743 160.67 690.303 171.88 682.603 179.43Z" fill="#CCCBCB"/>
<path d="M603.213 284.06C603.213 284.06 629.613 286.99 633.683 276.94C635.873 286.77 618.653 297.77 603.213 284.06Z" fill="#79331A"/>
<path d="M582.433 254.37C582.573 255.028 582.603 255.703 582.523 256.37C582.448 257.055 582.286 257.727 582.043 258.37C581.77 259.134 581.39 259.855 580.913 260.51C580.431 261.181 579.839 261.766 579.163 262.24C578.858 262.48 578.522 262.675 578.163 262.82C577.864 262.985 577.545 263.109 577.213 263.19C576.549 263.389 575.851 263.45 575.163 263.37C575.163 263.37 575.853 262.89 576.673 262.16C577.135 261.767 577.572 261.346 577.983 260.9C578.223 260.68 578.403 260.39 578.633 260.14C578.862 259.882 579.072 259.608 579.263 259.32C580.033 258.244 580.747 257.13 581.403 255.98C582.003 255.08 582.433 254.37 582.433 254.37Z" fill="#77281D"/>
<path d="M639.853 250.55C639.834 251.1 639.916 251.649 640.093 252.17C640.252 252.705 640.481 253.216 640.773 253.69C641.111 254.243 641.518 254.75 641.983 255.2C642.472 255.651 643.029 256.023 643.633 256.3C643.906 256.437 644.195 256.538 644.493 256.6C644.752 256.684 645.021 256.731 645.293 256.74C645.846 256.798 646.404 256.74 646.933 256.57C646.933 256.57 646.313 256.3 645.553 255.85C645.13 255.613 644.722 255.35 644.333 255.06C644.113 254.92 643.923 254.73 643.703 254.57C643.483 254.41 643.293 254.2 643.083 254.02C642.263 253.27 641.513 252.39 640.903 251.72C640.293 251.05 639.853 250.55 639.853 250.55Z" fill="#77281D"/>
<path d="M576.823 288.96C575.392 289.193 573.991 289.578 572.643 290.11C571.302 290.61 570.004 291.218 568.763 291.93C567.413 292.694 566.143 293.592 564.973 294.61C563.932 295.525 563.041 296.599 562.333 297.79C562.023 298.263 561.793 298.783 561.653 299.33C561.495 299.759 561.42 300.214 561.433 300.67C561.356 301.579 561.585 302.487 562.083 303.25C562.163 303.25 562.723 302.13 563.793 300.69C564.375 299.864 565.013 299.079 565.703 298.34C566.023 297.91 566.513 297.51 566.903 297.08C567.332 296.638 567.782 296.218 568.253 295.82C570.083 294.13 572.253 292.5 573.963 291.19C575.673 289.88 576.823 288.96 576.823 288.96Z" fill="#77281D"/>
<path d="M562.143 194.39C562.143 194.39 563.403 194.01 565.643 193.48C567.883 192.95 571.073 192.22 574.933 191.53C576.853 191.18 578.933 190.8 581.163 190.53C583.393 190.26 585.713 189.82 588.163 189.53C593.013 188.92 598.163 188.4 603.403 188.04C606.003 187.87 608.603 187.72 611.173 187.63C613.743 187.54 616.273 187.48 618.713 187.45C621.153 187.42 623.543 187.51 625.793 187.57C628.043 187.63 630.183 187.8 632.143 187.93C634.103 188.06 635.913 188.34 637.503 188.53C639.093 188.72 640.503 189.08 641.623 189.29C642.507 189.487 643.373 189.754 644.213 190.09L645.093 190.42H644.093C643.22 190.371 642.346 190.371 641.473 190.42C640.323 190.52 638.973 190.55 637.393 190.71L632.123 191.22L618.923 192.52C614.083 192.96 608.923 193.38 603.753 193.75C598.583 194.12 593.403 194.38 588.533 194.57C583.663 194.76 579.123 194.84 575.203 194.82C571.283 194.8 568.023 194.73 565.733 194.62C563.443 194.51 562.143 194.39 562.143 194.39Z" fill="#77281D"/>
<path d="M200.553 365.78C195.333 364.04 190.136 362.137 184.963 360.07C183.532 359.467 181.948 359.327 180.433 359.67C179.025 360.012 177.757 360.779 176.8 361.867C175.842 362.955 175.243 364.31 175.083 365.75C169.683 414.86 177.003 472.86 195.013 503.49C213.023 534.12 223.163 557.3 274.953 567.15L276.903 537.7C243.153 536.39 229.463 514.58 219.423 485.57C209.383 456.56 210.423 419.23 212.873 384.33C213.167 380.31 212.116 376.306 209.886 372.948C207.655 369.59 204.373 367.069 200.553 365.78V365.78Z" fill="#EF6D3E"/>
<path d="M148.773 293.89H103.273V362.95H148.773V293.89Z" fill="#F9E2B4"/>
<path d="M148.773 293.89V331.59C113.203 337.12 103.273 310.2 103.273 310.2V293.89H148.773Z" fill="#F4CC8C"/>
<path d="M178.683 570.93C170.31 575.903 161.023 579.141 151.373 580.45L150.523 580.56C146.901 581.036 143.255 581.31 139.603 581.38C134.094 581.495 128.583 581.261 123.103 580.68C110.223 579.33 97.3431 576.19 84.9431 572.68C74.7031 569.79 63.7231 564.68 60.2731 554.16C57.9931 547.22 59.1931 539.62 59.5931 532.48C60.3931 518.36 62.3031 504.31 62.7631 490.16C63.4931 467.7 63.0031 445.16 59.8331 422.82C57.3431 405.32 55.3831 387.01 49.9431 370.05C49.4031 369.53 48.5031 367.8 48.9431 367.41C50.0331 366.41 78.0931 347.41 92.4231 342.41C99.0431 340.15 101.823 339.21 109.723 338.2L130.433 353.94L145.433 339.8C151.173 340.8 153.153 341.58 159.223 343.73C170.495 347.817 181.175 353.383 190.983 360.28C193.663 362.11 196.373 364.09 199.083 366.21C198.663 375.21 185.873 379.94 196.413 404.62C196.413 404.62 204.623 448.93 198.213 453.18C198.583 454.08 199.213 455.53 199.933 457.45C207.233 476.24 228.273 540.13 178.683 570.93Z" fill="#EF7E56"/>
<path d="M199.923 457.45C192.853 456.11 169.763 460.75 168.433 461.01L198.203 453.18C198.573 454.08 199.183 455.53 199.923 457.45Z" fill="#F05A28"/>
<path d="M103.273 330.67L90.2731 342.6L113.393 367.08C113.825 367.538 114.35 367.898 114.933 368.136C115.516 368.374 116.143 368.484 116.772 368.459C117.401 368.435 118.018 368.276 118.58 367.993C119.143 367.71 119.638 367.311 120.033 366.82L130.433 353.93L112.133 338.23L103.273 330.67Z" fill="#E5E5E5"/>
<path d="M160.433 343.88L148.773 332.4L143.103 339.04L130.433 353.93L143.283 363.84C143.783 364.224 144.36 364.496 144.973 364.639C145.587 364.782 146.224 364.792 146.842 364.669C147.46 364.546 148.045 364.292 148.557 363.925C149.07 363.558 149.498 363.086 149.813 362.54L160.433 343.9V343.88Z" fill="#E5E5E5"/>
<path d="M70.5731 373.05C65.3531 371.31 60.1564 369.41 54.9831 367.35C53.5602 366.743 51.9821 366.6 50.4731 366.94C49.0644 367.284 47.7956 368.053 46.8386 369.143C45.8816 370.232 45.2827 371.589 45.1231 373.03C39.7231 422.13 42.1231 472.5 74.1231 510.76C98.7331 540.98 156.813 564.57 208.603 574.42L210.603 544.97C176.853 543.66 119.993 517.08 100.393 490.97C77.9431 461.89 80.5331 426.45 82.9431 391.55C83.222 387.532 82.1584 383.535 79.9195 380.187C77.6806 376.838 74.3931 374.328 70.5731 373.05Z" fill="#EF6D3E"/>
<path d="M220.543 82.1604V101.16L220.343 103.73V103.83C220.283 104.67 220.343 108.06 220.343 117.5V119.98C220.343 123.42 220.343 127.53 220.343 132.47V276.76C220.34 280.662 219.441 284.512 217.713 288.01V288.01C214.803 293.737 210.23 298.45 204.593 301.53C193.353 307.71 177.013 314.99 158.363 317.78C152.342 318.703 146.252 319.087 140.163 318.93C122.156 318.479 104.714 312.549 90.1631 301.93V301.93C75.5231 288.67 60.5031 269.6 45.4331 242.92L45.3331 242.72C45.3145 242.663 45.2876 242.609 45.2531 242.56C45.2531 242.56 12.3231 256.13 10.2531 210.07C10.2531 210.07 8.34305 182.81 25.5531 188.63H48.5931V82.1604H220.543Z" fill="#F9E2B4"/>
<path d="M140.143 318.97C122.136 318.519 104.694 312.589 90.1431 301.97V301.97C75.5231 288.67 60.5031 269.6 45.4331 242.92L45.3331 242.72C45.3145 242.663 45.2876 242.609 45.2531 242.56C45.2531 242.56 12.3231 256.13 10.2531 210.07C10.2531 210.07 8.34305 182.81 25.5531 188.63H48.5931V155.37H65.0531V217.57H63.1431C63.1431 217.57 78.4331 296.42 140.143 318.97Z" fill="#F4CC8C"/>
<path d="M30.7631 233.67C29.1361 233.56 27.5591 233.063 26.1631 232.22C26.0673 232.169 25.9827 232.099 25.9142 232.015C25.8456 231.931 25.7945 231.834 25.7638 231.729C25.7331 231.625 25.7234 231.516 25.7353 231.408C25.7472 231.3 25.7804 231.195 25.8331 231.1C25.8834 231.005 25.9523 230.921 26.0357 230.852C26.119 230.784 26.2153 230.733 26.3187 230.702C26.422 230.671 26.5305 230.661 26.6378 230.673C26.745 230.685 26.8488 230.718 26.9431 230.77C28.7331 231.77 31.1031 232.64 32.2131 231.47C33.9831 229.6 32.6031 223.07 30.2731 219.24C29.5631 218.07 29.4231 217.09 29.8731 216.33C30.4131 215.41 31.6631 214.99 33.7231 215.07C34.1579 215.104 34.594 215.025 34.9886 214.839C35.3831 214.653 35.7224 214.367 35.9731 214.01C36.1734 213.694 36.2705 213.322 36.2508 212.948C36.2311 212.573 36.0956 212.214 35.8631 211.92C33.0031 208.05 27.5131 201.8 22.8631 203.53C20.7731 204.31 19.5331 205.4 19.1731 206.77C18.5331 209.22 20.8031 211.93 20.8331 211.96C20.9749 212.126 21.0452 212.341 21.0283 212.559C21.0114 212.777 20.9088 212.979 20.7431 213.12C20.5773 213.262 20.362 213.333 20.1444 213.316C19.9269 213.299 19.7249 213.196 19.5831 213.03C19.4631 212.89 16.7331 209.64 17.5831 206.36C18.0831 204.44 19.6631 202.97 22.2831 201.99C27.6631 199.99 33.3531 205.76 37.1731 210.99C37.6062 211.548 37.856 212.226 37.8882 212.932C37.9205 213.637 37.7335 214.335 37.3531 214.93C36.9484 215.53 36.3941 216.013 35.7451 216.332C35.0961 216.652 34.3749 216.796 33.6531 216.75C31.6531 216.69 31.3131 217.14 31.2831 217.2C31.2531 217.26 31.2831 217.75 31.6631 218.42C33.7431 221.83 36.1631 229.72 33.3931 232.64C33.051 232.986 32.6403 233.257 32.1873 233.434C31.7342 233.612 31.2491 233.692 30.7631 233.67Z" fill="#E0BA6E"/>
<path d="M122.773 188.67C121.26 187.507 119.643 186.486 117.943 185.62C116.213 184.748 114.401 184.048 112.533 183.53C111.475 183.248 110.399 183.034 109.313 182.89C108.205 182.721 107.084 182.648 105.963 182.67C104.843 182.666 103.724 182.736 102.613 182.88C101.563 183.07 100.443 183.25 99.4131 183.53C98.3831 183.81 97.4131 184.15 96.5031 184.53C95.5931 184.91 94.8031 185.28 94.0231 185.66C92.7822 186.248 91.5827 186.92 90.4331 187.67L89.0131 188.67C89.186 188.391 89.3729 188.121 89.5731 187.86C90.1917 187.018 90.9294 186.27 91.7631 185.64C92.4372 185.107 93.1417 184.613 93.8731 184.16C96.1151 182.867 98.5594 181.961 101.103 181.48C102.701 181.194 104.32 181.04 105.943 181.02C107.564 181.018 109.182 181.172 110.773 181.48C112.193 181.745 113.585 182.14 114.933 182.66C116.844 183.381 118.632 184.393 120.233 185.66C122.533 187.57 122.753 188.67 122.773 188.67Z" fill="#F7D589"/>
<path d="M150.523 278.86L154.083 279.4L157.673 279.97C158.983 280.16 160.363 280.37 161.753 280.5C162.443 280.5 163.143 280.66 163.823 280.67C164.503 280.68 165.173 280.76 165.823 280.67C166.438 280.679 167.053 280.646 167.663 280.57C168.21 280.533 168.753 280.442 169.283 280.3C169.739 280.213 170.183 280.069 170.603 279.87C170.962 279.761 171.3 279.592 171.603 279.37L172.423 278.82C172.423 278.82 172.233 279.11 171.833 279.64C171.608 279.966 171.319 280.241 170.983 280.45C170.589 280.789 170.144 281.063 169.663 281.26L168.843 281.62C168.563 281.72 168.253 281.79 167.943 281.87C167.291 282.059 166.62 282.18 165.943 282.23C164.5 282.375 163.046 282.375 161.603 282.23C160.184 282.068 158.778 281.811 157.393 281.46C156.189 281.158 155.003 280.784 153.843 280.34C152.697 279.941 151.586 279.446 150.523 278.86V278.86Z" fill="#F7D589"/>
<path d="M69.8331 237.83C69.8533 238.116 69.7995 238.403 69.6769 238.662C69.5543 238.921 69.367 239.145 69.1331 239.31C68.8999 239.475 68.6281 239.576 68.3442 239.604C68.0602 239.632 67.7739 239.586 67.5131 239.47L58.5131 235.56C57.6235 235.169 56.8447 234.563 56.2462 233.797C55.6477 233.031 55.2481 232.128 55.0831 231.17C54.1286 226.562 52.859 222.025 51.2831 217.59C45.9631 206.14 35.5831 188.95 20.8431 187.86C20.8431 187.86 14.9731 167.97 8.98306 144.34C8.98641 144.314 8.98641 144.287 8.98306 144.26C6.81306 135.71 4.63306 126.66 2.70306 117.89C-0.556937 99.5704 -2.29694 76.1404 6.02306 62.7904C23.0231 58.4804 57.5531 74.5305 64.4631 93.5105C65.0031 94.9905 65.0931 104.51 65.0131 116.86C64.9031 133.59 64.4831 155.59 64.4631 170.08L64.7931 168.89L69.8331 237.83Z" fill="#CCCBCB"/>
<path d="M146.433 239.61C146.433 239.61 168.663 244.22 172.813 235.38C173.983 244.49 158.593 253.23 146.433 239.61Z" fill="#F7D589"/>
<path d="M128.813 260.6L131.493 261.6L134.553 262.67L138.503 263.92C141.403 264.78 144.763 265.68 148.353 266.41C149.253 266.6 150.163 266.74 151.093 266.92L153.883 267.35C155.763 267.57 157.663 267.81 159.563 267.87C161.444 267.988 163.33 268.012 165.213 267.94C166.143 267.94 167.053 267.81 167.963 267.78L170.633 267.48L173.213 267.07L175.663 266.55C177.243 266.14 178.753 265.77 180.123 265.29L181.123 264.96L182.123 264.58L183.903 263.91C184.993 263.38 185.973 263.01 186.763 262.63C188.333 261.81 189.263 261.4 189.263 261.4C189.263 261.4 188.513 262.31 187.133 263.79C186.433 264.5 185.553 265.3 184.543 266.2C182.093 268.191 179.406 269.871 176.543 271.2L174.053 272.2C173.193 272.49 172.313 272.76 171.413 273.02C169.565 273.499 167.683 273.834 165.783 274.02C163.819 274.214 161.843 274.258 159.873 274.15C155.9 273.91 151.976 273.147 148.203 271.88C146.394 271.283 144.618 270.589 142.883 269.8C141.203 269.03 139.633 268.2 138.183 267.36C136.733 266.52 135.433 265.69 134.283 264.91C133.133 264.13 132.143 263.36 131.283 262.72C130.425 262.055 129.601 261.348 128.813 260.6V260.6Z" fill="#DA7C56"/>
<path d="M124.003 202.85C124.003 202.85 110.663 175.61 91.5431 202.85C100.493 202.85 104.513 193.2 124.003 202.85Z" fill="#38302A"/>
<path d="M210.283 188.67C208.878 187.518 207.371 186.494 205.783 185.61C204.191 184.744 202.516 184.04 200.783 183.51C199.799 183.23 198.796 183.016 197.783 182.87C196.752 182.702 195.708 182.628 194.663 182.65C193.619 182.64 192.576 182.71 191.543 182.86C190.543 183.05 189.543 183.24 188.543 183.51C187.543 183.78 186.703 184.13 185.823 184.51C184.943 184.89 184.243 185.26 183.513 185.64C182.35 186.267 181.23 186.972 180.163 187.75C179.343 188.33 178.843 188.75 178.843 188.75C179.002 188.472 179.176 188.201 179.363 187.94C179.92 187.106 180.594 186.355 181.363 185.71C181.998 185.172 182.666 184.675 183.363 184.22C184.301 183.66 185.273 183.159 186.273 182.72C187.513 182.223 188.79 181.825 190.093 181.53C191.579 181.24 193.089 181.086 194.603 181.07C196.118 181.068 197.63 181.222 199.113 181.53C200.436 181.806 201.731 182.201 202.983 182.71C204.777 183.445 206.444 184.457 207.923 185.71C210.063 187.6 210.263 188.67 210.283 188.67Z" fill="#F7D589"/>
<path d="M209.223 201.48C209.223 201.48 197.993 179.23 181.903 201.48C190.533 201.48 197.053 194.67 209.223 201.48Z" fill="#38302A"/>
<path d="M220.543 155.37C220.303 106.1 220.543 101.19 220.543 101.16C220.243 107.3 173.543 115.66 167.323 116.64C153.613 118.79 138.323 120.07 124.743 116.64C113.683 113.88 106.623 107.09 97.2031 101.73C82.0231 93.0804 68.4131 99.5104 65.0231 116.81C64.9431 117.18 64.8631 117.56 64.8031 117.96L9.01306 144.34C9.01641 144.314 9.01641 144.287 9.01306 144.26C6.41588 135.598 4.31908 126.794 2.73306 117.89C-0.526939 99.5704 -2.26694 76.1404 6.05306 62.7904C7.91164 59.7044 10.5099 57.1302 13.6131 55.3004C13.6131 55.3004 18.7331 19.5204 79.4331 21.5304C140.133 23.5404 221.723 33.5905 223.333 50.8805C224.943 68.1705 240.053 144.67 220.543 155.37Z" fill="#CCCBCB"/>
<path d="M127.243 171.67C127.243 171.67 126.243 163.59 120.813 162.61C115.383 161.63 90.663 156.36 84.813 162.61C78.963 168.86 77.983 172.27 81.813 171.67C85.643 171.07 121.433 170.06 127.243 171.67Z" fill="#CCCBCB"/>
<path d="M178.833 173.28C178.833 173.28 179.603 165.2 183.743 164.21C187.883 163.22 206.743 157.97 211.233 164.21C215.723 170.45 216.453 173.88 213.533 173.28C210.613 172.68 183.283 171.67 178.833 173.28Z" fill="#CCCBCB"/>
<path d="M127.103 209.09C127.234 209.685 127.261 210.297 127.183 210.9C127.118 211.519 126.977 212.127 126.763 212.71C126.517 213.389 126.181 214.032 125.763 214.62C125.331 215.216 124.804 215.736 124.203 216.16C123.938 216.373 123.645 216.548 123.333 216.68C123.063 216.82 122.778 216.928 122.483 217C121.894 217.18 121.275 217.238 120.663 217.17C120.663 217.17 121.273 216.73 122.013 216.09C122.422 215.737 122.809 215.36 123.173 214.96C123.383 214.77 123.553 214.51 123.753 214.29C123.956 214.06 124.143 213.816 124.313 213.56C124.998 212.594 125.632 211.593 126.213 210.56C126.703 209.72 127.103 209.09 127.103 209.09Z" fill="#F4CC8C"/>
<path d="M178.193 205.67C178.179 206.16 178.253 206.648 178.413 207.11C178.552 207.588 178.754 208.046 179.013 208.47C179.317 208.959 179.68 209.409 180.093 209.81C180.529 210.217 181.025 210.555 181.563 210.81C181.804 210.931 182.06 211.022 182.323 211.08C182.557 211.153 182.799 211.193 183.043 211.2C183.532 211.253 184.026 211.202 184.493 211.05C184.493 211.05 183.953 210.81 183.273 210.41C182.897 210.202 182.536 209.968 182.193 209.71C181.993 209.59 181.823 209.41 181.633 209.27C181.443 209.13 181.263 208.94 181.073 208.78C180.392 208.131 179.744 207.447 179.133 206.73C178.603 206.13 178.193 205.67 178.193 205.67Z" fill="#F4CC8C"/>
<path d="M126.023 250.67C124.755 250.873 123.511 251.209 122.313 251.67C121.118 252.116 119.961 252.657 118.853 253.29C117.651 253.975 116.519 254.776 115.473 255.68C114.551 256.499 113.758 257.453 113.123 258.51C112.85 258.931 112.647 259.394 112.523 259.88C112.364 260.267 112.282 260.682 112.283 261.1C112.219 261.907 112.423 262.712 112.863 263.39C112.933 263.39 113.433 262.39 114.383 261.11C114.902 260.376 115.47 259.678 116.083 259.02C116.363 258.64 116.803 258.28 117.153 257.9C117.531 257.505 117.932 257.131 118.353 256.78C119.983 255.27 121.943 253.78 123.433 252.66C124.923 251.54 126.023 250.67 126.023 250.67Z" fill="#F4CC8C"/>
<path d="M117.213 135.16C117.213 135.16 135.413 133.85 153.473 133.06C165.604 132.711 177.744 133.38 189.763 135.06C189.763 135.06 164.843 135.74 152.993 135.93C141.143 136.12 117.213 135.16 117.213 135.16Z" fill="#F4CC8C"/>
<path d="M117.213 145.97C117.213 145.97 135.433 144.67 153.433 143.87C165.564 143.521 177.704 144.19 189.723 145.87C189.723 145.87 164.803 146.55 152.953 146.74C141.103 146.93 117.213 145.97 117.213 145.97Z" fill="#F4CC8C"/>
<path d="M770.323 401.01C772.563 383.79 790.043 383.85 790.103 383.84C803.943 382.49 807.513 398.38 807.363 412.21C806.183 517.42 768.143 605.78 680.363 610L677.463 574C738.843 574.07 763.333 515.06 770.323 401.01Z" fill="#70B184"/>
<path d="M898.743 312.9H828.033V438.85H898.743V312.9Z" fill="#F9E2B4"/>
<path d="M828.033 312.9V368.13C901.443 377.46 898.743 312.9 898.743 312.9H828.033Z" fill="#F4CC8C"/>
<path d="M777.993 514.72C776.591 511.915 774.807 509.317 772.693 507C771.363 506.17 764.413 502.3 761.693 490.81C758.973 479.32 767.883 465.29 770.633 453.64C773.383 441.99 776.093 427 774.703 416.77C773.493 407.77 776.703 398.83 783.613 391.87C789.091 386.499 795.952 382.753 803.433 381.05C806.009 380.439 808.631 380.041 811.273 379.86C817.22 379.46 822.98 379.127 828.553 378.86C828.553 378.86 827.143 393.16 844.433 395.67C861.723 398.18 885.163 397.59 898.863 378.72C907.933 379.19 911.713 379.33 918.533 379.4C940.243 379.62 953.533 389.21 953.533 389.21C953.533 389.21 956.113 392.08 934.003 445.82C923.363 471.68 925.093 513.93 929.753 550.82C931.836 567.24 936.09 583.31 942.403 598.61C948.923 614.45 956.063 636.05 946.523 638.32C856.063 659.92 787.623 646 783.013 635.93C782.473 625.56 781.413 587.04 783.383 576.72C787.153 556.72 787.633 533.36 777.993 514.72Z" fill="#7FBA92"/>
<path d="M763.943 500.32L764.073 500.45L763.953 500.32H763.943Z" fill="#301D28"/>
<path d="M772.693 507C774.807 509.317 776.591 511.915 777.993 514.72C789.343 517.72 801.833 514.03 812.993 508.29C791.083 515.85 771.363 506.17 772.693 507Z" fill="#70B184"/>
<path d="M897.373 510.26L896.803 510.47L895.193 511.07C894.513 511.32 893.653 511.6 892.713 511.92C891.773 512.24 890.713 512.59 889.493 512.92C886.834 513.702 884.137 514.35 881.413 514.86C879.933 515.13 878.413 515.36 876.833 515.54C875.253 515.72 873.673 515.85 872.073 515.88C871.283 515.88 870.483 515.94 869.683 515.88C868.883 515.82 868.093 515.88 867.303 515.82C865.733 515.75 864.183 515.62 862.673 515.44C861.163 515.26 859.673 515.05 858.333 514.79C857.623 514.68 856.963 514.54 856.333 514.4C855.703 514.26 855.033 514.15 854.433 514C853.233 513.7 852.083 513.47 851.103 513.19C850.123 512.91 849.203 512.73 848.503 512.52C847.803 512.31 847.193 512.17 846.803 512.06L846.183 511.91L846.603 512.27C846.883 512.49 847.283 512.84 847.843 513.27C848.513 513.779 849.211 514.25 849.933 514.68C850.903 515.28 851.905 515.827 852.933 516.32C853.493 516.61 854.123 516.85 854.763 517.13C855.403 517.41 856.083 517.67 856.763 517.92C858.292 518.46 859.851 518.907 861.433 519.26C863.184 519.647 864.957 519.925 866.743 520.09C867.663 520.17 868.593 520.26 869.543 520.26C870.493 520.26 871.433 520.26 872.373 520.26C873.313 520.26 874.263 520.13 875.193 520.08C876.123 520.03 877.053 519.86 877.953 519.71C878.853 519.56 879.753 519.4 880.603 519.19C881.453 518.98 882.313 518.77 883.123 518.53C885.971 517.709 888.71 516.551 891.283 515.08C892.962 514.133 894.532 513.003 895.963 511.71C896.474 511.269 896.946 510.783 897.373 510.26V510.26Z" fill="#70B184"/>
<path d="M959.013 402.59C964.503 551.03 869.603 632.24 732.913 613.3L739.223 581.3C853.903 595.67 924.073 519.57 921.433 393.19C921.349 390.134 922.371 387.151 924.311 384.788C926.251 382.425 928.979 380.842 931.993 380.33H932.183C935.435 379.859 938.75 380.075 941.913 380.965C945.076 381.855 948.017 383.399 950.546 385.497C953.075 387.595 955.135 390.201 956.594 393.145C958.052 396.089 958.876 399.307 959.013 402.59V402.59Z" fill="#70B184"/>
<path d="M1007.53 175.11C1007.53 175.11 1063.43 159.44 1058.07 220.66C1052.71 281.88 978.313 343.66 949.883 295.85C921.453 248.04 1007.53 175.11 1007.53 175.11Z" fill="#CCCBCB"/>
<path d="M739.073 105.24L745.983 243.91L747.213 268.47C747.975 283.669 753.041 298.338 761.821 310.767C770.601 323.196 782.733 332.873 796.803 338.67C814.013 345.76 833.003 351.61 848.393 351.34C851.234 351.311 854.067 351.016 856.853 350.46C857.373 350.37 857.853 350.26 858.373 350.14C864.864 349.28 871.224 347.628 877.313 345.22C878.263 344.84 879.213 344.46 880.143 344.06C918.613 331.94 956.823 306.16 971.143 252.98C971.183 252.688 971.183 252.392 971.143 252.1C983.293 253.7 1004.78 250.71 1007.2 210.57C1007.2 210 1007.27 209.42 1007.3 208.84C1007.3 208.84 1009.72 174.26 987.893 181.65H962.623V91.4804C961.345 90.6246 959.989 89.8913 958.573 89.2904C877.863 51.6904 741.623 97.5204 740.473 98.1104C739.733 98.5004 739.323 101.61 739.073 105.24Z" fill="#F9E2B4"/>
<path d="M848.433 351.31C849.693 350.84 852.803 350.59 856.893 350.43C857.413 350.34 857.893 350.23 858.413 350.11C864.904 349.25 871.264 347.598 877.353 345.19C878.303 344.81 879.253 344.43 880.183 344.03C918.653 331.91 956.863 313.55 971.183 252.95C971.218 252.658 971.218 252.363 971.183 252.07C983.333 253.67 1004.82 250.68 1007.24 210.54C1007.24 209.97 1007.31 209.39 1007.34 208.81C1007.34 208.81 1009.76 174.23 987.933 181.62H976.803C971.063 191.27 951.363 134.16 946.493 151.37C946.493 151.35 979.623 326.56 848.433 351.31Z" fill="#F4CC8C"/>
<path d="M983.563 238.5C985.502 238.37 987.381 237.777 989.043 236.77C989.223 236.624 989.347 236.419 989.393 236.191C989.438 235.963 989.403 235.726 989.293 235.521C989.183 235.316 989.005 235.156 988.789 235.069C988.574 234.981 988.335 234.971 988.113 235.04C985.973 236.19 983.113 237.27 981.823 235.87C979.713 233.64 981.363 225.87 984.143 221.29C984.993 219.89 985.143 218.72 984.613 217.81C983.973 216.72 982.483 216.21 980.023 216.31C979.506 216.35 978.986 216.255 978.517 216.034C978.047 215.813 977.643 215.474 977.343 215.05C977.102 214.674 976.985 214.231 977.008 213.785C977.031 213.338 977.194 212.91 977.473 212.56C980.883 207.93 987.473 200.48 992.973 202.56C995.463 203.49 996.973 204.79 997.373 206.42C998.133 209.34 995.373 212.58 995.373 212.61C995.256 212.701 995.16 212.818 995.093 212.95C995.026 213.083 994.989 213.229 994.986 213.378C994.982 213.526 995.012 213.674 995.073 213.809C995.133 213.945 995.224 214.066 995.337 214.162C995.45 214.258 995.583 214.328 995.727 214.367C995.87 214.405 996.021 214.411 996.167 214.384C996.313 214.357 996.451 214.298 996.572 214.211C996.692 214.124 996.792 214.011 996.863 213.88C997.003 213.72 1000.26 209.88 999.253 205.88C998.653 203.59 996.773 201.88 993.643 200.67C987.223 198.27 980.443 205.16 975.873 211.35C975.358 212.018 975.061 212.829 975.023 213.672C974.986 214.515 975.209 215.349 975.663 216.06C976.145 216.776 976.805 217.352 977.579 217.733C978.353 218.114 979.213 218.285 980.073 218.23C982.473 218.16 982.863 218.7 982.903 218.76C982.943 218.82 982.903 219.42 982.453 220.22C979.973 224.29 977.083 233.7 980.383 237.22C980.792 237.647 981.287 237.982 981.835 238.202C982.384 238.423 982.973 238.525 983.563 238.5V238.5Z" fill="#E0BA6E"/>
<path d="M853.243 251.99C853.243 251.99 819.093 260.99 811.593 250.29C810.793 262.08 835.813 271.07 853.243 251.99Z" fill="#F4CC8C"/>
<path d="M874.553 204.81C876.297 203.097 878.191 201.544 880.213 200.17C882.276 198.789 884.47 197.614 886.763 196.66C888.066 196.132 889.402 195.691 890.763 195.34C892.145 194.953 893.556 194.683 894.983 194.53C896.405 194.344 897.839 194.257 899.273 194.27C900.653 194.35 902.093 194.4 903.443 194.59C904.793 194.78 906.043 195.06 907.303 195.35C908.563 195.64 909.573 196.04 910.633 196.4C912.315 196.988 913.956 197.69 915.543 198.5C916.753 199.09 917.483 199.5 917.493 199.5C917.503 199.5 917.233 199.17 916.653 198.56C915.732 197.59 914.678 196.755 913.523 196.08C912.582 195.512 911.61 194.994 910.613 194.53C909.238 193.981 907.832 193.51 906.403 193.12C904.623 192.703 902.815 192.419 900.993 192.27C898.918 192.152 896.837 192.212 894.773 192.45C892.708 192.708 890.673 193.16 888.693 193.8C886.933 194.358 885.229 195.077 883.603 195.95C881.284 197.169 879.168 198.741 877.333 200.61C874.683 203.4 874.583 204.83 874.553 204.81Z" fill="#F7D589"/>
<path d="M798.873 203.97C797.345 202.065 795.652 200.298 793.813 198.69C791.934 197.065 789.897 195.631 787.733 194.41C786.505 193.736 785.235 193.138 783.933 192.62C782.605 192.07 781.234 191.632 779.833 191.31C778.442 190.956 777.029 190.696 775.603 190.53C774.233 190.45 772.783 190.33 771.423 190.35C770.063 190.37 768.783 190.51 767.503 190.64C766.223 190.77 765.163 191.05 764.073 191.28C762.332 191.668 760.619 192.169 758.943 192.78C757.673 193.22 756.943 193.52 756.943 193.52C757.241 193.223 757.558 192.945 757.893 192.69C758.919 191.833 760.064 191.129 761.293 190.6C762.298 190.151 763.326 189.754 764.373 189.41C765.801 189.03 767.25 188.733 768.713 188.52C772.601 188.036 776.546 188.284 780.343 189.25C782.365 189.75 784.334 190.443 786.223 191.32C787.899 192.088 789.502 193.005 791.013 194.06C793.172 195.551 795.085 197.37 796.683 199.45C798.913 202.55 798.843 203.98 798.873 203.97Z" fill="#F7D589"/>
<path d="M883.003 284.31C883.003 284.31 847.413 290.52 839.003 288.63C830.593 286.74 801.803 286.04 801.513 285.25C805.113 290 823.773 299.61 830.813 299.79C837.853 299.97 875.943 295.61 883.003 284.31Z" fill="#F6F6F6"/>
<path d="M890.253 281.45C890.253 281.45 873.253 287.75 863.103 284.37C852.953 280.99 841.943 277 834.663 285.37C831.663 282.37 821.373 278.22 813.233 282.89C805.563 286.4 801.233 284.47 801.233 284.47C805.053 286.09 840.183 302.09 890.253 281.45Z" fill="#E26C59"/>
<path d="M883.893 283.91C883.893 283.91 862.363 309.05 835.523 308.02C808.683 306.99 801.253 284.47 801.253 284.47C810.103 291.03 818.673 298.24 836.373 297.98C854.073 297.72 883.893 283.91 883.893 283.91Z" fill="#CE5E52"/>
<path d="M825.023 319.6C831.933 320.262 838.906 319.703 845.623 317.95C841.503 322.07 834.373 325.59 825.023 319.6Z" fill="#F4CC8C"/>
<path d="M925.083 93.3704C940.183 94.9904 948.783 114.66 953.633 138.54C958.163 160.91 959.423 186.95 959.633 205.34C959.823 219.44 959.403 229.05 959.403 229.05C963.949 217.412 969.192 206.058 975.103 195.05C978.913 188.05 982.953 184.33 986.433 182.48C991.633 179.7 995.573 180.96 995.573 180.96C1004.7 155.96 989.333 88.3304 986.953 81.8804C986.013 79.3404 981.543 81.6604 975.773 81.9704C949.993 83.3704 892.343 89.8604 925.083 93.3704Z" fill="#D8D8D7"/>
<path d="M915.313 214.46C915.313 214.46 917.833 219.04 871.663 223.46C873.673 220.6 891.013 193.32 915.313 214.46Z" fill="white"/>
<path d="M894.953 204.98C899.251 204.459 903.609 205.152 907.533 206.98V206.98C907.533 206.98 916.203 210.71 919.013 208.89C918.177 211.268 916.829 213.432 915.063 215.23C911.063 212.71 893.873 197.81 871.683 223.55C871.663 223.5 876.933 207.22 894.953 204.98Z" fill="#38302A"/>
<path d="M888.593 213.48C889.083 217.48 893.513 220.13 898.483 219.48C903.453 218.83 907.093 215.16 906.603 211.21C906.113 207.26 901.683 204.56 896.703 205.21C891.723 205.86 888.093 209.53 888.593 213.48Z" fill="#38302A"/>
<path d="M755.433 214.13C755.433 214.13 753.103 218.68 796.433 223.5C794.523 220.59 778.043 193.2 755.433 214.13Z" fill="white"/>
<path d="M774.433 204.82C770.41 204.254 766.309 204.898 762.653 206.67C762.653 206.67 754.533 210.33 751.893 208.49C752.678 210.855 753.956 213.026 755.643 214.86C759.433 212.37 775.433 197.67 796.433 223.5C796.433 223.5 791.363 207.2 774.433 204.82Z" fill="#38302A"/>
<path d="M789.563 216.09C789.133 220.09 785.003 222.7 780.323 222.09C775.643 221.48 772.213 217.71 772.653 213.77C773.093 209.83 777.213 207.16 781.893 207.82C786.573 208.48 789.993 212.15 789.563 216.09Z" fill="#38302A"/>
<path d="M866.623 181.67C866.623 181.67 869.223 167.48 875.703 167.48C882.183 167.48 910.963 169.28 916.883 175.48C922.803 181.68 924.023 183.48 924.023 183.48C924.023 183.48 904.563 176.78 895.323 177.81C886.083 178.84 866.623 181.67 866.623 181.67Z" fill="#38302A"/>
<path d="M953.193 169.67L903.773 151.32L918.533 160.49C918.533 160.49 878.723 172.12 838.973 136.49C799.223 100.86 739.073 169.69 739.073 169.69C739.073 169.69 766.263 91.0604 767.813 90.0304C769.363 89.0004 835.523 62.4204 838.223 63.6104C840.923 64.8004 939.803 132.27 939.803 132.27L953.193 169.67Z" fill="#F4CC8C"/>
<path d="M801.303 181.67C801.303 181.67 799.003 167.48 793.303 167.48C787.603 167.48 762.023 169.28 756.773 175.48C754.499 178.013 752.385 180.685 750.443 183.48C750.443 183.48 767.703 176.78 775.903 177.81C784.103 178.84 801.303 181.67 801.303 181.67Z" fill="#38302A"/>
<path d="M742.333 170.51C741.333 151.29 786.213 118.96 811.543 98.7204C816.231 95.1051 820.718 91.236 824.983 87.1304C839.983 117 957.363 163.95 957.363 163.95C957.363 163.95 993.423 180.51 994.363 180.59C995.743 180.855 997.103 181.216 998.433 181.67C1011.76 191.35 1005.02 225.6 1005.02 225.6C1005.02 225.6 1051.99 164.36 1016.43 80.6704C980.873 -3.01958 900.573 8.30045 821.783 28.3804C743.513 23.2304 727.553 70.6104 717.253 118.5C706.953 166.39 744.933 223.5 744.933 223.5C744.933 223.5 744.203 208.75 743.373 192.15C743.043 184.93 742.673 177.36 742.333 170.51Z" fill="#D8D8D7"/>
<path d="M827.993 86.0904C827.993 86.0904 880.863 154.09 911.073 158.18C853.233 163.07 807.433 100.5 804.653 86.0904C815.293 80.9404 827.993 86.0904 827.993 86.0904Z" fill="#D8D8D7"/>
<path d="M742.333 170.51C741.333 151.29 786.213 118.96 811.543 98.7204C809.623 99.7204 748.273 130.25 742.853 143.72C737.433 157.19 743.153 190.72 743.403 192.11C743.043 184.93 742.673 177.36 742.333 170.51Z" fill="#CCCBCB"/>
<path d="M789.603 46.4304C789.603 46.4304 723.293 55.4304 725.353 145.43C737.023 110.46 732.673 86.6004 789.603 46.4304Z" fill="#E5E5E5"/>
<path d="M867.943 228.86C867.805 229.654 867.805 230.466 867.943 231.26C868.068 232.074 868.3 232.868 868.633 233.62C869.012 234.499 869.506 235.323 870.103 236.07C870.72 236.828 871.456 237.48 872.283 238C872.651 238.258 873.051 238.466 873.473 238.62C873.837 238.787 874.22 238.908 874.613 238.98C875.406 239.171 876.228 239.201 877.033 239.07C877.033 239.07 876.193 238.54 875.183 237.74C874.615 237.307 874.074 236.839 873.563 236.34C873.275 236.072 873.001 235.788 872.743 235.49C872.458 235.2 872.191 234.893 871.943 234.57C870.943 233.31 869.943 231.88 869.213 230.77C868.483 229.66 867.943 228.86 867.943 228.86Z" fill="#F4CC8C"/>
<path d="M800.103 228.13C800.158 228.776 800.097 229.426 799.923 230.05C799.774 230.693 799.538 231.311 799.223 231.89C798.865 232.567 798.418 233.193 797.893 233.75C797.352 234.311 796.724 234.78 796.033 235.14C795.72 235.324 795.383 235.465 795.033 235.56C794.734 235.674 794.421 235.748 794.103 235.78C793.456 235.873 792.798 235.842 792.163 235.69C792.163 235.69 792.873 235.32 793.733 234.75C794.211 234.443 794.672 234.109 795.113 233.75C795.364 233.56 795.601 233.353 795.823 233.13C796.069 232.917 796.302 232.69 796.523 232.45C797.377 231.542 798.185 230.591 798.943 229.6C799.603 228.74 800.103 228.13 800.103 228.13Z" fill="#F4CC8C"/>
<path d="M884.653 270.52C886.353 270.703 888.029 271.065 889.653 271.6C891.266 272.099 892.835 272.732 894.343 273.49C895.986 274.297 897.541 275.272 898.983 276.4C900.269 277.41 901.39 278.614 902.303 279.97C902.705 280.504 903.013 281.103 903.213 281.74C903.446 282.24 903.582 282.78 903.613 283.33C903.758 284.392 903.547 285.471 903.013 286.4C902.913 286.4 902.183 285.12 900.833 283.49C900.092 282.559 899.29 281.677 898.433 280.85C898.033 280.38 897.433 279.94 896.933 279.46C896.402 278.964 895.845 278.496 895.263 278.06C892.993 276.19 890.263 274.41 888.263 272.98C886.263 271.55 884.653 270.52 884.653 270.52Z" fill="#F4CC8C"/>
</g>
</svg>
