<svg xmlns="http://www.w3.org/2000/svg" viewBox="0 0 1080 1080"><defs><style>.cls-1{fill:#b283b4;}.cls-2{fill:#8e3321;}.cls-3{fill:#77281d;}.cls-4{fill:#a870a9;}.cls-5{fill:#9f5c9f;}.cls-6{fill:#e5e5e5;}.cls-7{fill:#a54423;}.cls-8{fill:#973e20;}.cls-9{fill:#552113;}.cls-10{fill:#fff;}.cls-11{fill:#38302a;}.cls-12{fill:#d8d8d7;}.cls-13{fill:#e07670;}.cls-14{fill:#f6f6f6;}.cls-15{fill:#cccbcb;}.cls-16{fill:#cc8b36;}.cls-17{opacity:0.2;}.cls-18{fill:#faaf40;}.cls-19{fill:#f9e075;}.cls-20{fill:#79331a;}.cls-21{fill:#ef725e;}.cls-22{fill:#fe7d60;}.cls-23{fill:#301d28;}.cls-24{fill:#4c423b;}.cls-25{fill:#ef6d3e;}.cls-26{fill:#f9e2b4;}.cls-27{fill:#f4cc8c;}.cls-28{fill:#ef7e56;}.cls-29{fill:#f05a28;}.cls-30{fill:#e0ba6e;}.cls-31{fill:#f7d589;}.cls-32{fill:#da7c56;}.cls-33{fill:#70b184;}.cls-34{fill:#7fba92;}.cls-35{fill:#e26c59;}.cls-36{fill:#ce5e52;}</style></defs><g id="Isolation_Mode" data-name="Isolation Mode"><path class="cls-1" d="M439.84,956.36q-7.35-2.46-14.64-5.36a6.91,6.91,0,0,0-4.23-.38,6.61,6.61,0,0,0-5,5.71c-5.07,46.1,1.8,100.56,18.7,129.32s26.44,50.52,75.06,59.77l1.83-27.65c-31.68-1.23-44.54-21.71-54-49s-8.41-62.28-6.15-95A17,17,0,0,0,439.84,956.36Z"/><rect class="cls-2" x="348.51" y="888.86" width="42.72" height="64.84"/><path class="cls-3" d="M391.22,888.86v35.39c-33.39,5.2-42.71-20.08-42.71-20.08V888.86Z"/><path class="cls-4" d="M419.31,1149a68,68,0,0,1-25.65,8.94l-.79.11a94,94,0,0,1-10.25.77,120.46,120.46,0,0,1-15.49-.67c-12.09-1.26-24.19-4.2-35.83-7.5-9.62-2.71-19.92-7.49-23.17-17.39-2.13-6.52-1-13.65-.63-20.35.75-13.26,2.54-26.45,3-39.73.68-21.09.22-42.3-2.76-63.24-2.34-16.42-4.17-33.61-9.28-49.53-.51-.5-1.35-2.11-.93-2.48,1-.92,27.36-18.81,40.82-23.45a65.83,65.83,0,0,1,16.24-4L374,945.23,388.08,932c5.39.95,7.25,1.67,12.95,3.7a127,127,0,0,1,29.82,15.53c2.51,1.72,5.06,3.58,7.6,5.57-.39,8.46-12.4,12.89-2.5,36.06,0,0,7.71,41.61,1.69,45.6.34.84.91,2.2,1.61,4C446.11,1060.07,465.87,1120.05,419.31,1149Z"/><path class="cls-5" d="M439.25,1042.42c-6.64-1.25-28.32,3.1-29.56,3.35l27.95-7.35C438,1039.26,438.55,1040.62,439.25,1042.42Z"/><path class="cls-6" d="M348.51,923.37l-12.23,11.2,21.71,23a4.14,4.14,0,0,0,6.23-.25L374,945.23,356.8,930.49Z"/><path class="cls-6" d="M402.17,935.79,391.22,925l-5.32,6.23-11.92,14,12.07,9.3a4.12,4.12,0,0,0,6.12-1.22l10-17.5Z"/><path class="cls-1" d="M317.8,963.18q-7.35-2.45-14.63-5.35a6.94,6.94,0,0,0-4.24-.38,6.63,6.63,0,0,0-5,5.71c-5.07,46.1-2.83,93.39,27.24,129.32,23.1,28.37,77.64,50.51,126.26,59.76l1.84-27.65c-31.69-1.22-85.08-26.19-103.47-50.65-21.08-27.31-18.65-60.57-16.39-93.34A17.09,17.09,0,0,0,317.8,963.18Z"/><path class="cls-7" d="M291.25,694.86v99.38c3.4,5.41,1.88,12.1,2.26,18.32.52,8.54.84,17.51,3.08,25.8,1.81,6.75,5.88,13.14,10.05,19.71,4.91,7.73,36.36,44.09,40.54,44.73,37.13,5.63,89.53,22.07,93.81-13.27,4.4-36.31,19.12-194.67,19.12-194.67Z"/><path class="cls-8" d="M347.18,902.8c-4.18-.64-32.25-7.82-43.05-33.35,0,0-6.93-22-7-22s-40.46,12.92-42.47-30.91c0,0-1.81-25.93,14.56-20.38h22V763l22.24-19.7S313.47,875.26,347.18,902.8Z"/><path class="cls-9" d="M274.28,838.94a9.66,9.66,0,0,1-4.37-1.38.79.79,0,0,1-.32-1.06.78.78,0,0,1,1.06-.32c1.71.92,4,1.78,5,.66,1.69-1.77.38-8-1.85-11.62a2.67,2.67,0,0,1-.37-2.78c.51-.87,1.7-1.27,3.66-1.19a2.4,2.4,0,0,0,2.14-1,1.7,1.7,0,0,0-.11-2c-2.71-3.69-7.93-9.63-12.35-8-2,.75-3.17,1.78-3.51,3.08-.61,2.33,1.55,4.91,1.57,4.94a.78.78,0,1,1-1.19,1c-.11-.13-2.7-3.22-1.9-6.33.48-1.83,2-3.23,4.48-4.16,5.11-1.91,10.52,3.58,14.16,8.52a3.25,3.25,0,0,1,.17,3.75,3.94,3.94,0,0,1-3.52,1.73c-1.91-.06-2.22.37-2.25.42s0,.53.36,1.17c2,3.24,4.28,10.75,1.65,13.52A3.33,3.33,0,0,1,274.28,838.94Z"/><path class="cls-2" d="M358.43,791s-1.67-.45-4.08-1c-1.22-.25-2.63-.51-4.14-.72-.76-.08-1.54-.18-2.33-.22a21.13,21.13,0,0,0-2.39-.07c-.8,0-1.59.06-2.39.07s-1.57.15-2.32.25-1.47.24-2.19.34-1.32.29-1.94.41c-1.28.22-2.2.52-3,.66l-1.23.26a6.77,6.77,0,0,1,.62-.47,9.58,9.58,0,0,1,2.06-1.14c.51-.22,1.08-.46,1.74-.69s1.5-.42,2.36-.62,1.89-.34,2.92-.46,2.19-.2,3.33-.17a32.73,32.73,0,0,1,3.33.16,28.85,28.85,0,0,1,2.95.44,21.87,21.87,0,0,1,4.16,1.29A6.17,6.17,0,0,1,358.43,791Z"/><path class="cls-10" d="M334.46,802.39s.19,12.77,11.81,12.77,17.07-10.58,10.55-14C350.66,797.85,341.27,797,334.46,802.39Z"/><path class="cls-11" d="M359.55,804.38s-.36-.29-1-.72-1.56-1-2.67-1.66c-.55-.32-1.18-.6-1.82-.91s-1.35-.54-2.06-.79l-1.1-.32c-.38-.1-.77-.13-1.15-.22a18.32,18.32,0,0,0-2.36-.26c-.8,0-1.6,0-2.4.09s-1.62.13-2.38.36-1.53.33-2.25.52-1.38.45-2,.63-1.23.39-1.75.59-1,.34-1.37.47c-.79.25-1.27.38-1.27.38s.28-.33.82-.89c.27-.27.6-.62,1-1a7.83,7.83,0,0,1,1.45-1.16c.58-.38,1.22-.8,1.92-1.21s1.56-.71,2.43-1a18.42,18.42,0,0,1,2.84-.75,21.46,21.46,0,0,1,3.13-.22,16,16,0,0,1,3.12.46,13.24,13.24,0,0,1,2.8,1,12.85,12.85,0,0,1,2.25,1.39,10.31,10.31,0,0,1,1.66,1.52,9.39,9.39,0,0,1,1.12,1.43,8.48,8.48,0,0,1,.67,1.19A5,5,0,0,1,359.55,804.38Z"/><path class="cls-11" d="M350.77,805.55c0,4.56-2.9,8.26-6.49,8.26s-6.49-3.7-6.49-8.26,2.9-8.25,6.49-8.25S350.77,801,350.77,805.55Z"/><path class="cls-10" d="M419.77,801.65s.16,11.21,10,11.21,14.4-9.29,8.9-12.29C433.43,797.66,425.51,796.9,419.77,801.65Z"/><path class="cls-11" d="M440.93,803.39s-.3-.25-.85-.63a26,26,0,0,0-2.25-1.45c-.47-.28-1-.53-1.53-.81s-1.15-.47-1.74-.69l-.93-.28c-.32-.09-.65-.11-1-.19a14.6,14.6,0,0,0-2-.23c-.68,0-1.36,0-2,.08s-1.36.11-2,.31-1.29.3-1.9.46-1.17.39-1.71.56a12.71,12.71,0,0,0-1.48.51c-.43.17-.83.3-1.16.42-.66.22-1.06.33-1.06.33s.23-.3.68-.78c.23-.24.51-.55.85-.86a6.8,6.8,0,0,1,1.23-1c.49-.34,1-.71,1.62-1.06a20.64,20.64,0,0,1,2.05-.92,16.46,16.46,0,0,1,2.4-.66,17.51,17.51,0,0,1,2.63-.19,12.75,12.75,0,0,1,2.64.4,11.42,11.42,0,0,1,2.36.89,10.25,10.25,0,0,1,1.89,1.22,10.65,10.65,0,0,1,2.35,2.59,7.39,7.39,0,0,1,.56,1.05A4.73,4.73,0,0,1,440.93,803.39Z"/><path class="cls-11" d="M433.53,804.42c0,4-2.45,7.25-5.48,7.25s-5.47-3.24-5.47-7.25,2.45-7.25,5.47-7.25S433.53,800.42,433.53,804.42Z"/><path class="cls-2" d="M439.66,791s-1.25-.45-3-1c-.91-.25-2-.51-3.08-.72-.57-.08-1.15-.18-1.73-.22A11.78,11.78,0,0,0,430,789c-.6,0-1.19.06-1.78.07s-1.17.15-1.73.25-1.09.24-1.63.34-1,.29-1.44.41c-1,.22-1.64.52-2.23.66l-.91.26a5.91,5.91,0,0,1,.46-.47,6.93,6.93,0,0,1,1.53-1.14c.39-.22.81-.46,1.3-.69s1.12-.42,1.75-.62,1.41-.34,2.18-.46a22.28,22.28,0,0,1,2.48-.17,18,18,0,0,1,2.47.16,16.14,16.14,0,0,1,2.2.44,13.28,13.28,0,0,1,3.09,1.29A5,5,0,0,1,439.66,791Z"/><path class="cls-12" d="M262.05,675.34c-2.76,16.44,2.49,46.23,5.2,55.08,5.89,29.35,5.73,66.88,5.73,66.88,14,.9,12,14.44,17.09,23.84,0,.07,5.29,3.92,6.08,6.12,0,0,0-2.29,0-3,0-5.84-1.29-52.53,8.73-56.81h0a1.63,1.63,0,0,1,.37-.13l3.58-1a6.53,6.53,0,0,0,5.18-6.07V717.9S262.37,673.81,262.05,675.34Z"/><path class="cls-11" d="M295.33,828.27l0,0Z"/><polygon class="cls-3" points="372.21 865.43 372.05 868.22 365.88 863.62 365.06 862.27 367.18 863.59 372.21 865.43"/><path class="cls-3" d="M404,869s-.42-5.18-4.25-4.87-27.41,2.9-34.67-1.81c9.57,7.51,46.81,14.12,58.45,6.62.48-.31.42-.9.82-1.26C424.33,867.63,405.22,858.71,404,869Z"/><path class="cls-13" d="M422.53,868a74.67,74.67,0,0,1-14.56,2,160.38,160.38,0,0,1-23-.69,51.44,51.44,0,0,1-12.34-3.21c-.12,1-.27,2.05-.41,3.07l.38.3.18.13a50.1,50.1,0,0,0,5.4,3.59,58.09,58.09,0,0,0,25.18,7.6,20.14,20.14,0,0,0,15.63-6l.56-.54a30.79,30.79,0,0,0,2.43-2.66c.21-.25.39-.49.56-.72Z"/><path class="cls-14" d="M422.53,867.73c-7.31.78-35.35,3.3-50.77-2v3c2.28,1,23.1,10,50.21,2.89.21-.26.39-.49.56-.72Z"/><path class="cls-2" d="M365.06,862.27s27.16,22.88,46.26,15.42c5.12-2.48,13-10.06,13-10.06S422,888,406.66,889.34C384.72,891.26,372.37,878.37,365.06,862.27Z"/><polygon class="cls-15" points="365.81 783.12 363.26 771.36 324.44 772.54 318.56 783.12 365.81 783.12"/><polygon class="cls-15" points="421.85 783.12 423.77 771.36 453.04 772.54 457.48 783.12 421.85 783.12"/><path class="cls-12" d="M287.25,811.67l13.66,45.9,9,5s-12-87.31-8.53-91.22C292.69,776.46,287.25,811.67,287.25,811.67Z"/><path class="cls-15" d="M401.81,855.92c-1.1.47-11-4.51-12.91-4.86-9-1.63-21.11-3.38-28,4.26-5.93,6.6-3.3,15.81-3.53,23.86-.66,22.93,4.82,25.78,4.82,25.78s44.47,19.71,68.18,3.76C434.48,890.42,455.39,832.65,401.81,855.92Zm20,48.74c-4.49,1.57-28,7.06-53.1-4.7,0,0-8.63-39.21-2.94-40.58s31.17,2.55,36.66,1.18,23.34-4.78,25.58,2S426.33,903.09,421.85,904.66Z"/><path class="cls-12" d="M397.27,908.78l3-12.23H404s1.31,11.9,5.75,12.23C401,909.76,397.27,908.78,397.27,908.78Z"/><path class="cls-9" d="M389.78,893.31l3.38.52,3.42.54c1.24.18,2.56.37,3.88.5.66,0,1.32.15,2,.16s1.28.09,1.89,0a12.22,12.22,0,0,0,1.75-.1,7.63,7.63,0,0,0,1.54-.25,5.48,5.48,0,0,0,1.26-.41,3.42,3.42,0,0,0,.92-.47l.78-.53s-.18.28-.56.78a2.87,2.87,0,0,1-.81.77,4.41,4.41,0,0,1-1.26.77l-.77.35c-.27.09-.56.15-.86.23a9.54,9.54,0,0,1-1.9.35,21,21,0,0,1-4.12,0,30.54,30.54,0,0,1-7.38-1.79A20.72,20.72,0,0,1,389.78,893.31Z"/><path class="cls-8" d="M314.05,718s8.8-12.25,18.38-7.71c18.34,8.68,99.3,21.73,124.5.05.51-7.43,2.52-11.57,2.52-11.57l-150.95-2.2Z"/><path class="cls-12" d="M466.51,695.47c-.81,1.09-2.42,3.19-2.42,3.2-5,6.39-4.23,4.71-5.38,6.2-4.71,6.13-78.07,14.71-107.94,1.64-19.72-8.63-31.19,16.92-36.72,22.74l-4.11,5.65s8.56,5-46.8-29c-13.68-65.45,46.38-123,134.51-114.45C481.23,599.58,481.53,675.1,466.51,695.47Z"/><path class="cls-15" d="M446.31,609.82c38.64,28.39,34.1,79.76,12.4,96-6.19,4.63-78.07,14.71-107.94,1.64-19.72-8.62-31.19,16.93-36.72,22.74.12-.54,5.33-39.56,44.47-34.27C445.48,707.67,476.93,648.53,446.31,609.82Z"/><path class="cls-3" d="M359.48,816.25a4.77,4.77,0,0,1-.09,1.61,6.69,6.69,0,0,1-.53,1.56,7.11,7.11,0,0,1-1.05,1.6,5.87,5.87,0,0,1-1.51,1.23,3.49,3.49,0,0,1-.81.38,3.07,3.07,0,0,1-.78.22,4.23,4.23,0,0,1-1.62,0s.58-.33,1.28-.84a13.38,13.38,0,0,0,1.12-.9,7.18,7.18,0,0,0,.57-.54,6.4,6.4,0,0,0,.56-.6,29.67,29.67,0,0,0,1.93-2.46C359.07,816.77,359.48,816.25,359.48,816.25Z"/><path class="cls-3" d="M418.92,814a3.74,3.74,0,0,0,.07,1.28,5.41,5.41,0,0,0,.42,1.25,5.7,5.7,0,0,0,.84,1.29,4.87,4.87,0,0,0,1.21,1,2.63,2.63,0,0,0,.66.31,2.39,2.39,0,0,0,.62.17,3.32,3.32,0,0,0,1.3,0s-.47-.26-1-.67a10.11,10.11,0,0,1-.9-.72c-.16-.12-.3-.29-.46-.43s-.29-.32-.44-.48c-.59-.65-1.12-1.4-1.55-2S418.92,814,418.92,814Z"/><path class="cls-3" d="M363,852.52a19.7,19.7,0,0,0-4.08.71,24.14,24.14,0,0,0-3.86,1.38,22.54,22.54,0,0,0-3.86,2.2,13,13,0,0,0-2.81,2.79,4.68,4.68,0,0,0-.79,1.41,3.51,3.51,0,0,0-.38,1.27,4,4,0,0,0,.38,2.52c.08,0,.72-1,1.86-2.29a23.05,23.05,0,0,1,2-2.06c.34-.38.85-.71,1.26-1.09a16.11,16.11,0,0,1,1.4-1.08c1.9-1.44,4.15-2.79,5.86-3.88S363,852.52,363,852.52Z"/><path class="cls-16" d="M264,795.43,324.54,791l-2,14.6-39.13,1.29S275.7,796.08,264,795.43Z"/><g class="cls-17"><polygon class="cls-14" points="358.44 790.34 342.19 827.26 346.74 828.25 361.63 790.95 358.44 790.34"/><polygon class="cls-14" points="365.06 792.18 350.77 828.25 355.55 828.27 369.62 794.02 365.06 792.18"/></g><g class="cls-17"><polygon class="cls-14" points="442.19 790.34 425.94 827.26 430.5 828.25 445.39 790.95 442.19 790.34"/><polygon class="cls-14" points="448.82 792.18 434.53 828.25 439.3 828.27 453.38 794.02 448.82 792.18"/></g><path class="cls-18" d="M377.14,800.57l-1.78-7.52s-10.9-7.88-30.06-5.92-27.14,1.25-29.67,1.26-2.79,6.09-.89,6.73,5.83,1.9,5.83,4.94-3.42,28.79,28.92,29.93S377.14,800.57,377.14,800.57Zm-27.27,25.75c-26.12-.72-24.9-20.4-23.43-28.06a4.91,4.91,0,0,1,3.54-3.82c22-6,34.79-1.49,39.37.81a4.91,4.91,0,0,1,2.55,3.16C373.69,805.25,377.26,827.06,349.87,826.32Z"/><path class="cls-19" d="M322.57,792.18a1.84,1.84,0,0,1-1.84,1.84h-2.41a1.84,1.84,0,1,1,0-3.68h2.41A1.84,1.84,0,0,1,322.57,792.18Z"/><path class="cls-18" d="M434.16,830c29.12-1.14,26-26.88,26-29.93s3.54-4.31,5.25-4.94,1.49-6.72-.8-6.73-9.47.7-26.72-1.26-27.07,5.92-27.07,5.92l-1.6,7.52S405,831.13,434.16,830ZM414,798.41a4.84,4.84,0,0,1,2.3-3.16c4.12-2.3,15.6-6.79,35.45-.81a4.75,4.75,0,0,1,3.19,3.82c1.32,7.66,2.42,27.34-21.1,28.06C409.15,827.06,412.37,805.25,414,798.41Z"/><path class="cls-19" d="M458.4,792.18a1.76,1.76,0,0,0,1.66,1.84h2.17a1.85,1.85,0,0,0,0-3.68h-2.17A1.75,1.75,0,0,0,458.4,792.18Z"/><path class="cls-18" d="M375.36,793.05s18.31-11.37,35.5,0a17.88,17.88,0,0,1-1.1,9.17s-16-16.72-32.46,0C374.76,796.11,375.36,793.05,375.36,793.05Z"/><path class="cls-20" d="M382.08,841.89s27.82,8.72,34.19-2.65C416.69,851.58,396,861.53,382.08,841.89Z"/><path class="cls-3" d="M348.7,745s5.79-1.24,14.55-2.32c4.37-.57,9.49-1.1,15-1.52,2.75-.19,5.59-.44,8.48-.56l8.77-.37,8.78-.1c2.89,0,5.75.09,8.51.16,5.52.19,10.68.58,15.09,1.15,2.21.27,4.22.62,6,1s3.31.74,4.56,1.11a21.6,21.6,0,0,1,2.84,1l1,.45-1-.2c-.67-.16-1.69-.21-2.94-.35s-2.82-.16-4.59-.23l-6,0-7.05.11-7.89.21-17.14.51-8.73.2c-2.87.09-5.71.08-8.45.14s-5.4.05-7.92.07-4.9,0-7.1,0C354.6,745.4,348.7,745,348.7,745Z"/><path class="cls-3" d="M362,755.55s1.07-.26,3-.62,4.58-.83,7.83-1.25c1.62-.21,3.38-.45,5.24-.62s3.83-.41,5.87-.55c4.07-.31,8.42-.53,12.78-.62,2.17,0,4.35-.07,6.5,0s4.26.08,6.31.16,4,.25,5.9.39,3.65.36,5.28.55,3.14.49,4.46.72,2.47.58,3.4.8a13.08,13.08,0,0,1,2.13.77l.72.31-.8,0a20,20,0,0,0-2.19-.09c-1,0-2.09,0-3.41.08l-4.42.21-11.08.56c-4.05.18-8.37.32-12.71.41s-8.66.12-12.73.08-7.87-.15-11.14-.33-6-.37-7.9-.55S362,755.55,362,755.55Z"/><path class="cls-21" d="M681.86,964.92c-1.9-14.6-16.72-14.55-16.77-14.56-11.74-1.14-14.77,12.33-14.64,24,1,89.22,33.25,164.14,107.72,167.72l2.46-30.49C708.55,1111.66,687.79,1061.63,681.86,964.92Z"/><rect class="cls-8" x="572.96" y="890.21" width="59.96" height="106.8"/><path class="cls-3" d="M632.92,890.21V937c-62.24,7.91-60-46.83-60-46.83Z"/><path class="cls-22" d="M675.36,1061.34a29,29,0,0,1,4.49-6.55c1.12-.7,7-4,9.35-13.72s-5.24-21.64-7.58-31.52S677,987,678.17,978.28c1-7.59-1.71-15.21-7.56-21.11A35.18,35.18,0,0,0,653.79,948a40.55,40.55,0,0,0-6.65-1q-7.57-.51-14.66-.83s1.2,12.11-13.44,14.26-34.54,1.63-46.16-14.37c-7.69.39-10.89.51-16.67.57-18.41.19-29.66,8.32-29.66,8.32s-2.19,2.43,16.56,48c9,21.93,7.56,57.75,3.61,89A158.15,158.15,0,0,1,536,1132.47c-5.52,13.44-11.57,31.75-3.49,33.68,76.71,18.31,134.74,6.51,138.66-2,.45-8.79,1.35-41.46-.32-50.21C667.59,1097,667.18,1077.15,675.36,1061.34Z"/><path class="cls-23" d="M687.27,1049.13l-.11.11.1-.11Z"/><path class="cls-21" d="M679.85,1054.79a29,29,0,0,0-4.49,6.55c-9.63,2.53-20.22-.59-29.7-5.45C664.26,1062.3,681,1054.09,679.85,1054.79Z"/><path class="cls-21" d="M574.13,1057.55l.48.19,1.36.5c.58.22,1.31.45,2.11.73s1.73.56,2.73.85a70,70,0,0,0,6.85,1.65c1.26.23,2.56.43,3.89.58s2.67.26,4,.29c.67,0,1.35.05,2,0s1.34,0,2,0c1.34-.07,2.66-.18,3.93-.33s2.52-.33,3.69-.55c.59-.09,1.16-.21,1.71-.33s1.1-.21,1.61-.34c1-.25,2-.45,2.82-.68s1.61-.39,2.21-.58,1.11-.29,1.44-.38l.53-.13-.36.31c-.24.19-.58.48-1.06.83a19.13,19.13,0,0,1-1.77,1.19,26.67,26.67,0,0,1-2.52,1.39c-.47.25-1,.45-1.55.69s-1.11.46-1.73.67a34,34,0,0,1-4,1.13,32.81,32.81,0,0,1-4.5.71c-.78.07-1.57.14-2.37.14s-1.6,0-2.41,0-1.59-.1-2.39-.15-1.57-.19-2.34-.31-1.52-.27-2.25-.45-1.44-.35-2.13-.55a31.68,31.68,0,0,1-6.92-2.93,22,22,0,0,1-4-2.85A9.51,9.51,0,0,1,574.13,1057.55Z"/><path class="cls-21" d="M521.86,966.26c-4.66,125.87,75.82,194.73,191.72,178.67l-5.35-27.17C611,1130,551.49,1065.45,553.69,958.29a10.75,10.75,0,0,0-9-10.9l-.16,0A19.91,19.91,0,0,0,521.86,966.26Z"/><path class="cls-12" d="M694,873.47c-22.94,40.24-108.75,7-138,11.17-39.83,28.1-89.88,9-113.81-46.5a62.79,62.79,0,0,1-5.08-19.49C433.32,775.07,483.31,750,483.31,750l220.08-2.95s9.24,21.45,36.26,57.73l.72,1C768,842.67,722.34,872.05,694,873.47Z"/><path class="cls-15" d="M694,873.47c-22.94,40.24-108.75,7-138,11.17-39.83,28.1-89.88,9-113.81-46.5a62.79,62.79,0,0,1-5.08-19.49c-1.12-12.64.86-19.19,3.15-23.31,0,0,34,99.22,113.1,56.71,23.12,8,91.6,24.43,117-11.6,34.33,4.66,58.71,13.94,69.34-35.63l.72,1C768,842.67,722.34,872.05,694,873.47Z"/><path class="cls-7" d="M698.17,868.75a85.61,85.61,0,0,1-15.3,30.39c-21.63,26.37-49.59,27.62-82.49,17.57A101.46,101.46,0,0,1,587.75,912a162.43,162.43,0,0,1-52-38c-1.15-1.26-21.2-30.25-19.78-30.64-9.79,2.7-30.91,3.88-35.71-33.91,0,0-4.44-29.29,14.66-24.51l21.54-1.74-6.21-76.8a20.29,20.29,0,0,1,3.3-2.15c66.19-37.61,185.47-8,186.49-7.52,1.56.66,2.65,14.77,2.93,16.41,1.33,7.73,3.17,15.32,3.67,23.16.36,5.6.89,11.16,1.46,16.72a143.23,143.23,0,0,0,4.35,24.62C721.43,808.32,706.52,837.71,698.17,868.75Z"/><path class="cls-8" d="M600.38,916.71A101.46,101.46,0,0,1,587.75,912a162.43,162.43,0,0,1-52-38c-1.15-1.26-21.2-30.25-19.78-30.64-9.79,2.7-30.91,3.88-35.71-33.91,0,0-4.44-29.29,14.66-24.51l9.46-.76c5.55,7.83.83-112.93,37.14-78.69C541.49,705.47,509.94,864.62,600.38,916.71Z"/><path class="cls-20" d="M502.51,833.12a10.25,10.25,0,0,1-4.79-1.1.84.84,0,1,1,.68-1.53c1.9.83,4.38,1.56,5.41.27,1.65-2-.29-8.56-3-12.27-.82-1.13-1-2.11-.64-2.93s1.7-1.51,3.8-1.59a2.6,2.6,0,0,0,2.21-1.26,1.83,1.83,0,0,0-.29-2.11c-3.22-3.71-9.32-9.61-13.9-7.47-2.06,1-3.23,2.18-3.48,3.6-.45,2.54,2.09,5.11,2.11,5.14a.83.83,0,1,1-1.18,1.18c-.13-.12-3.18-3.2-2.58-6.61.34-2,1.83-3.61,4.42-4.83,5.3-2.48,11.56,2.92,15.88,7.88a3.51,3.51,0,0,1,.5,4,4.24,4.24,0,0,1-3.61,2.16c-2.05.1-2.34.59-2.37.64s0,.56.49,1.22c2.39,3.29,5.5,11.11,2.93,14.31A3.56,3.56,0,0,1,502.51,833.12Z"/><path class="cls-12" d="M541.49,705.47c-12.75,2.42-18.72,19.78-21.21,40.47v0c-2.32,19.38-1.59,41.66-.52,57.35.81,12,1.83,20.19,1.83,20.19a267.21,267.21,0,0,0-15.73-27.93c-3.74-5.75-7.43-8.59-10.53-9.93-4.62-2-7.88-.66-7.88-.66-9.52-20.68-10.06-81.31-8.48-87,.62-2.22,4.59-.55,9.53-.69C510.58,696.74,569.15,700.22,541.49,705.47Z"/><path class="cls-20" d="M597,806s-.35-19.22-16.43-21.5-20.11,13.75-20.11,13.75S575.85,790.09,597,806Z"/><path class="cls-10" d="M560.67,798.29s-1.42,12.82,15.15,13.87,26.35-4,18.26-10.19C586,797.19,572.4,794.55,560.67,798.29Z"/><path class="cls-11" d="M583.29,801a7.93,7.93,0,1,1-9.32-6.6A8.08,8.08,0,0,1,583.29,801Z"/><path class="cls-11" d="M563.3,794.4s-7.79,4.67-9.14,1.62c2.1,5.51,3.48,2.66,16.3,1.09,13.25-1.63,23.36,3.49,26,7.41C596.08,803.1,581.73,785.46,563.3,794.4Z"/><path class="cls-11" d="M560.46,797.36s-2.82,3.92-5.16,3.22c1.61,1.71,7-3.36,17.37-3.69A118.82,118.82,0,0,0,560.46,797.36Z"/><path class="cls-20" d="M663.3,799.25s-2.53-17.58,11.8-22,20.38,9.55,20.38,9.55S680.2,781.6,663.3,799.25Z"/><path class="cls-10" d="M695.27,786.82s3.19,11.47-11.76,14.89-24.63.25-18.16-6.57C672,789.58,684,785.15,695.27,786.82Z"/><path class="cls-11" d="M669.35,794a7.49,7.49,0,1,0,7.69-7.56A7.63,7.63,0,0,0,669.35,794Z"/><path class="cls-11" d="M692.28,783.66s7.8,3.1,8.58.12c-1.09,5.34-2.77,2.94-14.7,3.41-12.33.48-20.78,6.66-22.66,10.63C663.69,796.47,674.16,778.25,692.28,783.66Z"/><path class="cls-11" d="M695.31,785.94s3.16,3.15,5.19,2.17c-1.22,1.8-6.9-2-16.39-.78A109.9,109.9,0,0,1,695.31,785.94Z"/><path class="cls-24" d="M597.89,772.57s-1.85-13.4-10.21-12.72-52.71,8.09-41,10.09S597.89,772.57,597.89,772.57Z"/><path class="cls-24" d="M658.39,767.67s-.5-13.5,6.07-14,41.91.43,33.12,4.09S658.39,767.67,658.39,767.67Z"/><path class="cls-14" d="M678.44,853.42s-37.51,24.26-86.06-.6C612,873.14,629,880.49,645.68,880,657.35,879.7,679.08,857,678.44,853.42Z"/><path class="cls-2" d="M678.93,852.85c0-.41-15.4,20.76-33.55,23.44-17.58,3.13-37.86-9.24-53.54-23.84,3.67,5.66,31,39.92,52.13,39C666.66,891.54,679.43,852.71,678.93,852.85Z"/><path class="cls-3" d="M651.27,852.67c-3.19.39-4.62,4.49-5.32,7.65-1.87-2.7-4.62-6-7.11-5.7-3.68,1.86-38.34,2.3-46.67-1.87,5.24,4,21.82,17.28,54.52,12.81.07.61,27.37-6.25,32.24-12.71C675.35,853.68,667.84,850.43,651.27,852.67Z"/><path class="cls-20" d="M630.22,895.64l3.94.73,4,.79c1.45.26,3,.53,4.52.66a21.53,21.53,0,0,0,2.26.12,15.24,15.24,0,0,0,2.16-.11,8.12,8.12,0,0,0,2-.41,5.29,5.29,0,0,0,1.7-.72,4.26,4.26,0,0,0,1.34-1,3.4,3.4,0,0,0,.94-1.11c.5-.77.78-1.22.78-1.22s-.15.62-.47,1.74a5.82,5.82,0,0,1-.76,1.75,6,6,0,0,1-1.27,1.78l-.8.84c-.29.23-.61.39-.93.6a6.3,6.3,0,0,1-2.08.94,12.39,12.39,0,0,1-4.68.44,20.66,20.66,0,0,1-4.7-1.12,23.8,23.8,0,0,1-4-1.92A22.56,22.56,0,0,1,630.22,895.64Z"/><path class="cls-8" d="M526.15,720.86s147.51,38.22,180.25,12.89c-82.75-7.73-175.14-28.24-175.14-28.24Z"/><path class="cls-12" d="M707.45,746.77l-1.05-13a12.86,12.86,0,0,1-2.23,1c-17.08,6-74.78-3.6-126.27-14.25l-.15,0c-16.86-3.48-33-7.09-46.92-10.27l-1-.22c-24.77-5.7-50.92-12-50.92-12,1.61-25.23,9.92-69.54,37.46-92.06,57.59-47.07,151.87,13.11,198.22,50.86C748.07,684,707.45,746.77,707.45,746.77Z"/><path class="cls-15" d="M704.17,734.76c-17.08,6-74.78-3.6-126.27-14.25l-.15,0c-23.53-5.07-42.54-9.3-46.92-10.27l-1-.22s-3.8-5.06-.35-4.34c0,0,173.54,37.49,186.76,4.33C718.31,716,711.87,727.21,704.17,734.76Z"/><path class="cls-20" d="M624.78,839.39s26.4,2.93,30.47-7.12C657.44,842.1,640.22,853.1,624.78,839.39Z"/><path class="cls-3" d="M604,809.7a6.12,6.12,0,0,1,.09,2,8.21,8.21,0,0,1-.48,2,8.49,8.49,0,0,1-1.13,2.14,7.36,7.36,0,0,1-1.75,1.73,4.14,4.14,0,0,1-1,.58,3.88,3.88,0,0,1-.95.37,5.11,5.11,0,0,1-2.05.18s.69-.48,1.51-1.21a15.15,15.15,0,0,0,1.31-1.26c.24-.22.42-.51.65-.76a7.41,7.41,0,0,0,.63-.82,38.8,38.8,0,0,0,2.14-3.34C603.57,810.41,604,809.7,604,809.7Z"/><path class="cls-3" d="M661.42,805.88a4.55,4.55,0,0,0,.24,1.62,6.38,6.38,0,0,0,.68,1.52,7.71,7.71,0,0,0,1.21,1.51,6.34,6.34,0,0,0,1.65,1.1,3.52,3.52,0,0,0,.86.3,2.93,2.93,0,0,0,.8.14,4,4,0,0,0,1.64-.17s-.62-.27-1.38-.72a11.31,11.31,0,0,1-1.22-.79c-.22-.14-.41-.33-.63-.49s-.41-.37-.62-.55c-.82-.75-1.57-1.63-2.18-2.3S661.42,805.88,661.42,805.88Z"/><path class="cls-3" d="M598.39,844.29a20.19,20.19,0,0,0-4.18,1.15,26.1,26.1,0,0,0-3.88,1.82,23.12,23.12,0,0,0-3.79,2.68,13.22,13.22,0,0,0-2.64,3.18,5.12,5.12,0,0,0-.68,1.54A3.57,3.57,0,0,0,583,856a4.09,4.09,0,0,0,.65,2.58c.08,0,.64-1.12,1.71-2.56a22,22,0,0,1,1.91-2.35c.32-.43.81-.83,1.2-1.26a18.37,18.37,0,0,1,1.35-1.26c1.83-1.69,4-3.32,5.71-4.63S598.39,844.29,598.39,844.29Z"/><path class="cls-3" d="M583.71,749.72s1.26-.38,3.5-.91,5.43-1.26,9.29-1.95c1.92-.35,4-.73,6.23-1s4.55-.71,7-1c4.85-.61,10-1.13,15.24-1.49,2.6-.17,5.2-.32,7.77-.41s5.1-.15,7.54-.18,4.83.06,7.08.12,4.39.23,6.35.36,3.77.41,5.36.6,3,.55,4.12.76a16.76,16.76,0,0,1,2.59.8l.88.33h-1a23.32,23.32,0,0,0-2.62,0c-1.15.1-2.5.13-4.08.29l-5.27.51-13.2,1.3c-4.84.44-10,.86-15.17,1.23s-10.35.63-15.22.82-9.41.27-13.33.25-7.18-.09-9.47-.2S583.71,749.72,583.71,749.72Z"/><path class="cls-25" d="M222.12,921.11q-7.83-2.61-15.59-5.71A7.43,7.43,0,0,0,202,915a7.06,7.06,0,0,0-5.35,6.08c-5.4,49.11,1.92,107.11,19.93,137.74s28.15,53.81,79.94,63.66l1.95-29.45c-33.75-1.31-47.44-23.12-57.48-52.13s-9-66.34-6.55-101.24A18.18,18.18,0,0,0,222.12,921.11Z"/><rect class="cls-26" x="124.84" y="849.22" width="45.5" height="69.06"/><path class="cls-27" d="M170.34,849.22v37.7c-35.57,5.53-45.5-21.39-45.5-21.39V849.22Z"/><path class="cls-28" d="M200.25,1126.26a72.6,72.6,0,0,1-27.31,9.52l-.85.11a98.44,98.44,0,0,1-10.92.82,130.8,130.8,0,0,1-16.5-.7c-12.88-1.35-25.76-4.49-38.16-8-10.24-2.89-21.22-8-24.67-18.52-2.28-6.94-1.08-14.54-.68-21.68.8-14.12,2.71-28.17,3.17-42.32.73-22.46.24-45-2.93-67.34-2.49-17.5-4.45-35.81-9.89-52.77-.54-.52-1.44-2.25-1-2.64,1.09-1,29.15-20,43.48-25,6.62-2.26,9.4-3.2,17.3-4.21L152,909.27l15-14.14c5.74,1,7.72,1.78,13.79,3.93a135.47,135.47,0,0,1,31.76,16.55c2.68,1.83,5.39,3.81,8.1,5.93-.42,9-13.21,13.73-2.67,38.41,0,0,8.21,44.31,1.8,48.56.37.9,1,2.35,1.72,4.27C228.8,1031.57,249.84,1095.46,200.25,1126.26Z"/><path class="cls-29" d="M221.49,1012.78c-7.07-1.34-30.16,3.3-31.49,3.56l29.77-7.83C220.14,1009.41,220.75,1010.86,221.49,1012.78Z"/><path class="cls-6" d="M124.84,886l-13,11.93,23.12,24.48a4.41,4.41,0,0,0,6.64-.26L152,909.26l-18.3-15.7Z"/><path class="cls-6" d="M182,899.21l-11.66-11.48-5.67,6.64L152,909.26l12.85,9.91a4.43,4.43,0,0,0,6.53-1.3L182,899.23Z"/><path class="cls-25" d="M92.14,928.38q-7.83-2.61-15.59-5.7a7.36,7.36,0,0,0-4.51-.41,7.07,7.07,0,0,0-5.35,6.09c-5.4,49.1-3,99.47,29,137.73,24.61,30.22,82.69,53.81,134.48,63.66l2-29.45c-33.75-1.31-90.61-27.89-110.21-54-22.45-29.08-19.86-64.52-17.45-99.42A18.18,18.18,0,0,0,92.14,928.38Z"/><path class="cls-26" d="M242.11,637.49v19l-.2,2.57v.1c-.06.84,0,4.23,0,13.67v2.48c0,3.44,0,7.55,0,12.49V832.09a25.45,25.45,0,0,1-2.63,11.25,0,0,0,0,0,0,0v0a31.85,31.85,0,0,1-13.12,13.52c-11.24,6.18-27.58,13.46-46.23,16.25a102.71,102.71,0,0,1-18.2,1.15,88.58,88.58,0,0,1-50-17h0C97.09,844,82.07,824.93,67,798.25l-.1-.2a.6.6,0,0,0-.08-.16s-32.93,13.57-35-32.49c0,0-1.91-27.26,15.3-21.44H70.16V637.49Z"/><path class="cls-27" d="M161.71,874.3a88.58,88.58,0,0,1-50-17h0C97.09,844,82.07,824.93,67,798.25l-.1-.2a.6.6,0,0,0-.08-.16s-32.93,13.57-35-32.49c0,0-1.91-27.26,15.3-21.44H70.16V710.7H86.62v62.2H84.71S100,851.75,161.71,874.3Z"/><path class="cls-30" d="M52.33,789a10.24,10.24,0,0,1-4.6-1.45.82.82,0,0,1-.33-1.12.81.81,0,0,1,1.11-.33c1.79,1,4.16,1.87,5.27.7,1.77-1.87.39-8.4-1.94-12.23-.71-1.17-.85-2.15-.4-2.91.54-.92,1.79-1.34,3.85-1.26a2.51,2.51,0,0,0,2.25-1.06,1.81,1.81,0,0,0-.11-2.09c-2.86-3.87-8.35-10.12-13-8.39-2.09.78-3.33,1.87-3.69,3.24-.64,2.45,1.63,5.16,1.66,5.19a.82.82,0,0,1-1.25,1.07c-.12-.14-2.85-3.39-2-6.67.5-1.92,2.08-3.39,4.7-4.37,5.38-2,11.07,3.77,14.89,9a3.42,3.42,0,0,1,.18,3.94,4.15,4.15,0,0,1-3.7,1.82c-2-.06-2.34.39-2.37.45s0,.55.38,1.22c2.08,3.41,4.5,11.3,1.73,14.22A3.48,3.48,0,0,1,52.33,789Z"/><path class="cls-31" d="M144.34,744a31,31,0,0,0-4.83-3.05,29.52,29.52,0,0,0-5.41-2.09,25.48,25.48,0,0,0-3.22-.64,19.58,19.58,0,0,0-3.35-.22,25.11,25.11,0,0,0-3.35.21c-1.05.19-2.17.37-3.2.65s-2,.62-2.91,1-1.7.75-2.48,1.13A30.25,30.25,0,0,0,112,743l-1.42,1a9.74,9.74,0,0,1,.56-.81,10.79,10.79,0,0,1,2.19-2.22,22.23,22.23,0,0,1,2.11-1.48,23,23,0,0,1,7.23-2.68,29.41,29.41,0,0,1,4.84-.46,25.21,25.21,0,0,1,4.83.46,23.56,23.56,0,0,1,4.16,1.18,19.77,19.77,0,0,1,5.3,3C144.1,742.9,144.32,744,144.34,744Z"/><path class="cls-31" d="M172.09,834.19l3.56.54,3.59.57c1.31.19,2.69.4,4.08.53.69,0,1.39.16,2.07.17s1.35.09,2,0a13.53,13.53,0,0,0,1.84-.1,8.55,8.55,0,0,0,1.62-.27,5.53,5.53,0,0,0,1.32-.43,3.37,3.37,0,0,0,1-.5l.82-.55s-.19.29-.59.82a2.89,2.89,0,0,1-.85.81,4.85,4.85,0,0,1-1.32.81l-.82.36c-.28.1-.59.17-.9.25a9.86,9.86,0,0,1-2,.36,21.7,21.7,0,0,1-4.34,0,32.06,32.06,0,0,1-4.21-.77,31.26,31.26,0,0,1-3.55-1.12A21.73,21.73,0,0,1,172.09,834.19Z"/><path class="cls-15" d="M91.4,793.16a1.67,1.67,0,0,1-.7,1.48,1.65,1.65,0,0,1-1.62.16l-9-3.91a5.89,5.89,0,0,1-3.43-4.39,102.83,102.83,0,0,0-3.8-13.58c-5.32-11.45-15.7-28.64-30.44-29.73,0,0-5.87-19.89-11.86-43.52a.32.32,0,0,0,0-.08c-2.17-8.55-4.35-17.6-6.28-26.37-3.26-18.32-5-41.75,3.32-55.1,17-4.31,51.53,11.74,58.44,30.72.54,1.48.63,11,.55,23.35-.11,16.73-.53,38.73-.55,53.22l.33-1.19Z"/><path class="cls-31" d="M168,794.94s22.23,4.61,26.38-4.23C195.55,799.82,180.16,808.56,168,794.94Z"/><path class="cls-32" d="M150.38,815.93l2.68,1,3.06,1.07,3.95,1.25c2.9.86,6.26,1.76,9.85,2.49.9.19,1.81.33,2.74.51l2.79.43c1.88.22,3.78.46,5.68.52a56.2,56.2,0,0,0,5.65.07c.93,0,1.84-.13,2.75-.16l2.67-.3,2.58-.41,2.45-.52c1.58-.41,3.09-.78,4.46-1.26l1-.33,1-.38,1.78-.67c1.09-.53,2.07-.9,2.86-1.28,1.57-.82,2.5-1.23,2.5-1.23s-.75.91-2.13,2.39c-.7.71-1.58,1.51-2.59,2.41a38.22,38.22,0,0,1-8,5l-2.49,1c-.86.29-1.74.56-2.64.82a36.81,36.81,0,0,1-5.63,1,38.75,38.75,0,0,1-5.91.13,45.28,45.28,0,0,1-11.67-2.27,53,53,0,0,1-5.32-2.08c-1.68-.77-3.25-1.6-4.7-2.44s-2.75-1.67-3.9-2.45-2.14-1.55-3-2.19A32.64,32.64,0,0,1,150.38,815.93Z"/><path class="cls-11" d="M145.57,758.18s-13.34-27.24-32.46,0C122.06,758.18,126.08,748.53,145.57,758.18Z"/><path class="cls-31" d="M231.85,744a30.41,30.41,0,0,0-4.5-3.06,26.91,26.91,0,0,0-5-2.1,22.68,22.68,0,0,0-3-.64,17.11,17.11,0,0,0-3.12-.22,20.28,20.28,0,0,0-3.12.21c-1,.19-2,.38-3,.65s-1.84.62-2.72,1-1.58.75-2.31,1.13a29.07,29.07,0,0,0-3.35,2.11c-.82.58-1.32,1-1.32,1a9.22,9.22,0,0,1,.52-.81,10.54,10.54,0,0,1,2-2.23,19.89,19.89,0,0,1,2-1.49,26.18,26.18,0,0,1,2.91-1.5,25.23,25.23,0,0,1,3.82-1.19,24.81,24.81,0,0,1,4.51-.46,22,22,0,0,1,4.51.46,22.35,22.35,0,0,1,3.87,1.18,18.45,18.45,0,0,1,4.94,3C231.63,742.93,231.83,744,231.85,744Z"/><path class="cls-11" d="M230.79,756.81s-11.23-22.25-27.32,0C212.1,756.81,218.62,750,230.79,756.81Z"/><path class="cls-15" d="M242.11,710.7c-.24-49.27,0-54.18,0-54.21-.3,6.14-47,14.5-53.22,15.48-13.71,2.15-29,3.43-42.58,0-11.06-2.76-18.12-9.55-27.54-14.91-15.18-8.65-28.79-2.22-32.18,15.08-.08.37-.16.75-.22,1.15L30.58,699.67a.32.32,0,0,0,0-.08,235.84,235.84,0,0,1-6.28-26.37c-3.26-18.32-5-41.75,3.32-55.1a21.68,21.68,0,0,1,7.56-7.49s5.12-35.78,65.82-33.77,142.29,12.06,143.9,29.35S261.62,700,242.11,710.7Z"/><path class="cls-15" d="M148.81,727s-1-8.08-6.43-9.06-30.15-6.25-36,0-6.83,9.66-3,9.06S143,725.39,148.81,727Z"/><path class="cls-15" d="M200.4,728.61s.77-8.08,4.91-9.07,23-6.24,27.49,0,5.22,9.67,2.3,9.07S204.85,727,200.4,728.61Z"/><path class="cls-27" d="M148.67,764.42a5.29,5.29,0,0,1,.08,1.81,7.54,7.54,0,0,1-.42,1.81,8,8,0,0,1-1,1.91,6.7,6.7,0,0,1-1.56,1.54,3.71,3.71,0,0,1-.87.52,3.86,3.86,0,0,1-.85.32,4.52,4.52,0,0,1-1.82.17s.61-.44,1.35-1.08a13.42,13.42,0,0,0,1.16-1.13c.21-.19.38-.45.58-.67a7,7,0,0,0,.56-.73,34.29,34.29,0,0,0,1.9-3C148.27,765.05,148.67,764.42,148.67,764.42Z"/><path class="cls-27" d="M199.76,761a4.05,4.05,0,0,0,.22,1.44,5.61,5.61,0,0,0,.6,1.36,7.06,7.06,0,0,0,1.08,1.34,5.8,5.8,0,0,0,1.47,1,3.3,3.3,0,0,0,.76.27,2.71,2.71,0,0,0,.72.12,3.5,3.5,0,0,0,1.45-.15s-.54-.24-1.22-.64a9.32,9.32,0,0,1-1.08-.7c-.2-.12-.37-.3-.56-.44s-.37-.33-.56-.49a27.4,27.4,0,0,1-1.94-2.05C200.17,761.46,199.76,761,199.76,761Z"/><path class="cls-27" d="M147.59,806a18.41,18.41,0,0,0-3.71,1,23.51,23.51,0,0,0-3.46,1.62,21.24,21.24,0,0,0-3.38,2.39,12.17,12.17,0,0,0-2.35,2.83,4.62,4.62,0,0,0-.6,1.37,3.18,3.18,0,0,0-.24,1.22,3.68,3.68,0,0,0,.58,2.29c.07,0,.57-1,1.52-2.28a19.84,19.84,0,0,1,1.7-2.09c.28-.38.72-.74,1.07-1.12a14.4,14.4,0,0,1,1.2-1.12c1.63-1.51,3.59-3,5.08-4.12S147.59,806,147.59,806Z"/><path class="cls-27" d="M138.78,690.49s18.2-1.31,36.26-2.1a216.88,216.88,0,0,1,36.29,2s-24.92.68-36.77.87S138.78,690.49,138.78,690.49Z"/><path class="cls-27" d="M138.78,701.3S157,700,175,699.2a216.88,216.88,0,0,1,36.29,2s-24.92.68-36.77.87S138.78,701.3,138.78,701.3Z"/><path class="cls-33" d="M791.89,956.34c2.24-17.22,19.72-17.16,19.78-17.17,13.84-1.35,17.41,14.54,17.26,28.37-1.18,105.21-39.22,193.57-127,197.79l-2.9-36C760.41,1129.4,784.9,1070.39,791.89,956.34Z"/><rect class="cls-26" x="849.6" y="868.23" width="70.71" height="125.95"/><path class="cls-27" d="M849.6,868.23v55.23c73.41,9.33,70.71-55.23,70.71-55.23Z"/><path class="cls-34" d="M799.56,1070.05a34,34,0,0,0-5.3-7.72c-1.33-.83-8.28-4.7-11-16.19s6.19-25.52,8.94-37.17,5.46-26.64,4.07-36.87c-1.21-9,2-17.94,8.91-24.9A41.45,41.45,0,0,1,825,936.38a48.13,48.13,0,0,1,7.84-1.19q8.92-.6,17.28-1S848.71,948.49,866,951s40.73,1.92,54.43-16.95c9.07.47,12.85.61,19.67.68,21.71.22,35,9.81,35,9.81s2.58,2.87-19.53,56.61c-10.64,25.86-8.91,68.11-4.25,105a187,187,0,0,0,12.65,47.79c6.52,15.84,13.66,37.44,4.12,39.71-90.46,21.6-158.9,7.68-163.51-2.39-.54-10.37-1.6-48.89.37-59.21C808.72,1112.05,809.2,1088.69,799.56,1070.05Z"/><path class="cls-23" d="M785.51,1055.65l.13.13-.12-.13Z"/><path class="cls-33" d="M794.26,1062.33a34,34,0,0,1,5.3,7.72c11.35,3,23.84-.69,35-6.43C812.65,1071.18,792.93,1061.5,794.26,1062.33Z"/><path class="cls-33" d="M918.94,1065.59l-.57.21-1.61.6c-.68.25-1.54.53-2.48.85s-2,.67-3.22,1a82.47,82.47,0,0,1-8.08,1.94c-1.48.27-3,.5-4.58.68s-3.16.31-4.76.34c-.79,0-1.59.06-2.39,0s-1.59,0-2.38-.06c-1.57-.07-3.12-.2-4.63-.38s-3-.39-4.34-.65c-.71-.11-1.37-.25-2-.39s-1.3-.25-1.9-.4c-1.2-.3-2.35-.53-3.33-.81s-1.9-.46-2.6-.67-1.31-.35-1.7-.46l-.62-.15.42.36c.28.22.68.57,1.24,1a22.58,22.58,0,0,0,2.09,1.41,32.21,32.21,0,0,0,3,1.64c.56.29,1.19.53,1.83.81s1.32.54,2,.79a40.57,40.57,0,0,0,4.67,1.34,43,43,0,0,0,5.31.83c.92.08,1.85.17,2.8.17s1.89,0,2.83,0,1.89-.13,2.82-.18,1.86-.22,2.76-.37,1.8-.31,2.65-.52,1.71-.42,2.52-.66a37.26,37.26,0,0,0,8.16-3.45,26.15,26.15,0,0,0,4.68-3.37A11.73,11.73,0,0,0,918.94,1065.59Z"/><path class="cls-33" d="M980.58,957.92c5.49,148.44-89.41,229.65-226.1,210.71l6.31-32C875.47,1151,945.64,1074.9,943,948.52a12.69,12.69,0,0,1,10.56-12.86l.19,0A23.48,23.48,0,0,1,980.58,957.92Z"/><path class="cls-15" d="M1029.1,730.44s55.9-15.67,50.54,45.55-79.76,123-108.19,75.19S1029.1,730.44,1029.1,730.44Z"/><path class="cls-26" d="M760.64,660.57l6.91,138.67,1.23,24.56A80.27,80.27,0,0,0,818.37,894c17.21,7.09,36.2,12.94,51.59,12.67h0a45.63,45.63,0,0,0,8.46-.88c.52-.09,1-.2,1.52-.32l0,0a80.13,80.13,0,0,0,18.94-4.92c.95-.38,1.9-.76,2.83-1.16,38.47-12.12,76.68-37.9,91-91.08a3.25,3.25,0,0,0,0-.88c12.15,1.6,33.64-1.39,36.06-41.53,0-.57.07-1.15.1-1.73,0,0,2.42-34.58-19.41-27.19H984.19V646.81a24.44,24.44,0,0,0-4.05-2.19c-80.71-37.6-216.95,8.23-218.1,8.82C761.3,653.83,760.89,656.94,760.64,660.57Z"/><path class="cls-27" d="M870,906.64h0c1.26-.47,4.37-.72,8.46-.88.52-.09,1-.2,1.52-.32l0,0a80.13,80.13,0,0,0,18.94-4.92c.95-.38,1.9-.76,2.83-1.16,38.47-12.12,76.68-30.48,91-91.08a3.7,3.7,0,0,0,0-.88c12.15,1.6,33.64-1.39,36.06-41.53,0-.57.07-1.15.1-1.73,0,0,2.42-34.58-19.41-27.19H998.37c-5.74,9.65-25.44-47.46-30.31-30.25C968.06,706.68,1001.19,881.89,870,906.64Z"/><path class="cls-30" d="M1005.13,793.83a12.16,12.16,0,0,0,5.48-1.73,1,1,0,0,0-.93-1.73c-2.14,1.15-5,2.23-6.29.83-2.11-2.23-.46-10,2.32-14.58.85-1.4,1-2.57.47-3.48-.64-1.09-2.13-1.6-4.59-1.5a3,3,0,0,1-2.68-1.26,2.14,2.14,0,0,1,.13-2.49c3.41-4.63,10-12.08,15.5-10,2.49.93,4,2.23,4.4,3.86.76,2.92-2,6.16-2,6.19a1,1,0,1,0,1.49,1.27c.14-.16,3.4-4,2.39-8-.6-2.29-2.48-4-5.61-5.21-6.42-2.4-13.2,4.49-17.77,10.68a4.1,4.1,0,0,0-.21,4.71,4.94,4.94,0,0,0,4.41,2.17c2.4-.07,2.79.47,2.83.53s0,.66-.45,1.46c-2.48,4.07-5.37,13.48-2.07,17A4.17,4.17,0,0,0,1005.13,793.83Z"/><path class="cls-27" d="M874.81,807.32s-34.15,9-41.65-1.7C832.36,817.41,857.38,826.4,874.81,807.32Z"/><path class="cls-31" d="M896.12,760.14a40.72,40.72,0,0,1,5.66-4.64,38,38,0,0,1,6.55-3.51,31.61,31.61,0,0,1,4-1.32,25.79,25.79,0,0,1,4.22-.81,30.88,30.88,0,0,1,4.29-.26c1.38.08,2.82.13,4.17.32s2.6.47,3.86.76,2.27.69,3.33,1.05a39.31,39.31,0,0,1,4.91,2.1c1.21.59,1.94,1,1.95,1s-.26-.33-.84-.94a14.17,14.17,0,0,0-3.13-2.48,30.44,30.44,0,0,0-2.91-1.55,39.08,39.08,0,0,0-4.21-1.41,36.73,36.73,0,0,0-5.41-.85,36.19,36.19,0,0,0-6.22.18,33.09,33.09,0,0,0-6.08,1.35,29.73,29.73,0,0,0-5.09,2.15,25.23,25.23,0,0,0-6.27,4.66C896.25,758.73,896.15,760.16,896.12,760.14Z"/><path class="cls-31" d="M820.44,759.3a41.54,41.54,0,0,0-5.06-5.28,37.38,37.38,0,0,0-6.08-4.28,33.92,33.92,0,0,0-3.8-1.79,25.78,25.78,0,0,0-4.1-1.31,32.11,32.11,0,0,0-4.23-.78c-1.37-.08-2.82-.2-4.18-.18s-2.64.16-3.92.29-2.34.41-3.43.64a40.9,40.9,0,0,0-5.13,1.5c-1.27.44-2,.74-2,.74a9.36,9.36,0,0,1,.95-.83,13.81,13.81,0,0,1,3.4-2.09,31.83,31.83,0,0,1,3.08-1.19,38.05,38.05,0,0,1,4.34-.89,31.41,31.41,0,0,1,11.63.73,32.37,32.37,0,0,1,5.88,2.07,30.64,30.64,0,0,1,4.79,2.74,25.23,25.23,0,0,1,5.67,5.39C820.48,757.88,820.41,759.31,820.44,759.3Z"/><path class="cls-14" d="M904.57,839.64s-35.59,6.21-44,4.32-37.2-2.59-37.49-3.38c3.6,4.75,22.26,14.36,29.3,14.54S897.51,850.94,904.57,839.64Z"/><path class="cls-35" d="M911.82,836.78s-17,6.3-27.15,2.92-21.16-7.37-28.44,1c-3-3-13.29-7.15-21.43-2.48-7.67,3.51-12,1.58-12,1.58C826.62,841.42,861.75,857.42,911.82,836.78Z"/><path class="cls-36" d="M905.46,839.24s-21.53,25.14-48.37,24.11-34.27-23.55-34.27-23.55c8.85,6.56,17.42,13.77,35.12,13.51S905.46,839.24,905.46,839.24Z"/><path class="cls-27" d="M846.59,874.93a59.24,59.24,0,0,0,20.6-1.65C863.07,877.4,855.94,880.92,846.59,874.93Z"/><path class="cls-12" d="M946.65,648.7c15.1,1.62,23.7,21.29,28.55,45.17v0c4.53,22.37,5.79,48.41,6,66.8.19,14.1-.23,23.71-.23,23.71a311.35,311.35,0,0,1,15.7-34c3.81-7,7.85-10.72,11.33-12.57,5.2-2.78,9.14-1.52,9.14-1.52,9.13-25-6.24-92.63-8.62-99.08-.94-2.54-5.41-.22-11.18.09C971.56,638.7,913.91,645.19,946.65,648.7Z"/><path class="cls-10" d="M936.88,769.79s2.52,4.58-43.65,9C895.24,775.93,912.58,748.65,936.88,769.79Z"/><path class="cls-11" d="M916.52,760.31a23.18,23.18,0,0,1,12.58,2l0,0s8.67,3.73,11.48,1.91a17.18,17.18,0,0,1-3.95,6.34c-4-2.52-21.19-17.42-43.38,8.32C893.23,778.83,898.5,762.55,916.52,760.31Z"/><path class="cls-11" d="M910.16,768.81c.49,4,4.92,6.65,9.89,6s8.61-4.32,8.12-8.27-4.92-6.65-9.9-6S909.66,764.86,910.16,768.81Z"/><path class="cls-10" d="M777,769.46s-2.33,4.55,41,9.37C816.09,775.92,799.61,748.53,777,769.46Z"/><path class="cls-11" d="M796,760.15A20.46,20.46,0,0,0,784.22,762l0,0s-8.12,3.66-10.76,1.82a17.61,17.61,0,0,0,3.75,6.37C781,767.7,797,753,818,778.83,818,778.83,812.93,762.53,796,760.15Z"/><path class="cls-11" d="M811.13,771.42c-.43,4-4.56,6.61-9.24,6s-8.11-4.38-7.67-8.32,4.56-6.61,9.24-5.95S811.56,767.48,811.13,771.42Z"/><path class="cls-11" d="M888.19,737s2.6-14.19,9.08-14.19,35.26,1.8,41.18,8,7.14,8,7.14,8-19.46-6.7-28.7-5.67S888.19,737,888.19,737Z"/><path class="cls-27" d="M974.76,725l-49.42-18.35,14.76,9.17s-39.81,11.63-79.56-24-99.9,33.2-99.9,33.2,27.19-78.63,28.74-79.66,67.71-27.61,70.41-26.42S961.37,687.6,961.37,687.6Z"/><path class="cls-11" d="M822.87,737s-2.3-14.19-8-14.19-31.28,1.8-36.53,8a81.83,81.83,0,0,0-6.33,8s17.26-6.7,25.46-5.67S822.87,737,822.87,737Z"/><path class="cls-12" d="M763.9,725.84c-1-19.22,43.88-51.55,69.21-71.79h0l0,0a162.32,162.32,0,0,0,13.44-11.59c15,29.87,132.38,76.82,132.38,76.82s36.06,16.56,37,16.64A30.07,30.07,0,0,1,1020,737c13.33,9.68,6.59,43.93,6.59,43.93S1073.56,719.69,1038,636s-115.86-72.37-194.65-52.29c-78.27-5.15-94.23,42.23-104.53,90.12s27.68,105,27.68,105-.73-14.75-1.56-31.35C764.61,740.26,764.24,732.69,763.9,725.84Z"/><path class="cls-12" d="M849.56,641.42s52.87,68,83.08,72.09C874.8,718.4,829,655.83,826.22,641.42,836.86,636.27,849.56,641.42,849.56,641.42Z"/><path class="cls-15" d="M763.9,725.84c-1-19.22,43.88-51.55,69.21-71.79-1.92,1-63.27,31.53-68.69,45s.3,47,.55,48.39C764.61,740.26,764.24,732.69,763.9,725.84Z"/><path class="cls-6" d="M811.17,601.76s-66.31,9-64.25,99C758.59,665.79,754.24,641.93,811.17,601.76Z"/><path class="cls-27" d="M889.51,784.19a7,7,0,0,0,0,2.4,9.35,9.35,0,0,0,.69,2.36,10.76,10.76,0,0,0,1.47,2.45,9,9,0,0,0,2.18,1.93,5.21,5.21,0,0,0,1.19.62,4.83,4.83,0,0,0,1.14.36,6.14,6.14,0,0,0,2.42.09s-.84-.53-1.85-1.33a17.69,17.69,0,0,1-1.62-1.4,11,11,0,0,1-.82-.85,10.14,10.14,0,0,1-.8-.92c-1-1.26-2-2.69-2.73-3.8S889.51,784.19,889.51,784.19Z"/><path class="cls-27" d="M821.67,783.46a5.45,5.45,0,0,1-.18,1.92,7.3,7.3,0,0,1-.7,1.84,8.51,8.51,0,0,1-1.33,1.86,7.23,7.23,0,0,1-1.86,1.39,4.1,4.1,0,0,1-1,.42,3.68,3.68,0,0,1-.93.22,5.19,5.19,0,0,1-1.94-.09s.71-.37,1.57-.94a15.16,15.16,0,0,0,1.38-1,6.85,6.85,0,0,0,.71-.62,8.91,8.91,0,0,0,.7-.68,37,37,0,0,0,2.42-2.85C821.17,784.07,821.67,783.46,821.67,783.46Z"/><path class="cls-27" d="M906.22,825.85a24.19,24.19,0,0,1,5,1.08,30.47,30.47,0,0,1,4.69,1.89,26.42,26.42,0,0,1,4.64,2.91,15.65,15.65,0,0,1,3.32,3.57,5.85,5.85,0,0,1,.91,1.77,4.33,4.33,0,0,1,.4,1.59,4.85,4.85,0,0,1-.6,3.07c-.1,0-.83-1.28-2.18-2.91a27.24,27.24,0,0,0-2.4-2.64c-.4-.47-1-.91-1.5-1.39a19.9,19.9,0,0,0-1.67-1.4c-2.27-1.87-5-3.65-7-5.08S906.22,825.85,906.22,825.85Z"/></g></svg>