<svg id="Layer_1" data-name="Layer 1" xmlns="http://www.w3.org/2000/svg" viewBox="0 0 1080 1080"><defs><style>.cls-1{fill:#ffcdc5;}.cls-2{fill:#f3b8a9;}.cls-3{fill:#ff766b;}.cls-4,.cls-5,.cls-6,.cls-9{fill:none;stroke-miterlimit:10;}.cls-4,.cls-5{stroke:#f3b8a9;stroke-width:8px;}.cls-5,.cls-6,.cls-9{stroke-linecap:round;}.cls-6{stroke:#2c1850;stroke-width:12px;}.cls-7{fill:#eff0f0;}.cls-8{fill:#dadada;}.cls-9{stroke:#eff0f0;stroke-width:22px;}.cls-10{fill:#2e7a8c;}</style></defs><path class="cls-1" d="M469.9,641c8.57-18.85,42.84-106.25,42.84-106.25L639.54,593l-34.27,94.24Z"/><path class="cls-2" d="M513.31,534.63s-9.2,23.46-19.26,48.7c20.53,35.85,80.38,74.39,115.13,94.64l30.93-85.08Z"/><path class="cls-1" d="M659,623.74c-44.5,2.07-125.09-17.14-169.64-109.67C354,467.8,233.41,245.62,437.91,41.13c66.83-66.83,373.56-87.4,373.56,231.33C811.47,656.3,732.64,620.31,659,623.74Z"/><path class="cls-3" d="M641.82,503.79c46.27,12,75.4,17.13,113.1,1.71C739.5,563.76,662.39,563.76,641.82,503.79Z"/><path class="cls-2" d="M688.09,459.24c17.14,3.42,65.12,3.42,70.26-6.86C758.35,484.94,693.23,484.94,688.09,459.24Z"/><path class="cls-4" d="M780.62,520.92c5.14-15.42,8.57-46.26-5.14-65.11"/><path class="cls-4" d="M628.12,572.33c-18.85-18.85-32.56-68.54-32.56-84,24,0,44.55-17.14,46.26-32.56"/><line class="cls-5" x1="533.87" y1="392.41" x2="554.43" y2="375.27"/><path class="cls-5" d="M528.73,365c5.14-3.43,17.13-8.57,27.42-6.85"/><line class="cls-5" x1="732.64" y1="214.2" x2="681.24" y2="226.19"/><line class="cls-5" x1="716.58" y1="200.49" x2="698.03" y2="204.82"/><path class="cls-6" d="M576.71,358.14c25.7-53.13,68.54-36,87.39-18.85"/><path class="cls-6" d="M742.2,323.62c11-35.74,43.56-25.46,52.13-11.75"/><circle class="cls-7" cx="341.95" cy="113.1" r="113.1"/><path class="cls-8" d="M437.32,40.67c-204.2,204.2-84.3,426,50.83,472.74C490.7,452.94,501.31,449,501.31,449c-17.13-87.39-10.28-111.38-3.43-121.66,102-9.42,194.49-84.82,203.92-181.64,29.28,49.23,76.22,78,107.24,85.16C783.61-44.76,501.13-23.14,437.32,40.67Z"/><path class="cls-1" d="M528.73,491.79C487.6,404.4,451.62,346.14,417.35,361.56S408.78,508.93,528.73,491.79Z"/><path class="cls-9" d="M559.81,312.82c25.47-47.22,88.87-45.5,100.86-35.22"/><path class="cls-9" d="M716.92,274c25.47-47.21,74-37.56,86-27.28"/><path class="cls-10" d="M856.88,1063.27c-42.84,24-591.18,20.56-647.73,0,8.57-70.26,94.24-334.15,219.34-370.13,13.7-32.56,8.56-44.56,8.56-53.12,85.68-24,149.08-22.28,227.91,18.85-6.86,34.27-8.57,56.54-8.57,56.54C766.06,775.39,856.88,1063.27,856.88,1063.27Z"/></svg>