<svg xmlns="http://www.w3.org/2000/svg" viewBox="0 0 1080 1080"><defs><style>.cls-1{fill:#b283b4;}.cls-2{fill:#e5b580;}.cls-3{fill:#e29e80;}.cls-4{fill:#a870a9;}.cls-5{fill:#e5e5e5;}.cls-6{fill:#edb99b;}.cls-7{fill:#edd0a7;}.cls-8{fill:#e8bf8e;}.cls-9{fill:#fff;}.cls-10{fill:#564739;}.cls-11{fill:#90795e;}.cls-12{fill:#b29476;}.cls-13{fill:#f6f6f6;}.cls-14{fill:#e7a996;}.cls-15{fill:#7a6551;}</style></defs><g id="Isolation_Mode" data-name="Isolation Mode"><path class="cls-1" d="M770.49,926.12q-20.91-7-41.64-15.25a19.82,19.82,0,0,0-12.06-1.07,18.84,18.84,0,0,0-14.28,16.25c-14.43,131.18,5.14,286.13,53.23,368S831,1437.76,969.3,1464.07l5.22-78.67c-90.15-3.49-126.74-61.78-153.57-139.28S797,1068.91,803.45,975.67A48.54,48.54,0,0,0,770.49,926.12Z"/><rect class="cls-2" x="510.61" y="734.06" width="121.55" height="184.49"/><path class="cls-3" d="M632.16,734.06V834.77c-95,14.79-121.55-57.14-121.55-57.14V734.06Z"/><path class="cls-4" d="M712.08,1474.17c-21.31,13.23-48,21.89-73,25.44-.75.09-1.51.21-2.26.29a265.16,265.16,0,0,1-29.16,2.19,346.49,346.49,0,0,1-44.09-1.88c-34.4-3.6-68.81-12-102-21.35-27.35-7.73-56.68-21.33-65.9-49.47-6.09-18.56-2.89-38.86-1.8-57.93,2.13-37.73,7.22-75.25,8.46-113,1.94-60,.64-120.36-7.84-179.92-6.65-46.73-11.88-95.66-26.41-141-1.45-1.42-3.85-6-2.65-7.06,2.9-2.61,77.87-53.52,116.17-66.72,17.68-6,25.11-8.55,46.2-11.24l55.23,42,40.12-37.77c15.32,2.69,20.61,4.77,36.84,10.52,27.3,9.68,55.66,24,84.85,44.21,7.15,4.9,14.4,10.17,21.62,15.84-1.1,24.08-35.28,36.67-7.11,102.61,0,0,21.93,118.38,4.81,129.74,1,2.4,2.59,6.25,4.59,11.39C788.34,1221.22,844.56,1391.9,712.08,1474.17Z"/><path class="cls-5" d="M510.61,832.25l-34.78,31.87L537.6,929.5a11.77,11.77,0,0,0,17.73-.68l27.77-34.35-48.89-42Z"/><path class="cls-5" d="M663.3,867.61l-31.14-30.67L617,854.69,583.1,894.47l34.33,26.46a11.78,11.78,0,0,0,17.43-3.48l28.48-49.8Z"/><path class="cls-1" d="M423.25,945.55q-20.91-7-41.65-15.25a19.79,19.79,0,0,0-12.05-1.08,18.87,18.87,0,0,0-14.29,16.26c-14.42,131.17-8.05,265.74,77.52,368,65.72,80.73,220.9,143.75,359.26,170.06l5.22-78.67c-90.15-3.49-242.07-74.53-294.41-144.14-60-77.69-53.07-172.36-46.64-265.59A48.54,48.54,0,0,0,423.25,945.55Z"/><path class="cls-6" d="M572.79,775.18c-3.36-.14-6.68-.32-9.95-.46a180.25,180.25,0,0,1-97-33.44,0,0,0,0,0-.05,0s0,0-.09,0A477.62,477.62,0,0,1,420,693l-.18-.23c-25.58-30.85-51.53-68.65-77.52-114.59l-.27-.54a1.65,1.65,0,0,0-.23-.46s-91,37.49-96.78-89.74c0,0-5.27-75.28,42.26-59.2h63.84V331.89l15.9,189.61S495.14,716.2,572.79,775.18Z"/><path class="cls-7" d="M830.71,705.73v0A116,116,0,0,1,799,743.38a113.67,113.67,0,0,1-18.81,11.8c-.45.24-.92.47-1.37.69-28.19,13.68-63.2,22.4-102.71,25.27a440.43,440.43,0,0,1-84.39-2.44l-.15,0c-53.35-6.51-100.67-11.64-138.12-19-52.52-10.34-85.66-25.09-88.94-54.2C359.06,657.13,342.9,582,341.91,577.39a.71.71,0,0,1-.05-.16.17.17,0,0,1,0-.07s-91,37.48-96.79-89.74c0,0-5.27-75.28,32.16-59.2h63.85l1.19-34.4.69-20.37,8.21-239.3H785.68a31.49,31.49,0,0,1,.05,4s7.53,60.88,17.33,142.42c8.39,69.86,18.46,154.89,26.84,229.79,5.7,50.71,10.63,96.77,13.77,130.3A115.7,115.7,0,0,1,830.71,705.73Z"/><path class="cls-8" d="M376,200.8s22.18-62.61,60.3-49.15,200.93,42.23,290.15,7.93c55.64-21.39,64.89,21.71,64.89,21.71,3.77-24,0-71.13,0-71.13H360.39Z"/><path class="cls-8" d="M707.6,724.61C703.67,746.47,687,755.27,687,755.27l-1.28,3a8.67,8.67,0,0,0-1.18.79c-13.37,10.65-38.82,4.19-46.49-3-43.71,32.22-83.2-29.83-89.59-40-.34.12,4.22,11.49-89.32,1.44S356,510.36,356,510.36l-7.51-116.54h-6.21l-1.19,34.4H277.21c-37.43-16.08-32.16,59.2-32.16,59.2,5.81,127.22,96.79,89.74,96.79,89.74a.17.17,0,0,0,0,.07.71.71,0,0,0,.05.16c1,4.62,17.15,79.74,22.58,128.07,3.28,29.11,36.42,43.86,88.94,54.2,37.45,7.38,84.77,12.51,138.12,19l.15,0a438.91,438.91,0,0,0,84.42,2.37l0,.07q16-1.15,30.89-3.59l.43-.07q11.1-1.8,21.56-4.28l.92-.22q5-1.2,9.85-2.55l1.07-.31q9.71-2.75,18.73-6.09l1.27-.47q4.29-1.6,8.4-3.36l1.37-.59c2.79-1.2,5.54-2.44,8.22-3.74.45-.22.92-.45,1.37-.69A113.67,113.67,0,0,0,799,743.38a116,116,0,0,0,31.73-37.63C804.7,741.23,732.26,725.17,707.6,724.61Z"/><path class="cls-3" d="M301.88,552.47c-3.49,0-7.73-1.34-12.69-4a2.28,2.28,0,0,1-.92-3.08,2.26,2.26,0,0,1,3.08-.92c4.95,2.66,11.48,5.16,14.55,1.92,4.89-5.16,1.08-23.18-5.37-33.76-2-3.22-2.33-5.93-1.09-8.05,1.48-2.53,4.93-3.7,10.62-3.47a7,7,0,0,0,6.23-2.93,5,5,0,0,0-.32-5.76c-7.89-10.71-23-28-35.88-23.17-5.77,2.15-9.19,5.16-10.18,8.94-1.76,6.75,4.51,14.26,4.58,14.33a2.27,2.27,0,0,1-3.46,2.95c-.32-.38-7.86-9.35-5.52-18.4,1.37-5.31,5.75-9.37,13-12.08,14.85-5.55,30.56,10.4,41.13,24.74a9.48,9.48,0,0,1,.49,10.89,11.44,11.44,0,0,1-10.22,5c-5.56-.17-6.45,1.08-6.54,1.23-.23.39-.09,1.51,1.05,3.38,5.74,9.42,12.43,31.2,4.78,39.26A9.63,9.63,0,0,1,301.88,552.47Z"/><path class="cls-3" d="M545.71,413.12s-4.88-1.3-11.87-2.82c-3.54-.73-7.64-1.49-12-2.09-2.22-.23-4.48-.53-6.78-.64a63.86,63.86,0,0,0-6.93-.21c-2.33-.12-4.62.18-6.94.22-2.21.29-4.55.42-6.74.71s-4.27.69-6.36,1c-1.92.43-3.82.82-5.63,1.17-3.72.66-6.39,1.51-8.67,1.94s-3.57.73-3.57.73.58-.5,1.8-1.34a27.38,27.38,0,0,1,6-3.33c1.5-.63,3.13-1.32,5-2,2.11-.59,4.37-1.22,6.86-1.8s5.49-1,8.49-1.36c3.16-.16,6.35-.56,9.66-.49a91.62,91.62,0,0,1,9.66.48,83.81,83.81,0,0,1,8.57,1.28,61.43,61.43,0,0,1,12.06,3.74C544.18,410.91,545.71,413.12,545.71,413.12Z"/><path class="cls-9" d="M472.3,446.35s.54,37.09,34.28,37.09,49.58-30.74,30.65-40.65C519.32,433.17,492.07,430.67,472.3,446.35Z"/><path class="cls-10" d="M545.14,452.12s-1-.82-2.94-2.08-4.52-3-7.75-4.81c-1.59-.93-3.42-1.76-5.27-2.65s-3.93-1.58-6-2.3l-3.2-.94c-1.09-.27-2.24-.37-3.34-.62-2.19-.59-4.56-.47-6.83-.77-2.33.08-4.67,0-7,.27-2.28.48-4.68.39-6.89,1s-4.44,1-6.54,1.52c-2,.72-4,1.31-5.89,1.85a47,47,0,0,0-5.07,1.69c-1.49.57-2.87,1-4,1.38-2.28.73-3.67,1.1-3.67,1.1s.79-1,2.36-2.59c.79-.8,1.74-1.79,2.93-2.85A22.38,22.38,0,0,1,480.3,438c1.67-1.12,3.52-2.34,5.57-3.52s4.52-2.07,7-3a56.46,56.46,0,0,1,8.25-2.17,63,63,0,0,1,9.08-.65c3.06.38,6.21.39,9.07,1.33a38.63,38.63,0,0,1,8.12,3,36.43,36.43,0,0,1,6.53,4,30.19,30.19,0,0,1,4.81,4.41,31.11,31.11,0,0,1,3.28,4.15A28.52,28.52,0,0,1,544,449,15.24,15.24,0,0,1,545.14,452.12Z"/><ellipse class="cls-10" cx="503.24" cy="455.53" rx="18.85" ry="23.97"/><path class="cls-9" d="M713,444.19s.46,32.57,28.92,32.57,41.82-27,25.85-35.7C752.66,432.62,729.68,430.42,713,444.19Z"/><path class="cls-10" d="M774.45,449.26s-.89-.72-2.49-1.83a74.89,74.89,0,0,0-6.53-4.22c-1.35-.82-2.89-1.54-4.45-2.33s-3.32-1.39-5.05-2l-2.7-.82c-.92-.24-1.89-.33-2.82-.55a43.77,43.77,0,0,0-5.76-.68c-2,.07-3.94,0-5.89.24-1.93.43-4,.34-5.81.91s-3.75.86-5.53,1.33c-1.7.63-3.38,1.15-5,1.62a40.57,40.57,0,0,0-4.28,1.49c-1.26.5-2.42.88-3.37,1.21-1.92.64-3.09,1-3.09,1s.67-.85,2-2.27c.66-.7,1.47-1.57,2.47-2.5a18.55,18.55,0,0,1,3.57-2.94c1.41-1,3-2.06,4.7-3.09a62.42,62.42,0,0,1,5.94-2.66,45.62,45.62,0,0,1,7-1.91,52.11,52.11,0,0,1,7.66-.57c2.58.33,5.23.34,7.65,1.17a31.47,31.47,0,0,1,6.84,2.59,30,30,0,0,1,5.51,3.54,26.1,26.1,0,0,1,4.06,3.87,25,25,0,0,1,2.76,3.65,24.1,24.1,0,0,1,1.63,3A14.5,14.5,0,0,1,774.45,449.26Z"/><path class="cls-10" d="M755.38,452.25c0,11.63-7.12,21.05-15.9,21.05s-15.9-9.42-15.9-21.05,7.12-21,15.9-21S755.38,440.63,755.38,452.25Z"/><path class="cls-3" d="M771.17,413.12s-3.63-1.3-8.83-2.82c-2.64-.73-5.68-1.49-8.94-2.09-1.65-.23-3.33-.53-5-.64a35.46,35.46,0,0,0-5.16-.21c-1.73-.12-3.44.18-5.16.22-1.65.29-3.39.42-5,.71s-3.17.69-4.73,1-2.84.82-4.19,1.17c-2.77.66-4.76,1.51-6.46,1.94s-2.65.73-2.65.73a18.4,18.4,0,0,1,1.34-1.34,19.76,19.76,0,0,1,4.44-3.33c1.12-.63,2.33-1.32,3.76-2s3.25-1.22,5.1-1.8,4.09-1,6.32-1.36c2.35-.16,4.73-.56,7.19-.49a51,51,0,0,1,7.19.48,47.63,47.63,0,0,1,6.38,1.28,38.06,38.06,0,0,1,9,3.74C770,410.91,771.17,413.12,771.17,413.12Z"/><path class="cls-3" d="M546.07,493.1a13.26,13.26,0,0,1-.24,4.58,18,18,0,0,1-1.5,4.44,20.4,20.4,0,0,1-3,4.56,17.63,17.63,0,0,1-4.31,3.5,9.55,9.55,0,0,1-2.32,1.08,8.66,8.66,0,0,1-2.2.61,11.83,11.83,0,0,1-4.62,0c0-.09,1.64-.94,3.64-2.4a30.22,30.22,0,0,0,3.19-2.54,21.46,21.46,0,0,0,1.63-1.55,18.24,18.24,0,0,0,1.59-1.69c2.11-2.31,4-5,5.5-7S546.07,493.1,546.07,493.1Z"/><path class="cls-3" d="M715.23,486.73a10.42,10.42,0,0,0,.19,3.66,14.44,14.44,0,0,0,1.2,3.55,15.92,15.92,0,0,0,2.39,3.65,14.05,14.05,0,0,0,3.44,2.81,8.18,8.18,0,0,0,1.86.86,6.82,6.82,0,0,0,1.77.49,9.13,9.13,0,0,0,3.7,0c0-.07-1.32-.75-2.92-1.91a26.5,26.5,0,0,1-2.56-2c-.46-.35-.85-.83-1.3-1.24a15,15,0,0,1-1.27-1.36,68.71,68.71,0,0,1-4.4-5.62C716.14,487.91,715.23,486.73,715.23,486.73Z"/><path class="cls-3" d="M548.11,593.68a56,56,0,0,0-11.61,2,70.35,70.35,0,0,0-11,3.93,63,63,0,0,0-11,6.27c-3.17,2.51-6.2,5.16-8,7.94a13.7,13.7,0,0,0-2.25,4,9.66,9.66,0,0,0-1.07,3.63c-.88,4.51,1.35,7.17,1.07,7.16.23,0,2-2.89,5.31-6.51a62.94,62.94,0,0,1,5.78-5.87c1-1.07,2.42-2,3.59-3.09a50.18,50.18,0,0,1,4-3.07c5.42-4.1,11.8-8,16.69-11.05S548.11,593.68,548.11,593.68Z"/><path class="cls-3" d="M491.22,254.81s16.47-3.52,41.39-6.6c12.45-1.61,27-3.13,42.64-4.33,7.82-.53,15.9-1.26,24.12-1.59l25-1,25-.28c8.24-.12,16.36.25,24.22.45,15.72.53,30.4,1.63,42.94,3.27,6.28.77,12,1.75,17.07,2.72s9.43,2.12,13,3.16a60.33,60.33,0,0,1,8.08,3l2.75,1.27-3-.56c-1.89-.46-4.79-.6-8.37-1s-8-.45-13.06-.64l-17-.1-20.09.33-22.43.59-48.79,1.45-24.82.56c-8.18.28-16.25.24-24.06.41s-15.36.15-22.53.19-13.94,0-20.21,0C508,255.84,491.22,254.81,491.22,254.81Z"/><path class="cls-3" d="M529,284.72S532,284,537.38,283s13-2.36,22.29-3.55c4.62-.61,9.62-1.29,14.93-1.77s10.89-1.15,16.68-1.55c11.59-.89,24-1.53,36.36-1.78,6.2-.12,12.4-.18,18.51-.1s12.13.23,18,.46,11.45.69,16.79,1.09,10.39,1,15,1.58,8.93,1.39,12.68,2,7,1.66,9.68,2.29a38.59,38.59,0,0,1,6.07,2.18l2,.89-2.27-.13a55,55,0,0,0-6.24-.26c-2.73.11-5.94,0-9.71.23l-12.58.59-31.51,1.6c-11.53.49-23.84.89-36.17,1.17s-24.66.32-36.23.2-22.4-.42-31.69-.94-17-1-22.49-1.54S529,284.72,529,284.72Z"/><path class="cls-3" d="M658.53,408c2.44,3.79,4.76,7.67,7,11.59s4.42,7.86,6.5,11.87,4.19,8,6.12,12.08,3.88,8.17,5.74,12.29c3.72,8.25,7.07,16.66,10.27,25.16s5.94,17.19,8.32,26A204.91,204.91,0,0,1,708,534a111.06,111.06,0,0,1,.39,28.25,59.76,59.76,0,0,1-3.67,14.32,39.41,39.41,0,0,1-8.34,13,34.62,34.62,0,0,1-13.08,8.36,47.41,47.41,0,0,1-14.6,2.73l.82-.14c-1.68.37-3.21.65-4.82.93s-3.17.51-4.75.74c-3.18.44-6.36.82-9.56,1a111.29,111.29,0,0,1-19.31-.28c-1.61-.21-3.21-.44-4.81-.78a46.43,46.43,0,0,1-4.76-1.15,45.87,45.87,0,0,1-4.66-1.62,31.15,31.15,0,0,1-4.4-2.29A23.14,23.14,0,0,1,608.5,594a13.26,13.26,0,0,1-1.69-1.82l-.78-1-.65-1a10.66,10.66,0,0,1-1.13-2.17,11.85,11.85,0,0,1-.84-2.26,16.3,16.3,0,0,1-.56-2.32l-.28-2.35a25.88,25.88,0,0,0,1.67,4.33,11.41,11.41,0,0,0,1.17,2,9.46,9.46,0,0,0,1.38,1.77l.72.85.84.74a11,11,0,0,0,1.73,1.37,20.91,20.91,0,0,0,3.84,2.14,38.18,38.18,0,0,0,4.17,1.47c1.44.36,2.88.7,4.36.92s3,.4,4.45.48,3,.13,4.51.16a105.16,105.16,0,0,0,18.09-1.56c3-.5,6-1,9-1.67,1.49-.33,3-.66,4.44-1s3-.76,4.31-1.16l.22-.06.61-.07a42.88,42.88,0,0,0,11.62-2.91,25.86,25.86,0,0,0,9.16-6.44c5-5.52,7.58-13.32,8.51-21.53a83.51,83.51,0,0,0,.52-12.6c-.13-4.27-.41-8.57-1-12.87s-1.2-8.62-2-12.93-1.74-8.6-2.71-12.9c-2-8.59-4.36-17.13-6.9-25.65q-1.87-6.39-3.94-12.75l-4.25-12.69q-2.14-6.34-4.44-12.65l-4.58-12.63C665,424.78,661.81,416.37,658.53,408Z"/><path class="cls-3" d="M548.11,714.5l.72,1.52a43.83,43.83,0,0,0,2.17,4.19,67.75,67.75,0,0,0,3.88,6.07l2.72,3.48c1,1.16,2.1,2.39,3.23,3.66a98,98,0,0,0,8,7.47l2.27,1.87,2.44,1.78c1.62,1.23,3.37,2.35,5.11,3.54A103.07,103.07,0,0,0,590,754.33c2,1,4.05,1.76,6.09,2.64,2.1.7,4.18,1.53,6.33,2.06a55.72,55.72,0,0,0,12.87,2.42,40.08,40.08,0,0,0,12.36-.8,30.8,30.8,0,0,0,10.42-4.56c.76-.51,1.39-1.16,2.08-1.71l1-.86.89-1,1.75-1.89,1.44-2.06a29.33,29.33,0,0,0,2.4-4.1,27.56,27.56,0,0,0,1.78-4l.75-1.87.53-1.8c.34-1.16.66-2.23.95-3.19.87-4,1.36-6.25,1.36-6.25s0,.59,0,1.68.06,2.72,0,4.78c-.11,1-.23,2.16-.37,3.4-.07.62-.13,1.28-.24,1.94s-.31,1.35-.48,2.06a29.74,29.74,0,0,1-1.25,4.5,28.25,28.25,0,0,1-2.07,4.81l-1.35,2.49-1.74,2.4c-.3.41-.59.83-.92,1.23l-1.09,1.11c-.75.73-1.46,1.55-2.3,2.23a32.57,32.57,0,0,1-12,6.34,41.56,41.56,0,0,1-14.26,1.55,61.33,61.33,0,0,1-14.36-2.45c-2.35-.63-4.59-1.55-6.86-2.36-2.2-1-4.44-1.84-6.53-3a84.9,84.9,0,0,1-11.85-7.2,79.75,79.75,0,0,1-9.86-8.37,73,73,0,0,1-7.6-8.71c-1-1.46-2-2.88-2.9-4.24l-2.27-4a48.76,48.76,0,0,1-2.93-6.9,30.12,30.12,0,0,1-1.28-4.58Z"/><path class="cls-3" d="M642.06,753.81c.88.16,1.05.26,2.22.57,2.4.62,5.65,1.48,9.62,2.22a68.63,68.63,0,0,0,13.61,1.2,54.28,54.28,0,0,0,7.63-.71,42.94,42.94,0,0,0,7.6-2.11c1.26-.42,2.42-1.06,3.64-1.59s2.35-1.23,3.42-2a30.1,30.1,0,0,0,3.16-2.31,27.21,27.21,0,0,0,2.87-2.57,30,30,0,0,0,2.55-2.76,28.06,28.06,0,0,0,2.22-2.85,25,25,0,0,0,1.91-2.86c.56-1,1.19-1.85,1.64-2.79.93-1.86,1.85-3.54,2.45-5.13s1.26-2.93,1.62-4.1c.79-2.32,1.25-3.64,1.25-3.64l-.88,3.76c-.24,1.21-.71,2.62-1.21,4.27s-1.21,3.45-2,5.44c-.36,1-.91,2-1.39,3a28.23,28.23,0,0,1-1.67,3.15,31.69,31.69,0,0,1-2,3.21,32.32,32.32,0,0,1-2.4,3.18,30.93,30.93,0,0,1-2.8,3.07,32.23,32.23,0,0,1-3.19,2.85c-1.08,1-2.34,1.71-3.53,2.58s-2.51,1.55-3.85,2.17a48,48,0,0,1-8.23,3.19,57.77,57.77,0,0,1-8.37,1.64,75.74,75.74,0,0,1-15,.2c-4.36-.37-8-1-10.37-1.33-1.22-.19-6.66-2-4.16-1.2C638.58,761.57,641.12,753.59,642.06,753.81Z"/><path class="cls-11" d="M372.38,188.69c-6.72-15.83-20.81-28.23-38.52-33.95-22.63-7.33-73.09-27-95.24-9.51-10.68,8.43-11.8,41.49-8.37,82.5.36,4.53.81,9.18,1.28,13.89s1,9.53,1.59,14.37c.32,2.67.65,5.36,1,8.05.23,1.79.45,3.59.7,5.38.47,3.59.94,7.2,1.45,10.79.14,1,.3,2,.43,3,.25,1.66.47,3.34.72,5,10.83,74.18,25.34,138.45,25.34,138.45s56.44-8.72,69.79,52.81l6.29,33.11a8.18,8.18,0,0,0,8,6.65h.94a8.19,8.19,0,0,0,8.15-8.91c-2.7-30.77-4.93-61.7-5.91-92.52-1.1-35.16-4.67-73.48-1.37-110,.14-1.64.29-3.27.47-4.91v0c.2-1.73.41-3.43.63-5.14.4-3.18.87-6.39,1.44-9.53.09-.63.2-1.23.31-1.84.56-3.3,1.23-6.59,2-9.82s1.55-6.26,2.42-9.35c.05-.18.12-.36.16-.54,1.28-4.37,2.72-8.52,4.31-12.51a120.12,120.12,0,0,1,8.5-17.11A52.8,52.8,0,0,0,372.38,188.69Z"/><path class="cls-12" d="M360.39,254.2c-1.59,4-3,8.14-4.31,12.51,0,.18-.11.36-.16.54-17.76-18.86-48.84-38.28-98.51-29.56-9.37,1.64-18,2.94-25.88,3.93-.47-4.71-.92-9.36-1.28-13.89q11.61-1.44,25.48-3.85C306.61,215,340.11,234.13,360.39,254.2Z"/><path class="cls-12" d="M351.22,288.26c-.57,3.14-1,6.35-1.44,9.53-.22,1.71-.43,3.41-.63,5.14-18.52-16.42-47.9-30.68-91.74-23-7.38,1.3-14.26,2.38-20.72,3.28-.13-1-.29-2-.43-3-.51-3.59-1-7.2-1.45-10.79,6.48-.87,13.43-2,20.92-3.27C299.57,258.43,330.52,271.64,351.22,288.26Z"/><path class="cls-10" d="M568.55,359.54c-5.56,6-30.69-3.33-59.73-2.76-29-.57-54.17,8.78-59.73,2.76-6.25-5.45,18.08-30.8,59.73-30.81S574.8,354.09,568.55,359.54Z"/><path class="cls-10" d="M780.23,359.54c-4,6-22.18-3.33-43.18-2.76-21-.57-39.16,8.78-43.18,2.76-4.52-5.45,13.07-30.8,43.18-30.81S784.75,354.09,780.23,359.54Z"/><path class="cls-13" d="M713.5,637.23s-.27,7-14.91,22.52c-.58.57-1.15,1.15-1.73,1.77-11.5,11.72-27.52,21.23-48.53,19.73a172.55,172.55,0,0,1-78.22-25.13,159.06,159.06,0,0,1-16.73-11.9c-.17-.13-.39-.27-.57-.4a152,152,0,0,1-17.61-17c-2-2.3-3.94-4.64-5.75-7a57.19,57.19,0,0,0,14.47,9C596.87,652.71,713.5,637.23,713.5,637.23Z"/><path class="cls-14" d="M587.49,651.43c-.44,0-1.28-.18-2.43-.35a22.52,22.52,0,0,1-3.27-.58c-1.24-.35-2.66-.62-4.21-1.06a107.23,107.23,0,0,1-10.13-3.76c-3.63-1.59-7.43-3.45-11.15-5.49a210.19,210.19,0,0,1-21.1-13.36c-2-2.3-3.94-4.64-5.75-7a57.19,57.19,0,0,0,14.47,9c4,3.06,8.67,6.37,13.49,9.47,3.54,2.26,7.17,4.29,10.62,6.11a94.08,94.08,0,0,0,9.78,4.38c1.46.53,2.87.93,4.07,1.32a26,26,0,0,0,3.23.8C586.21,651.17,587.05,651.34,587.49,651.43Z"/><path class="cls-3" d="M606.43,705.72l8.86,1.36,9,1.41c3.26.48,6.72,1,10.18,1.32,1.73.13,3.46.39,5.15.42s3.37.24,5,.11a35.31,35.31,0,0,0,4.59-.25,20.87,20.87,0,0,0,4-.68,13.67,13.67,0,0,0,3.29-1.07,8.32,8.32,0,0,0,2.41-1.24l2-1.38s-.48.73-1.47,2a7.4,7.4,0,0,1-2.12,2,11.5,11.5,0,0,1-3.29,2l-2,.92c-.72.25-1.48.41-2.26.62a24.6,24.6,0,0,1-5,.9,53.51,53.51,0,0,1-10.81,0,78.82,78.82,0,0,1-10.5-1.91,75.05,75.05,0,0,1-8.84-2.78A54.66,54.66,0,0,1,606.43,705.72Z"/><path class="cls-11" d="M791.29,181.29a15,15,0,0,1-.65-3.21c-3.5-28.65-40.28-43.93-117-23.81s-187.63-6-237-16.08S376,200.8,376,200.8a2.79,2.79,0,0,1-.4-.11c-6.44-1.53-89.23-21.71-109.35-38.95-20.94-17.94-65-81.48,123-139C629.58-50.91,761.42,75.4,790.64,87.31,818.44,98.65,796.47,196.65,791.29,181.29Z"/><path class="cls-15" d="M791.29,181.29a15,15,0,0,1-.65-3.21c-3.5-28.65-40.28-43.93-117-23.81s-187.63-6-237-16.08S376,200.8,376,200.8a2.79,2.79,0,0,1-.4-.11c-4.49-16.37,1.12-38.95,1.12-38.95,33.79-74.75,122-33.23,162.74-19.06,17,5.9,50.68,9.77,69.14,10.09a294.51,294.51,0,0,0,47.6-2.87c34-4.86,49.93-12.92,83.22-21.43C789,115.78,791.49,179.3,791.29,181.29Z"/></g></svg>