<svg xmlns="http://www.w3.org/2000/svg" viewBox="0 0 1080 1080"><defs><style>.cls-1{fill:#8e5e38;}.cls-2{fill:#7a4e31;}.cls-3{fill:#82898b;}.cls-4{fill:#9ba1a2;}.cls-5{fill:#afb1b2;}.cls-6{fill:#787e7f;}.cls-7{fill:#676e70;}</style></defs><g id="Isolation_Mode" data-name="Isolation Mode"><polygon class="cls-1" points="449.87 586.95 217.92 177.26 178.2 238.61 392.91 602.97 449.87 586.95"/><polygon class="cls-2" points="423.24 594.44 199.35 205.94 178.2 238.61 392.91 602.97 423.24 594.44"/><path class="cls-3" d="M886.78,548.31V778.57c0,52.55-57.17,97.48-137.93,115.61a363.92,363.92,0,0,1-79.47,8.56H433.64c-120.06,0-217.4-55.6-217.4-124.17V548.31Z"/><polygon class="cls-4" points="241.72 602.97 83.23 602.97 61.5 570.94 241.72 575.94 241.72 602.97"/><polygon class="cls-4" points="1008.38 595.23 837.68 602.97 837.68 575.94 1018.5 575.94 1008.38 595.23"/><path class="cls-5" d="M285.59,567.58S231.12,821,352.82,864.44c0,0-19.88-256.18,8.51-296.86Z"/><path class="cls-6" d="M748.85,548.31V894.18a363.92,363.92,0,0,1-79.47,8.56H535V548.31Z"/><polygon class="cls-7" points="908.04 559.49 199.35 552.5 199.35 536.17 904.83 536.17 908.04 559.49"/></g></svg>