<svg xmlns="http://www.w3.org/2000/svg" viewBox="0 0 1080 1080"><defs><style>.cls-1{fill:#ede97e;}.cls-2{fill:#b1af5e;}.cls-3{fill:#e2e3e5;}.cls-4{fill:#fff;}.cls-5{fill:#b68056;}.cls-6{fill:#9c5245;}.cls-7{fill:#4f423a;}.cls-8{fill:#2f2013;}.cls-9{fill:#bf5950;}.cls-10{fill:none;stroke:#4f423a;stroke-linecap:round;stroke-miterlimit:10;stroke-width:22px;}.cls-11{fill:#a26a4b;}</style></defs><g id="Singh"><path class="cls-1" d="M518.7,1308c200,1.37,301.44-23.3,297.33-58.92S806.44,647.51,518.7,657.1s-254.86,590.56-212.38,612.48S518.7,1308,518.7,1308Z"/><path class="cls-2" d="M766.71,911.75C727.1,776.28,654.19,652.82,518.5,657.35,393.8,661.5,329.33,773,299.75,899.74L529.66,742.06Z"/><path class="cls-3" d="M498.14,1081.86s-353.51,32.89-352.14,0,80.61-391.21,278-388.8c64.64,258.31,74.11,303.85,74.11,303.85Z"/><path class="cls-4" d="M498.14,1082.3l-95.91,7.78s-26-71.25-37-121.94c28.77-6.85,28.77-6.85,63-15.07-24.66-5.49-41.16-9.39-71.25-16.45,24.67-105.5,41.11-163,67-243.13,64.64,258.31,74.11,303.85,74.11,303.85Z"/><path class="cls-3" d="M562.54,1081.86s408.32,48,407,15.08S834.08,690.65,636.65,693.06C572,951.37,562.54,996.91,562.54,996.91Z"/><path class="cls-4" d="M562.54,1082.3l95.92,7.78s26-71.25,37-121.94c-28.77-6.85-28.77-6.85-63-15.07,24.67-5.49,41.17-9.39,71.25-16.45-24.66-105.5-41.1-163-67-243.13C572,951.8,562.54,997.34,562.54,997.34Z"/><path class="cls-5" d="M451.56,681.77c5.48,41.1,26,131.54,74,128.79S611.87,727,606.39,706.43,579,639.29,579,639.29Z"/><path class="cls-6" d="M589.65,662.69c2,8.47-24.46,31.68-62.45,40.47S454,703,452.08,694.53s27.24-22.48,65.23-31.27S587.68,654.21,589.65,662.69Z"/><ellipse class="cls-6" cx="221.36" cy="385.12" rx="68.51" ry="81.53"/><path class="cls-7" d="M646.13,78.88c126,31.52,246.53,203.27,107.5,423.63S646.13,78.88,646.13,78.88Z"/><path class="cls-5" d="M185.74,491.31s-2.74-260.34,0-322S300.84,3.52,451.56,6.26,748.05,14.58,764,344.7c5.48,113.72-16.11,337.42-322,348C204.92,701,185.74,553,185.74,491.31Z"/><path class="cls-6" d="M373.46,465.28a43.26,43.26,0,0,1-22.12-.36,27.37,27.37,0,0,1-10.44-5.65l-1.14-1c-.36-.37-.7-.78-1-1.18a21.34,21.34,0,0,1-1.89-2.53,21,21,0,0,1-2.49-5.88,22.59,22.59,0,0,1-.64-6.27,25.74,25.74,0,0,1,.36-3.07l.28-1.51c.11-.49.27-1,.41-1.46a33.62,33.62,0,0,1,5.3-10.38,47,47,0,0,1,7.76-8.1,54,54,0,0,1,4.46-3.25,48.66,48.66,0,0,1,4.74-2.75c-2.3,2.85-4.62,5.55-6.72,8.38a73.84,73.84,0,0,0-5.6,8.68,36,36,0,0,0-3.52,9.1,18.69,18.69,0,0,0,0,8.92c1.31,5.65,6.13,10.12,12.15,12.88a52.49,52.49,0,0,0,9.67,3.34C366.34,464,369.85,464.61,373.46,465.28Z"/><path class="cls-8" d="M467.47,532.62c-50.7,45.21-120.58,41.1-145.24,4.11,42.47,2.74,130.17,1.37,145.24-4.11"/><path class="cls-9" d="M342.79,555.18c24.31,13.64,60.07,14.25,93.47-1.71C416.7,541.33,351.84,545.63,342.79,555.18Z"/><path class="cls-7" d="M746.15,159.72c-61.66,20.56-102.77,53.44-89.82,238.42C680,537.89,618.79,538.87,606.39,539.27,520.07,542,584.47,468,373.46,485.83,193.71,513,272.06,561.19,229.59,569.41s-45.07-105.5-45.07-105.5C129.56,865.37,1000,754,746.15,159.72ZM289.87,558.45c-9.59-48,188.35-76.85,208.27-9.59C509.11,585.85,299.47,606.41,289.87,558.45Z"/><ellipse class="cls-5" cx="738.61" cy="385.8" rx="68.51" ry="81.53"/><path class="cls-6" d="M709.15,432.39c-6.85-28.77-4.11-95.91,24.67-100-11,30.14-8.22,45.21-8.22,45.21C737.93,377.58,772.18,439.24,709.15,432.39Z"/></g><g id="Layer_1" data-name="Layer 1"><path class="cls-10" d="M573.5,262.49c-50.69-27.41-106.87-15.08-141.13,5.48"/><path class="cls-10" d="M315.91,268c-45.22-17.81-66.84-22.1-102.77-5.48"/><ellipse class="cls-8" cx="257.67" cy="371.42" rx="21.24" ry="26.72"/><ellipse class="cls-8" cx="519.38" cy="371.42" rx="21.24" ry="26.72"/><ellipse class="cls-11" cx="562.54" cy="442.67" rx="43.85" ry="21.24"/><ellipse class="cls-11" cx="239.18" cy="446.78" rx="43.85" ry="21.24"/></g></svg>