<svg xmlns="http://www.w3.org/2000/svg" viewBox="0 0 1080 1080"><defs><style>.cls-1{fill:#bbe4ee;}.cls-2{fill:#dcf0f4;}.cls-3{fill:#7a5038;}.cls-4{fill:#71c7b7;}.cls-5{fill:#f2de88;}.cls-6{fill:#fff;}.cls-7{fill:#b68056;}.cls-8{fill:#a26a4b;}.cls-9{fill:#552113;}.cls-10{fill:#8e3321;}.cls-11{fill:#38302a;}.cls-12{fill:#77281d;}.cls-13{fill:#e07670;}.cls-14{fill:#f6f6f6;}.cls-15{fill:#973e20;}.cls-16{fill:#2b2521;}.cls-17{fill:#79331a;}</style></defs><g id="Layer_1" data-name="Layer 1"><path class="cls-1" d="M706.21,1402.09c30.74,0,72.09-5.3,105.27-28.63,26.9-18.91,44.13-47.11,49.82-81.56,8.62-52.19-14.09-124.72-69.44-221.73A1312.77,1312.77,0,0,0,711,945.93a33.14,33.14,0,0,0-53,39.79,1270.33,1270.33,0,0,1,76.65,117.87c61.12,107.28,64.63,157.27,61.29,177.51-2.85,17.21-10,29.33-22.55,38.15-29.61,20.82-82.14,17.09-98.21,14.14a33.13,33.13,0,0,0-12,65.18A251.36,251.36,0,0,0,706.21,1402.09Z"/><path class="cls-2" d="M221.21,1323.91c-28.83-10.65-65.78-30-88.82-63.34-18.68-27.06-25.06-59.49-18.46-93.77,10-52,56.44-112.11,142-183.92a1310.15,1310.15,0,0,1,118.93-88.5,33.13,33.13,0,1,1,35.92,55.69,1267.89,1267.89,0,0,0-112.75,84c-94.52,79.45-115.14,125.12-119,145.27-3.3,17.13-.78,31,7.93,43.6,20.56,29.79,71.12,44.5,87.22,47.3a33.14,33.14,0,0,1-11.37,65.29A253.17,253.17,0,0,1,221.21,1323.91Z"/><rect class="cls-3" x="451.71" y="746.11" width="118.62" height="180.04"/><path class="cls-3" d="M570.33,746.11V816c-92.73,10.26-118.62-39.64-118.62-39.64V746.11Z"/><path class="cls-4" d="M702.18,936.61c-.7,16-2,37.43-3.78,62.47-.53,7.52-1.09,15.38-1.72,23.53q-.58,8.23-1.26,16.84c-.14,1.71-.28,3.45-.41,5.2v0c-.59,7.64-1.21,15.48-1.84,23.47-.54,6.7-1.09,13.53-1.67,20.45-.63,7.71-1.27,15.57-1.93,23.52q-.92,10.91-1.85,22c-.67,7.75-1.33,15.59-2,23.44-.57,6.63-1.13,13.3-1.74,20q-1,11.76-2,23.51-1,11-2,22c-.7,7.83-1.39,15.65-2.09,23.41-.66,7.36-1.32,14.69-2,21.92-.7,7.88-1.42,15.67-2.1,23.35q-.95,10.21-1.85,20.16c0,.56-.1,1.13-.16,1.69q-1,11.09-2,21.74c0,.52-.09,1-.13,1.56-.65,7-1.27,13.76-1.89,20.36-.75,8.07-1.47,15.87-2.17,23.35q-1.08,11.46-2,21.85c-.78,8.33-1.52,16.12-2.19,23.28-.76,8.11-1.46,15.41-2.06,21.81-1,10.27-1.72,18.16-2.21,23.23-.41,4.23-.62,6.47-.62,6.47H384.86s0-2.94,0-8.38.06-13.16,0-23c0-6.37,0-13.62-.12-21.6-.06-7.11-.13-14.81-.23-23-.12-6.87-.22-14.1-.37-21.62s-.29-15.15-.49-23.14q-.22-9.79-.55-20.07,0-.83,0-1.62-.33-10.53-.69-21.48c0-.57-.05-1.15-.05-1.73-.26-6.55-.51-13.22-.78-19.94q-.48-11.48-1-23.2c-.33-7.19-.7-14.46-1.11-21.77-.43-7.72-.88-15.5-1.36-23.29-.47-7.29-1-14.6-1.46-21.89-.57-7.84-1.15-15.65-1.8-23.43-.54-6.69-1.13-13.37-1.73-20-.72-7.89-1.48-15.73-2.3-23.47-.78-7.46-1.6-14.87-2.46-22.14q-1.46-12.07-3.06-23.72c-1-7-2-14-3.08-20.72q-1.95-12.33-4.15-23.93c-1.5-7.88-3.08-15.46-4.76-22.69-1-4.21-2-8.32-3-12.28-1.11-4.25-2.26-8.36-3.43-12.3-7.83-26.16-17.25-45.24-28.57-53.7v-6.51s.58-.58,1.71-1.64l0,0c2.75-2.6,8.58-7.84,17.17-14.43a307.1,307.1,0,0,1,81.95-45.08c5.14-1.85,10.44-3.61,15.88-5.21s10.88-3,16.51-4.32c10.54,11.83,39.39,36.62,70.07,36.62h.68l.16.14.12-.14c32.43-.54,45.06-28.14,47.81-35.47,5,1.21,9.92,2.59,15,4.17s10.21,3.29,15.36,5.22l0,0c26,9.67,53,24,80.83,44.27Q691.83,928.09,702.18,936.61Z"/><path class="cls-5" d="M585.44,871a.84.84,0,0,1-.08.2c-5.64,17-25.28,46.89-63.74,46.89-44.75,0-81.2-41-86.56-47.89,0,0,0,0,0,0,5.44-1.56,10.72-3.06,16.49-4.31l0,0c10.56,11.83,39.39,36.62,70.07,36.62h1c32.43-.54,45.06-28.14,47.83-35.47,0-.08.06-.14.08-.22C575.46,868,580.35,869.45,585.44,871Z"/><path class="cls-1" d="M570.14,867.09l-34.27,113.3s4.9,282.06,9.63,345.65c9.25,124.36,11.73,228.26,0,410.61,128.09-15.59,146.5-34.6,155.88-43.5a13.05,13.05,0,0,0,4.08-8.8l-2-746.21-1-1.21S635.35,877.18,570.14,867.09Z"/><path class="cls-2" d="M499.53,886.44,426.14,872.9s-69.77,21.34-112.58,65.89c43.46,73.52,63.16,583.92,34.84,753.32a13.14,13.14,0,0,0,7.73,14.23c24.62,10.65,138.55,30.25,189.37,30.31,16.84-97.46,30.93-274.17,7.36-671.91a318.3,318.3,0,0,0-17-84.35Z"/><polygon class="cls-6" points="569.94 929.38 577.49 883.52 596.98 929.38 585.23 870.27 569.94 840.64 567.44 911.78 569.94 929.38"/><polygon class="cls-6" points="451.32 832.84 499.53 886.44 481.98 945.89 426.14 872.9 451.32 832.84"/><polygon class="cls-2" points="598.28 1055.11 669.67 1055.11 675.1 1096.18 596.98 1095.95 598.28 1055.11"/><rect class="cls-4" x="451" y="1043.73" width="23.67" height="56.67" rx="3.26"/><rect class="cls-4" x="451" y="1043.73" width="23.67" height="56.67" rx="3.26" transform="translate(-609.23 1534.9) rotate(-90)"/><path class="cls-7" d="M325.4,262.38V512.52c8.56,13.6,4.74,30.44,5.69,46.1,1.3,21.5,2.1,44.07,7.74,65,4.57,17,14.8,33.06,25.3,49.59,12.35,19.46,91.51,111,102,112.58,93.45,14.17,225.34,55.56,236.12-33.39,11.08-91.39,48.14-490,48.14-490Z"/><path class="cls-8" d="M466.16,785.74c-10.52-1.6-81.16-19.66-108.34-83.94,0,0-17.45-55.26-17.52-55.37s-101.83,32.5-106.88-77.8c0,0-4.56-65.27,36.63-51.32H325.4v-83.5l56-49.59S381.32,716.43,466.16,785.74Z"/><path class="cls-9" d="M282.69,625q-4.54,0-11-3.48a2,2,0,1,1,1.87-3.46c4.28,2.31,9.95,4.47,12.61,1.67,4.24-4.48.93-20.1-4.66-29.27-1.7-2.8-2-5.14-.94-7,1.29-2.2,4.28-3.21,9.21-3a6.05,6.05,0,0,0,5.4-2.54,4.3,4.3,0,0,0-.28-5c-6.84-9.29-20-24.23-31.1-20.09-5,1.87-8,4.47-8.83,7.75-1.52,5.85,3.91,12.36,4,12.42a2,2,0,0,1-3,2.56c-.28-.33-6.82-8.11-4.78-16,1.19-4.59,5-8.11,11.26-10.46,12.87-4.81,26.49,9,35.65,21.44a8.19,8.19,0,0,1,.43,9.44,9.91,9.91,0,0,1-8.86,4.37c-4.82-.15-5.59.93-5.67,1.06-.2.34-.08,1.31.91,2.94,5,8.16,10.77,27,4.15,34A8.37,8.37,0,0,1,282.69,625Z"/><path class="cls-10" d="M494.5,504.22s-4.23-1.13-10.29-2.44c-3.07-.64-6.62-1.3-10.41-1.82-1.93-.2-3.88-.45-5.88-.55a52.19,52.19,0,0,0-6-.18c-2-.11-4,.15-6,.18-1.92.26-3.95.37-5.85.62s-3.69.6-5.51.86c-1.66.37-3.31.71-4.88,1-3.23.56-5.54,1.31-7.52,1.68s-3.09.63-3.09.63.5-.43,1.56-1.17a23.84,23.84,0,0,1,5.18-2.88c1.29-.54,2.71-1.14,4.37-1.72,1.83-.5,3.79-1.06,5.95-1.56s4.76-.85,7.36-1.17c2.74-.15,5.5-.5,8.37-.43a78.48,78.48,0,0,1,8.38.42,69.69,69.69,0,0,1,7.43,1.11,53.37,53.37,0,0,1,10.46,3.24C493.17,502.31,494.5,504.22,494.5,504.22Z"/><path class="cls-6" d="M434.15,533s.47,32.15,29.72,32.15,43-26.65,26.57-35.24C474.92,521.6,451.29,519.43,434.15,533Z"/><path class="cls-11" d="M497.3,538s-.91-.71-2.55-1.8-3.92-2.62-6.72-4.18c-1.38-.8-3-1.52-4.56-2.29s-3.42-1.37-5.2-2L475.5,527c-.94-.24-1.94-.32-2.9-.54a46.21,46.21,0,0,0-5.92-.67c-2,.07-4.05,0-6.06.24-2,.42-4.06.33-6,.89s-3.85.86-5.67,1.32c-1.75.62-3.48,1.13-5.11,1.6a43.5,43.5,0,0,0-4.4,1.47c-1.29.49-2.48.87-3.46,1.19-2,.64-3.18.95-3.18.95s.69-.84,2.05-2.24c.68-.69,1.51-1.55,2.54-2.46a19,19,0,0,1,3.67-2.91c1.45-1,3.05-2,4.83-3.06s3.92-1.79,6.1-2.62a48.16,48.16,0,0,1,7.15-1.88,55,55,0,0,1,7.88-.57c2.65.33,5.38.34,7.86,1.16a33.77,33.77,0,0,1,7,2.55,31.05,31.05,0,0,1,5.67,3.5,31.79,31.79,0,0,1,7,7.42,24.87,24.87,0,0,1,1.67,3A13.49,13.49,0,0,1,497.3,538Z"/><path class="cls-11" d="M475.21,541c0,11.47-7.32,20.78-16.34,20.78s-16.34-9.31-16.34-20.78,7.32-20.78,16.34-20.78S475.21,529.51,475.21,541Z"/><path class="cls-6" d="M648.87,531.15s.4,28.24,25.07,28.24,36.26-23.4,22.41-30.95C683.26,521.12,663.33,519.22,648.87,531.15Z"/><path class="cls-11" d="M702.14,535.55s-.77-.63-2.15-1.59-3.31-2.29-5.67-3.66c-1.16-.71-2.5-1.33-3.85-2s-2.88-1.2-4.38-1.75l-2.34-.71c-.8-.21-1.64-.28-2.44-.48a39.44,39.44,0,0,0-5-.58c-1.7.06-3.41,0-5.11.21-1.67.36-3.42.29-5,.78s-3.25.75-4.78,1.16-2.94,1-4.31,1.4a36,36,0,0,0-3.71,1.29c-1.09.44-2.09.76-2.92,1-1.66.56-2.68.84-2.68.84s.58-.74,1.73-2c.57-.61,1.27-1.36,2.14-2.17a16.09,16.09,0,0,1,3.09-2.55c1.22-.86,2.58-1.78,4.08-2.68s3.3-1.58,5.14-2.31a39.45,39.45,0,0,1,6-1.65,45.21,45.21,0,0,1,6.64-.5c2.24.29,4.54.3,6.63,1a27.18,27.18,0,0,1,5.93,2.24A26.54,26.54,0,0,1,694,524a22.77,22.77,0,0,1,3.52,3.36,22.07,22.07,0,0,1,2.39,3.16,20.74,20.74,0,0,1,1.41,2.63A12.09,12.09,0,0,1,702.14,535.55Z"/><ellipse class="cls-11" cx="669.72" cy="538.14" rx="13.78" ry="18.25"/><path class="cls-10" d="M698.94,504.22s-3.15-1.13-7.65-2.44c-2.29-.64-4.93-1.3-7.76-1.82-1.43-.2-2.88-.45-4.37-.55a28.92,28.92,0,0,0-4.47-.18c-1.5-.11-3,.15-4.48.18-1.42.26-2.93.37-4.35.62s-2.75.6-4.1.86-2.46.71-3.63,1c-2.4.56-4.12,1.31-5.6,1.68s-2.29.63-2.29.63.37-.43,1.15-1.17a17.3,17.3,0,0,1,3.86-2.88c1-.54,2-1.14,3.25-1.72s2.82-1.06,4.43-1.56,3.54-.85,5.48-1.17a57.46,57.46,0,0,1,6.23-.43,43.55,43.55,0,0,1,6.23.42,39.44,39.44,0,0,1,5.53,1.11,32.67,32.67,0,0,1,7.78,3.24C698,502.31,698.94,504.22,698.94,504.22Z"/><path class="cls-11" d="M251.91,213.25c-7,41.37,6.27,116.36,13.09,138.63,14.81,73.88,14.42,168.35,14.42,168.35,35.26,2.24,35.77,32.89,48.53,56.56.08.16,7.8,13.3,9.78,18.84,0-.07.07-5.76.09-7.57.1-14.68-3.25-132.2,22-143h0a6,6,0,0,1,.93-.32l9-2.41c7.75-2.07,13-8.26,13-15.26V320.38S252.7,209.41,251.91,213.25Z"/><path class="cls-11" d="M335.68,598.18l-.05-.14A.36.36,0,0,0,335.68,598.18Z"/><polygon class="cls-12" points="529.17 691.69 528.76 698.71 513.24 687.14 511.18 683.74 516.51 687.06 529.17 691.69"/><path class="cls-12" d="M609.12,700.56s-1-13-10.69-12.26-69,7.29-87.25-4.56c24.09,18.9,117.8,35.55,147.09,16.66,1.22-.78,1.08-2.28,2.07-3.18C660.34,697.22,612.26,674.78,609.12,700.56Z"/><path class="cls-13" d="M655.82,698.2a188.07,188.07,0,0,1-36.65,5.13,404.9,404.9,0,0,1-57.91-1.75c-10.9-1.17-21.91-4.59-31.06-8.08-.31,2.61-.67,5.17-1,7.72.31.26.62.53.94.77l.47.31a124.05,124.05,0,0,0,13.57,9.05,146.18,146.18,0,0,0,63.39,19.13c17,1.15,30-6.09,39.34-15,.47-.47.94-.91,1.41-1.34a80.14,80.14,0,0,0,6.11-6.71c.52-.64,1-1.23,1.41-1.8Z"/><path class="cls-14" d="M655.82,697.48c-18.41,2-89,8.31-127.78-5v7.63c5.74,2.63,58.14,25.14,126.37,7.28.53-.64,1-1.23,1.41-1.81Z"/><path class="cls-10" d="M511.18,683.74s68.36,57.58,116.43,38.82c12.89-6.25,32.73-25.34,32.73-25.34s-5.84,51.26-44.46,54.65C560.66,756.71,529.58,724.25,511.18,683.74Z"/><polygon class="cls-11" points="513.05 484.53 506.64 454.93 408.95 457.89 394.14 484.53 513.05 484.53"/><polygon class="cls-11" points="654.1 484.53 658.94 454.93 732.62 457.89 743.78 484.53 654.1 484.53"/><path class="cls-11" d="M315.33,556.39l34.38,115.53,22.73,12.59S342.18,464.78,351,454.93C329,467.76,315.33,556.39,315.33,556.39Z"/><polygon class="cls-11" points="349.71 676.46 372.44 687.07 373.67 691.02 351.22 682.14 349.71 676.46"/><path class="cls-11" d="M603.67,667.75c-2.78,1.2-27.67-11.34-32.49-12.22-22.72-4.11-53.14-8.5-70.44,10.73-14.95,16.61-8.31,39.78-8.9,60C490.18,784,504,791.18,504,791.18s111.93,49.62,171.6,9.47C685.91,754.58,738.53,609.2,603.67,667.75ZM654.1,790.44c-11.28,3.94-70.49,17.76-133.65-11.84,0,0-21.71-98.68-7.4-102.14s78.45,6.43,92.27,3,58.74-12,64.4,5.08S665.38,786.49,654.1,790.44Z"/><path class="cls-11" d="M592.25,800.79,599.84,770h9.43s3.29,29.94,14.47,30.77C601.7,803.27,592.25,800.79,592.25,800.79Z"/><path class="cls-9" d="M573.39,761.86l8.51,1.3,8.59,1.36c3.14.46,6.46,1,9.79,1.27,1.65.12,3.32.38,4.94.4s3.24.23,4.77.11a32.74,32.74,0,0,0,4.41-.25,19.16,19.16,0,0,0,3.87-.65,12.74,12.74,0,0,0,3.16-1,7.83,7.83,0,0,0,2.32-1.18l2-1.33s-.46.7-1.41,2a7.1,7.1,0,0,1-2,1.95,11.2,11.2,0,0,1-3.16,1.93l-2,.88c-.69.23-1.42.39-2.17.59a23.42,23.42,0,0,1-4.77.87,52.2,52.2,0,0,1-10.38,0,77.82,77.82,0,0,1-10.09-1.84,72,72,0,0,1-8.48-2.67A51.51,51.51,0,0,1,573.39,761.86Z"/><path class="cls-15" d="M382.78,367.1s22.14-30.83,46.27-19.41c46.16,21.84,249.91,54.71,313.36.14,1.27-18.72,6.33-29.13,6.33-29.13l-379.92-5.54Z"/><path class="cls-11" d="M766.52,294.1c-2,2.76-4.07,5.45-6.06,8a0,0,0,0,0,0,0c-12.59,16.09-10.65,28.13-13.54,31.88-11.86,15.43-196.49,37-271.68,4.12-49.64-21.71-78.51-3.85-92.42,10.78v0a61.35,61.35,0,0,0-10.34,14.21s21.53,12.58-117.78-73C220.22,125.47,371.38-19.41,593.21,2.13,803.55,22.56,804.31,242.83,766.52,294.1Z"/><path class="cls-16" d="M713.36,48.35c108.07,98.38,86,207.55,33.52,285.68-10.86,16.15-196.49,37-271.68,4.12-49.64-21.71-78.51-3.85-92.42,10.78.31-1.36,13.43-60.1,111.92-46.76C713.57,331.79,790.42,145.77,713.36,48.35Z"/><path class="cls-17" d="M554,632.45s70,21.95,86-6.67C641.11,656.84,589,681.86,554,632.45Z"/></g></svg>