<svg xmlns="http://www.w3.org/2000/svg" viewBox="0 0 1080 1080"><defs><style>.cls-1{fill:#edc1ab;}.cls-2{fill:#dbaa9c;}.cls-3{fill:#7bb89b;}.cls-4{fill:#619a7c;}.cls-5{fill:#edd1be;}.cls-6{fill:#d8a591;}.cls-7{fill:#fff;}.cls-8{fill:#493926;}.cls-9{fill:#9a7b4d;}.cls-10{fill:#e7aa9e;}.cls-11{fill:#ae8f5e;}</style></defs><g id="Isolation_Mode" data-name="Isolation Mode"><rect class="cls-1" x="483.63" y="875.81" width="135.19" height="268.79"/><path class="cls-2" d="M618.83,875.81v72.88c-105.68,10.7-135.2-41.35-135.2-41.35V875.81Z"/><path class="cls-3" d="M745.62,1074.85c-31.7-23.08-62.49-39.43-92.1-50.45l0,0q-8.7-3.24-17.22-5.87c-5.79-1.79-11.53-3.42-17.19-4.79-2.95,8-17.15,39.87-54.65,40.38l-.13.16-.18-.16h-.58c-35,0-67.87-28.29-79.89-41.77-6.57,1.42-10,2.39-16.21,4.16-7.2,2-14.17,4.31-20.88,6.73a349.91,349.91,0,0,0-93.41,51.39,33.15,33.15,0,0,0-8.27,43.2c9,15.18,17.39,35.58,23.17,57.79,43.45,166.67,39.43,533.51,39.43,533.51H717.05s29.48-306.17,44.34-498.95c3.71-48.45,6.51-89.7,7.73-117.2C761.26,1086.47,753.39,1080.43,745.62,1074.85Z"/><path class="cls-4" d="M636.25,1018.49c-6.33,19.4-28.74,53.37-72.73,53.37-51.09,0-92.72-46.95-98.69-54.64,6.22-1.77,12.23-3.49,18.8-4.91,12,13.49,44.9,41.77,79.89,41.77h.89c37.5-.51,51.7-32.41,54.65-40.38C624.72,1015.07,630.46,1016.7,636.25,1018.49Z"/><path class="cls-5" d="M780.07,275.3v51.44s-.18,2.41-.53,6.95V334c-.18,2.27-.09,11.45,0,37v6.73c0,9.31,0,20.44,0,33.81V802.18a70.12,70.12,0,0,1-6.95,30.47c-.05,0-.05,0-.05,0v0a85,85,0,0,1-34.61,36.61c-29.62,16.75-72.73,36.43-121.95,44C560.13,922,496.52,915,436,870.42c0,0,0,0-.09,0-38.39-35.85-78-87.57-117.85-159.81l-.27-.54a1.81,1.81,0,0,0-.22-.44s-86.86,36.74-92.43-88c0,0-5-73.81,40.36-58h61V275.3Z"/><path class="cls-1" d="M616,913.35C560.13,922,496.52,915,436,870.42c0,0,0,0-.09,0-38.39-35.85-78-87.57-117.85-159.81l-.27-.54a1.81,1.81,0,0,0-.22-.44s-86.86,36.74-92.43-88c0,0-5-73.81,40.36-58h61V525.49c22.36.13,39.82,2.72,45.61,9.62C372.12,535.11,302,856.39,616,913.35Z"/><path class="cls-1" d="M780.07,275.3v51.44s-.18,2.41-.53,6.95V334c-.18,2.27-.09,11.45,0,37v6.73a184.14,184.14,0,0,1-53.89.45c-39.69-5.53-125.16-6.33-205.21,17.41s-159-45.3-157.49-47.52L351.09,275.3Z"/><path class="cls-6" d="M572.4,816.27a190.6,190.6,0,0,0,18.31,6.47A186.46,186.46,0,0,0,610,827.47c3.55.73,7.27,1.19,11,1.69s7.62.78,11.47.83a112.14,112.14,0,0,0,11.46-.11l5.6-.47c1.83-.25,3.65-.43,5.42-.73,3.54-.6,7-1.29,10.15-2.08l4.62-1.29,4.26-1.39c2.71-1,5.16-1.93,7.33-2.81s4.05-1.73,5.54-2.5c3-1.51,4.77-2.34,4.77-2.34s-1.46,1.18-4.12,3.2c-1.32,1-3.07,2.08-5.05,3.36s-4.36,2.54-7,3.8l-4.21,1.91-4.68,1.74c-1.63.56-3.34,1-5.07,1.58s-3.58.87-5.43,1.32a96.36,96.36,0,0,1-11.62,1.71,116.86,116.86,0,0,1-12.15.31c-4.08-.12-8.12-.56-12.07-1.06a115.64,115.64,0,0,1-11.43-2.22c-3.68-.83-7.12-1.94-10.37-3s-6.23-2.24-8.93-3.42A89,89,0,0,1,572.4,816.27Z"/><path class="cls-6" d="M598,825.71s39.1-3.91,41.74-2.6c1.82.89,5.55,2.82,7.54,3.86a2.07,2.07,0,0,0,2.33-.28c2.1-1.93,7.2-6,12.3-5.38a72.73,72.73,0,0,1,13.25,3.15S642.65,839.4,598,825.71Z"/><path class="cls-6" d="M658.7,847.1a11.09,11.09,0,0,1-1.38,1.37,24.41,24.41,0,0,1-4.39,2.92,25.84,25.84,0,0,1-3.32,1.44,25.13,25.13,0,0,1-4,1.13,37.3,37.3,0,0,1-4.39.68c-1.51.05-3.06.13-4.59.07s-3.08-.17-4.55-.48a38.91,38.91,0,0,1-4.28-.93c-1.36-.39-2.66-.8-3.87-1.21s-2.28-1-3.29-1.42a16.43,16.43,0,0,1-2.66-1.36l-2-1.16c-1.09-.65-1.68-1-1.68-1s.73.2,2,.6,2.9,1.07,5,1.59c1,.29,2.18.6,3.36,1l3.79.83c1.3.35,2.71.39,4.08.66s2.82.23,4.23.37,2.84,0,4.24,0c1.38-.18,2.78-.13,4.07-.41a37.09,37.09,0,0,0,3.77-.72c1.19-.28,2.29-.63,3.31-1a35.41,35.41,0,0,0,4.77-2C658.08,847.49,658.7,847.1,658.7,847.1Z"/><path class="cls-2" d="M280.88,685.37q-5.13,0-12.44-3.93a2.23,2.23,0,0,1,2.12-3.92c4.85,2.61,11.25,5.06,14.26,1.89,4.8-5.06,1.06-22.73-5.26-33.1-1.93-3.16-2.28-5.82-1.07-7.89,1.45-2.49,4.84-3.63,10.41-3.4a6.86,6.86,0,0,0,6.1-2.87,4.85,4.85,0,0,0-.31-5.65c-7.73-10.5-22.58-27.4-35.17-22.72-5.65,2.11-9,5.06-10,8.76-1.72,6.63,4.43,14,4.49,14.06a2.22,2.22,0,0,1-3.39,2.88c-.32-.37-7.71-9.16-5.41-18,1.34-5.2,5.63-9.18,12.73-11.83,14.56-5.44,30,10.19,40.32,24.25a9.28,9.28,0,0,1,.49,10.67,11.25,11.25,0,0,1-10,4.94c-5.45-.17-6.33,1.06-6.42,1.2-.22.38-.09,1.48,1,3.32,5.62,9.23,12.19,30.58,4.69,38.48A9.43,9.43,0,0,1,280.88,685.37Z"/><path class="cls-2" d="M520.39,571.17s-4.78-1.27-11.62-2.76c-3.48-.72-7.5-1.46-11.78-2-2.18-.23-4.39-.52-6.64-.63a64,64,0,0,0-6.8-.21c-2.28-.11-4.53.18-6.8.21-2.17.3-4.47.42-6.61.7s-4.18.68-6.23,1c-1.88.42-3.75.8-5.53,1.14-3.64.65-6.26,1.49-8.5,1.91s-3.49.71-3.49.71.57-.49,1.76-1.32a27.15,27.15,0,0,1,5.86-3.26c1.46-.61,3.07-1.29,4.94-1.94,2.07-.57,4.29-1.2,6.73-1.77s5.38-1,8.32-1.32c3.1-.16,6.23-.56,9.47-.49a90.8,90.8,0,0,1,9.47.48,80.57,80.57,0,0,1,8.4,1.25,59.47,59.47,0,0,1,11.83,3.67C518.9,569,520.39,571.17,520.39,571.17Z"/><path class="cls-7" d="M452.16,603.75s.53,36.35,33.61,36.35,48.6-30.13,30-39.84C498.25,590.82,471.54,588.37,452.16,603.75Z"/><path class="cls-8" d="M523.57,609.4s-1-.8-2.88-2-4.44-3-7.61-4.71c-1.56-.92-3.35-1.72-5.16-2.6s-3.86-1.55-5.87-2.26l-3.14-.91c-1.06-.27-2.19-.37-3.27-.62-2.15-.57-4.47-.46-6.7-.75-2.28.08-4.58,0-6.85.27-2.24.47-4.59.38-6.75,1s-4.36,1-6.42,1.48c-2,.71-3.93,1.29-5.77,1.81a50.86,50.86,0,0,0-5,1.66c-1.45.57-2.8,1-3.91,1.36-2.23.71-3.6,1.07-3.6,1.07s.79-.95,2.32-2.53c.77-.78,1.71-1.76,2.87-2.79a21.79,21.79,0,0,1,4.15-3.29c1.64-1.1,3.45-2.29,5.46-3.45s4.44-2,6.9-3a55.53,55.53,0,0,1,8.09-2.13,62.09,62.09,0,0,1,8.91-.64c3,.37,6.08.38,8.88,1.31a37.66,37.66,0,0,1,8,2.89,34.46,34.46,0,0,1,6.4,3.95,29.94,29.94,0,0,1,4.72,4.32,29.06,29.06,0,0,1,3.21,4.07,27.57,27.57,0,0,1,1.89,3.39A15.43,15.43,0,0,1,523.57,609.4Z"/><ellipse class="cls-8" cx="500.28" cy="614.74" rx="18.44" ry="24.6"/><path class="cls-2" d="M741.57,571.17s-3.55-1.27-8.65-2.76c-2.59-.72-5.58-1.46-8.76-2-1.62-.23-3.27-.52-4.95-.63a35.45,35.45,0,0,0-5.06-.21c-1.69-.11-3.37.18-5.06.21-1.61.3-3.32.42-4.92.7s-3.11.68-4.63,1-2.79.8-4.11,1.14c-2.72.65-4.66,1.49-6.33,1.91s-2.6.71-2.6.71.42-.49,1.31-1.32a19.78,19.78,0,0,1,4.36-3.26c1.09-.61,2.28-1.29,3.68-1.94s3.19-1.2,5-1.77,4-1,6.2-1.32a70.26,70.26,0,0,1,7.05-.49,50.32,50.32,0,0,1,7,.48,45.72,45.72,0,0,1,6.25,1.25,36.75,36.75,0,0,1,8.81,3.67C740.46,569,741.57,571.17,741.57,571.17Z"/><path class="cls-7" d="M685.88,603.29s.44,35.41,27.72,35.41,40.09-29.34,24.78-38.81C723.9,590.71,701.87,588.32,685.88,603.29Z"/><path class="cls-8" d="M744.78,608.8s-.85-.78-2.38-2a72.81,72.81,0,0,0-6.27-4.6c-1.28-.89-2.76-1.67-4.25-2.53s-3.19-1.5-4.85-2.2l-2.58-.89c-.88-.26-1.82-.35-2.7-.6-1.78-.55-3.69-.44-5.53-.73-1.88.08-3.77,0-5.65.26-1.85.46-3.78.37-5.57,1s-3.59.94-5.29,1.44c-1.63.7-3.25,1.25-4.76,1.77a35.66,35.66,0,0,0-4.11,1.61c-1.2.55-2.31,1-3.22,1.32-1.84.7-3,1.05-3,1.05s.65-.93,1.91-2.47c.64-.76,1.41-1.71,2.37-2.72a19.34,19.34,0,0,1,3.42-3.2c1.35-1.07,2.85-2.23,4.5-3.36a57.13,57.13,0,0,1,5.7-2.89,38.48,38.48,0,0,1,6.67-2.07,43.37,43.37,0,0,1,7.34-.63c2.48.36,5,.37,7.34,1.28a28.15,28.15,0,0,1,6.56,2.81,29.3,29.3,0,0,1,5.28,3.85,27.37,27.37,0,0,1,3.89,4.21,27.76,27.76,0,0,1,4.2,7.27A15.87,15.87,0,0,1,744.78,608.8Z"/><ellipse class="cls-8" cx="725.58" cy="616.4" rx="15.21" ry="23.96"/><path class="cls-9" d="M796.71,887.43c-6.07-17-11.55-62-14.61-91.08,0,0-2.56-32.78-2.56-60.6-5.75,19.48-28.29,20.74-28.29,20.74q-8.89-4.22-20.53-9.65c-32.29-15.07-76.28,7.84-89.08,14C567,717.93,466.81,794.21,420.49,782.24s-48.81-211.07-48.81-211.07h-4.54l-42.86,32.54S352.49,741.5,380.7,842.14c59.62,86.56,209.5,119.54,246.62,126.52a25.87,25.87,0,0,0,15.84-2l150.05-70.78A6.79,6.79,0,0,0,796.71,887.43ZM733.84,836.6a22.06,22.06,0,0,1-13.59,17.3c-13.78,5.54-42.39,14.72-93.82,22.26-79.43,11.63-96.52-62.27-72-76.51S635.74,797,635.74,797C731.88,771.93,737.07,814.32,733.84,836.6Z"/><path class="cls-10" d="M649.43,592.69s4.41,16.28,9.27,40.94c1.24,6.16,2.58,12.83,3.8,19.92s2.67,14.53,3.86,22.28,2.64,15.72,3.75,23.88,2.33,16.42,3.5,24.7l.83,6.74.13,3.13a39.45,39.45,0,0,1-.34,4.34,28.77,28.77,0,0,1-6.76,14.44,26.91,26.91,0,0,1-6,5.17,39.26,39.26,0,0,1-3.6,1.95l-1.4.58-2,.68a21.09,21.09,0,0,1-16.17-1.56l-1.69-1-.41-.25-.37-.25-.15-.11-.58-.44-2.31-1.75A52.07,52.07,0,0,1,628,752c-1.58-1.44-2.89-3-4.27-4.49l-2.55-3.2c.24.07,0-.07-.06-.12s1-.06.47,0h-.16l-.33,0-.66,0a.29.29,0,0,0,.34-.08c0,.06-.12,0-.17.05a.13.13,0,0,1-.09,0h-.06l-.33.35a25.17,25.17,0,0,1-2,1.89,18.75,18.75,0,0,1-5.53,3.46,11,11,0,0,1-3.19.89,9.47,9.47,0,0,1-3.31.13,16.3,16.3,0,0,1-10-4.93,30.9,30.9,0,0,1-3.11-3.59,32.24,32.24,0,0,1-2.21-3.76,36.51,36.51,0,0,1-3.52-13.43,46.41,46.41,0,0,1,.09-8.67c.19-2,.4-3,.4-3a51.91,51.91,0,0,0,2.12,11.2,37.44,37.44,0,0,0,5.31,11.29,25.07,25.07,0,0,0,2.26,2.72,24,24,0,0,0,2.79,2.29,9.65,9.65,0,0,0,6.11,2.22c1.81-.06,3.82-1.32,5.38-3.08.36-.32,1-1.24,1.52-1.82l.51-.56.85-.85a9.83,9.83,0,0,1,4.82-2.32l.65-.1.33-.05.16,0,.65,0h.16a10.4,10.4,0,0,1,5,1.35,10.91,10.91,0,0,1,2,1.51l.5.46.81.86,1.68,1.76c1.23,1.08,2.45,2.31,3.77,3.27s2.45,2,4.18,3.07l2.41,1.62.6.41.16.1-.12-.08.06,0,.22.1.87.44a8.77,8.77,0,0,0,7,.22l.82-.3,1.37-.66,1.68-1.1a14.11,14.11,0,0,0,3.21-2.91,15.83,15.83,0,0,0,3.52-7.79c0-.65.19-1,.19-1.88l-.2-3.12c.09,1,0,.22,0,.42l0-.09,0-.2-.05-.39-.11-.77-.22-1.55-.43-3.11c-1-8.29-2-16.59-3-24.76s-1.75-16.24-2.6-24-1.46-15.35-2.08-22.52-1.11-14-1.52-20.22C649.41,609.56,649.43,592.69,649.43,592.69Z"/><polygon class="cls-9" points="572.4 530.01 550.98 486.87 431.34 508.44 412.86 538.64 572.4 530.01"/><polygon class="cls-9" points="675.54 525.98 688.98 493.81 764.02 509.89 775.61 532.42 675.54 525.98"/><path class="cls-9" d="M373.24,410.94v0c0,1.38,0,2.75-.06,4.15-.09,8.05-.2,16.18-.31,24.24,0,1.42,0,2.82-.05,4.22-.35,27-.67,53.23-.67,73.38,0,246.07-24.48,152.55-24.48,152.55s-33.41-103.57-93.54-108c0,0-39.81-134.74-57.65-231.15-.33-1.75-.65-3.49-1-5.2-1.51-8.39-2.82-16.46-3.93-24.08-.22-1.55-.44-3.11-.64-4.62-2.56-18.86-3.62-34.72-2.51-45.63,6.66-65.71,159.23-12,183.71,55.23C374.18,311.57,373.86,359,373.24,410.94Z"/><path class="cls-11" d="M827,307.5c57-12.83,77.68-34.65,91.94-72.29-3.61,6.19-24.59,12.12-46.15,16.75,23.83-37.55,33.1-69.53,33.1-69.53C780.07,220.91,727.38,101.59,597,50.37S300.23,66,300.23,66c-108.68,35.64-55.46,175.19-55.46,175.19,21.63,34.5,53.48,65.64,104.13,88.82A132,132,0,0,1,379,349c18.8,15.87,62.56,41.3,136.86,22.57,3.38-.84,6.77-1.64,10.06-2.4C576,357.86,622.8,358,656.77,360.59a529.25,529.25,0,0,0,158.17-11.7c42.58-9.65,86-24.21,104-46.42,0,0-67.53,8.82-96.7,9.35C823.81,310.44,825.41,309,827,307.5Z"/><path class="cls-11" d="M373.24,410.94v0c0,1.38,0,2.75-.06,4.15-1.76-.75-3.65-1.48-5.69-2.13a76.19,76.19,0,0,0-16.73-3.33,44.27,44.27,0,0,0-4.8-.33c-1.62-.05-3.28-.23-4.95-.12s-3.38.07-5.09.09-3.62.27-5.44.4l-5.64.45a44.49,44.49,0,0,1-6.22,0,46.32,46.32,0,0,1-12.53-2.42c-8.27-2.73-15.8-7.62-22.4-13.42s-12.21-12.66-17.35-19.7-9.9-14.31-14.79-21.29-9.84-13.75-15-20-10.24-12.1-15.39-17.15l-3.78-3.64c-1.35-1-2.68-2-3.95-3.11l-1-.78c-.33-.22-.69-.42-1-.62l-2-1.24c-.69-.43-1.36-.85-2-1.25s-1.4-.6-2.08-.91a39,39,0,0,0-13.69-3.6c-.22-1.55-.44-3.11-.64-4.62a39.61,39.61,0,0,1,16.55,3,49.57,49.57,0,0,1,17.86,12.71c5.31,5.55,9.64,12.28,14.06,19.1s8.86,14,13.8,20.91a205.55,205.55,0,0,0,16,20.13,158.38,158.38,0,0,0,18.3,17.5,61.75,61.75,0,0,0,20.69,11.33A46.31,46.31,0,0,0,319,403.05c.89.05,1.8.07,2.69.09s1.77-.09,2.66-.11l5.62-.27c1.89-.06,3.65-.24,5.53-.22l5.58.11c1.84,0,3.58.29,5.33.45s3.42.28,5.09.64a71.86,71.86,0,0,1,17.53,5.18C370.55,409.56,371.93,410.23,373.24,410.94Z"/><path class="cls-11" d="M372.87,439.35c0,1.42,0,2.82-.05,4.22a54.66,54.66,0,0,0-5.33-2,76.78,76.78,0,0,0-16.73-3.33c-1.55-.24-3.18-.24-4.8-.33s-3.28-.22-4.95-.11-3.38,0-5.09.09-3.62.26-5.44.4-3.76.28-5.64.44a47.78,47.78,0,0,1-6.22,0,46.32,46.32,0,0,1-12.53-2.42c-8.27-2.73-15.8-7.62-22.4-13.42s-12.21-12.66-17.35-19.7-9.9-14.31-14.79-21.28-9.84-13.75-15-20a230.17,230.17,0,0,0-15.39-17.12l-3.78-3.65c-1.35-1-2.68-2.06-3.95-3.11l-1-.77c-.33-.23-.69-.43-1-.65-.69-.42-1.38-.82-2-1.24s-1.36-.83-2-1.23-1.4-.6-2.08-.91a39.53,39.53,0,0,0-8.8-2.93c-.33-1.75-.65-3.49-1-5.2a41.61,41.61,0,0,1,12,2.94,49.3,49.3,0,0,1,17.86,12.7c5.31,5.56,9.64,12.27,14.06,19.11s8.86,13.95,13.8,20.9a208,208,0,0,0,16,20.13,156.71,156.71,0,0,0,18.3,17.5,61.93,61.93,0,0,0,20.69,11.33A46.83,46.83,0,0,0,319,431.66l2.69.09c.89,0,1.77-.11,2.66-.13,1.89-.09,3.78-.18,5.62-.25s3.65-.24,5.53-.24l5.58.13c1.84,0,3.58.29,5.33.45s3.42.29,5.09.64a72.3,72.3,0,0,1,17.53,5.18C370.4,438.11,371.67,438.71,372.87,439.35Z"/><path class="cls-1" d="M424.22,1090.23C543.61,1275.84,746,1390.57,971.41,1384.14c-1.77,26.73-3.15,46.38-4.93,73.1-266.46,7.58-504.79-115.45-632.41-347-.5-.84,53.06-21,74.86-34.6C419.57,1096.74,411.67,1070.81,424.22,1090.23Z"/><path class="cls-4" d="M360.62,1076.86c-12.09,9.06-23.55,18.54-30.9,24.79a15.32,15.32,0,0,0-4,18.11c8.44,17.35,25.91,51.82,69.17,105.46a8.82,8.82,0,0,0,11.46,1.94c49.54-32.51,79.91-54,93-63.47a7,7,0,0,0,3-5.71,7.81,7.81,0,0,0-2.95-6c-16.09-13.21-54.23-45.07-78.43-69.57C404.79,1066.06,378.3,1063.61,360.62,1076.86Z"/></g></svg>